<svg width="263" height="341" viewBox="0 0 263 341" fill="none" xmlns="http://www.w3.org/2000/svg">
<path d="M187.248 123.495C195.48 113.558 204.915 95.25 197.877 67.3855" stroke="#613C2E" stroke-width="9.20537" stroke-linecap="round"/>
<path d="M112.302 183.175C109.14 193.006 104.367 220.057 110.577 249.612" stroke="#613C2E" stroke-width="9.76571" stroke-linecap="round"/>
<path d="M133.221 181.954C137.506 191.35 145.394 217.662 142.667 247.739" stroke="#613C2E" stroke-width="9.76571" stroke-linecap="round"/>
<path d="M196.712 114.437C197.945 106.895 200.78 100.321 206.219 96.0433C210.327 92.752 215.388 91.6031 220.282 92.8509C227.612 94.7477 233.213 101.588 236.004 109.791C236.251 110.517 236.538 111.339 236.684 112.097C236.924 113.104 237.167 114.103 237.361 115.123C239.478 126.293 236.436 138.817 228.723 145.518C224.689 149.057 219.611 150.458 214.629 149.404C205.142 147.423 198.394 136.906 196.766 125.948C196.13 121.663 196.185 118.683 196.712 114.437Z" fill="#FEFEFE"/>
<path d="M223.177 103.705C232.3 102.333 235.536 117.801 232.822 125.819C230.938 131.39 227.509 134.585 222.508 132.082C219.12 129.708 217.939 126.809 216.813 122.481C218.719 121.075 220.646 119.709 222.593 118.385C220.557 117.015 218.511 115.662 216.459 114.328C217.27 109.303 218.887 105.25 223.177 103.705Z" fill="#613C2E"/>
<path d="M78.5866 271.379C78.4499 265.456 79.8373 259.347 85.1427 255.983C89.3915 253.289 95.6091 252.896 100.425 253.988C102.664 254.319 104.723 255.305 106.825 255.833C110.721 256.812 116.918 258.069 120.363 255.562C123.253 258.534 124.915 261.857 125.935 265.85C125.351 267.71 115.365 270.242 113.479 270.749C103.952 273.31 93.5279 276.751 83.6697 273.952C82.7291 273.681 78.9695 272.001 78.5866 271.379Z" fill="#F1FAFE"/>
<path d="M78.5866 271.379C78.4499 265.456 79.8373 259.347 85.1427 255.983C89.3915 253.289 95.6091 252.896 100.425 253.988C102.664 254.319 104.723 255.305 106.825 255.833C110.721 256.812 116.918 258.069 120.363 255.562C123.253 258.534 124.915 261.857 125.935 265.85C125.351 267.71 115.365 270.242 113.479 270.749C103.952 273.31 93.5279 276.751 83.6697 273.952C82.7291 273.681 78.9695 272.001 78.5866 271.379Z" fill="url(#paint0_linear_172_2191)"/>
<path d="M114.888 246.942C114.888 246.942 122.139 248.152 121.718 252.866C121.624 253.924 121.074 254.794 120.362 255.562C116.917 258.069 110.721 256.811 106.825 255.833C104.723 255.305 102.664 254.319 100.425 253.988C98.7336 249.88 104.968 247.734 104.968 247.734L114.888 246.942Z" fill="#DAF0FC"/>
<path d="M114.888 246.942C114.888 246.942 122.139 248.152 121.718 252.866C121.624 253.924 121.074 254.794 120.362 255.562C116.917 258.069 110.721 256.811 106.825 255.833C104.723 255.305 102.664 254.319 100.425 253.988C98.7336 249.88 104.968 247.734 104.968 247.734L114.888 246.942Z" fill="url(#paint1_linear_172_2191)"/>
<g filter="url(#filter0_i_172_2191)">
<path d="M140.279 120.186C141.767 113.08 145.063 106.866 151.29 102.781C155.994 99.6392 161.756 98.5009 167.301 99.6182C175.606 101.318 181.889 107.686 184.966 115.367C185.238 116.047 185.555 116.816 185.712 117.528C190.17 117.251 195.422 116.379 199.491 118.502C199.92 118.725 202.484 120.309 202.537 120.308C203.146 121.289 204.084 122.055 204.71 123.033C206.013 125.076 206.686 127.324 206.799 129.739C206.898 131.839 206.509 133.818 206.157 135.871C204.603 142.543 203.704 146.334 201.073 152.838C193.801 170.426 181.25 185.324 165.152 195.476C145.097 208.062 120.846 212.118 97.7874 206.74C89.6904 204.852 73.0442 196.727 73.0442 196.727L61.2454 188.52C61.2454 188.52 59.7475 187.217 59.0263 186.572C48.5733 177.28 40.7713 165.381 36.4158 152.091C34.0275 144.822 32.09 136.695 37.8719 130.386C39.626 128.457 41.862 127.03 44.3504 126.252C47.0814 125.399 52.026 125.315 55.1113 125.135C58.8526 124.904 62.5954 124.698 66.3393 124.518C68.6891 124.245 72.407 124.135 74.8355 123.993L91.1913 123.035L140.279 120.186Z" fill="url(#paint2_linear_172_2191)"/>
</g>
<path d="M134.358 120.07C136.042 112.027 139.772 104.995 146.82 100.371C152.144 96.815 158.665 95.5267 164.941 96.7912C174.34 98.7148 181.452 105.922 184.934 114.615C185.242 115.385 185.601 116.256 185.778 117.061C186.074 118.129 186.374 119.19 186.609 120.273C189.186 132.132 185.112 145.502 175.11 152.733C169.878 156.552 163.33 158.108 156.939 157.051C144.769 155.065 136.229 143.961 134.279 132.32C133.516 127.768 133.625 124.596 134.358 120.07Z" fill="#FEFEFE"/>
<path d="M168.525 108.305C180.272 106.727 184.231 123.147 180.639 131.715C178.144 137.669 173.694 141.113 167.297 138.514C162.972 136.032 161.492 132.962 160.1 128.37C162.569 126.849 165.064 125.371 167.584 123.936C164.984 122.504 162.372 121.091 159.75 119.698C160.858 114.34 162.989 110.006 168.525 108.305Z" fill="#613C2E"/>
<ellipse cx="6.27219" cy="13.9079" rx="6.27219" ry="13.9079" transform="matrix(-0.647771 0.761835 0.761835 0.647771 226.029 78.0791)" fill="#613C2E"/>
<path d="M135.223 250.402C133.335 248.778 132.743 246.104 134.159 243.923C135.396 242.018 138.094 241.481 140.2 241.096C140.063 242.099 140.042 243.811 140.001 244.875L140.147 244.938C143.441 246.32 146.774 246.255 150.066 244.901C150.02 243.697 150.111 241.986 150.176 240.769C153.735 241.369 155.494 242.33 154.789 246.32C163.12 243.308 172.554 244.787 175.733 254.13C176.301 255.796 177.09 258.668 177.13 260.432C177.481 261.773 177.547 263.967 176.95 265.255C175.868 267.586 171.717 269.573 169.36 270.405C161.341 273.182 152.754 271.475 144.635 270.213C138.669 269.286 134.923 269.489 132.562 262.875C131.105 258.356 131.146 253.484 135.223 250.402Z" fill="#EEF9FE"/>
<path d="M135.223 250.402C133.335 248.778 132.743 246.104 134.159 243.923C135.396 242.018 138.094 241.481 140.2 241.096C140.063 242.099 140.042 243.811 140.001 244.875L140.147 244.938C143.441 246.32 146.774 246.255 150.066 244.901C150.02 243.697 150.111 241.986 150.176 240.769C153.735 241.369 155.494 242.33 154.789 246.32C163.12 243.308 172.554 244.787 175.733 254.13C176.301 255.796 177.09 258.668 177.13 260.432C177.481 261.773 177.547 263.967 176.95 265.255C175.868 267.586 171.717 269.573 169.36 270.405C161.341 273.182 152.754 271.475 144.635 270.213C138.669 269.286 134.923 269.489 132.562 262.875C131.105 258.356 131.146 253.484 135.223 250.402Z" fill="url(#paint3_linear_172_2191)"/>
<path d="M139.863 153.855C141.129 153.402 142.328 153.3 143.459 153.521C144.579 153.74 145.526 154.254 146.328 154.876C147.83 156.041 149.059 157.803 150.024 159.049C150.272 159.326 150.496 159.588 150.69 159.798L150.884 160L150.902 160.017L150.919 160.035C154.304 163.553 155.991 165.332 159.906 167.454L160.719 167.884L160.725 167.887L160.732 167.89L161.989 168.553C163.096 169.014 164.223 169.362 165.438 169.778C166.615 170.181 167.877 170.65 168.96 171.33C170.076 172.032 171.074 173.001 171.634 174.422C172.185 175.822 172.234 177.465 171.837 179.382L171.808 179.523L171.754 179.658C170.038 183.961 165.914 186.026 161.369 186.566C156.815 187.106 151.516 186.183 146.729 184.208C141.945 182.235 137.486 179.135 134.744 175.143C131.955 171.084 130.97 166.119 133.227 160.76L133.242 160.726L133.258 160.692C134.528 158.021 136.442 155.079 139.863 153.855Z" fill="#613C2E" stroke="#613C2E" stroke-width="3.3055"/>
<path d="M164.995 180.43C155.046 181.011 131.267 164.188 134.657 157.777C137.728 154.009 141.149 153.018 142.476 152.994L148.139 156.404L152.658 161.945C156.027 163.485 162.573 167.627 166.814 170.119C171.055 172.611 172.36 175.645 172.483 176.851C172.134 177.772 173.245 179.948 164.995 180.43Z" fill="#FEFEFE"/>
<path d="M143.92 171.065L152.232 160.315" stroke="#B1B1B1" stroke-width="3.3055"/>
<path d="M156.941 178.582L161.662 168.704" stroke="#B1B1B1" stroke-width="3.3055"/>
<path d="M140.084 154.477C142.421 153.64 144.481 154.003 146.222 154.961C147.904 155.887 149.272 157.358 150.362 158.756C150.684 159.113 151.021 159.516 151.279 159.768L151.29 159.779L151.299 159.789C154.692 163.315 156.436 165.155 160.441 167.328L161.273 167.768L161.282 167.772L162.567 168.447C163.14 168.688 163.713 168.914 164.288 169.139C164.869 169.366 165.454 169.595 166.016 169.836C167.134 170.314 168.23 170.864 169.139 171.612C170.066 172.375 170.8 173.345 171.181 174.638C171.557 175.914 171.567 177.426 171.189 179.247L171.171 179.332L171.139 179.413C169.548 183.404 165.704 185.385 161.29 185.909C156.871 186.433 151.686 185.537 146.979 183.596C142.275 181.655 137.936 178.624 135.287 174.768C132.611 170.872 131.677 166.144 133.836 161.017L133.853 160.976C135.103 158.346 136.919 155.61 140.084 154.477Z" stroke="#613C2E" stroke-width="1.9833"/>
<path d="M135.222 250.403C133.334 248.778 132.742 246.104 134.158 243.924C135.395 242.018 140.199 241.097 140.199 241.097L150.175 240.77C150.175 240.77 155.493 242.33 154.788 246.321C153.557 246.548 150.723 248.122 149.421 248.672C145.61 250.279 139.057 252.631 135.222 250.403Z" fill="#DDF1FC"/>
<path d="M135.222 250.403C133.334 248.778 132.742 246.104 134.158 243.924C135.395 242.018 140.199 241.097 140.199 241.097L150.175 240.77C150.175 240.77 155.493 242.33 154.788 246.321C153.557 246.548 150.723 248.122 149.421 248.672C145.61 250.279 139.057 252.631 135.222 250.403Z" fill="url(#paint4_linear_172_2191)"/>
<path d="M171.545 41.0105C169.99 38.7832 170.979 35.8141 173.78 35.337C177.078 34.7749 180.237 35.8548 182.957 37.6322L183.446 38.1147C185.614 37.7874 191.256 38.7403 193.384 39.5133C194.517 39.9179 195.584 40.4896 196.549 41.2096C198.024 42.3106 199.313 43.7046 200.627 44.9733C204.126 48.3523 207.634 51.9836 208.21 57.0699C208.535 59.9338 208.283 63.6033 206.005 65.6849C206.872 67.3297 207.635 70.2358 205.395 71.2076C201.923 72.7137 197.899 73.3913 194.119 73.3492C190.633 73.3104 189.702 71.0924 189.647 67.9435C186.366 67.062 183.25 64.8957 182.178 61.5416C179.688 61.4313 176.144 61.38 174.339 59.4244C173.514 58.5136 173.088 57.3101 173.157 56.0833C173.284 53.5068 175.49 52.152 177.847 51.8867C178.151 51.843 178.281 51.841 178.566 51.7091C177.987 50.9823 172.202 50.2649 170.313 47.1263C169.671 46.041 169.487 44.7448 169.802 43.5239C170.089 42.4548 170.67 41.9038 171.591 41.375L171.545 41.0105Z" fill="#E9F6FD"/>
<path d="M171.545 41.0105C169.99 38.7832 170.979 35.8141 173.78 35.337C177.078 34.7749 180.237 35.8548 182.957 37.6322L183.446 38.1147C185.614 37.7874 191.256 38.7403 193.384 39.5133C194.517 39.9179 195.584 40.4896 196.549 41.2096C198.024 42.3106 199.313 43.7046 200.627 44.9733C204.126 48.3523 207.634 51.9836 208.21 57.0699C208.535 59.9338 208.283 63.6033 206.005 65.6849C206.872 67.3297 207.635 70.2358 205.395 71.2076C201.923 72.7137 197.899 73.3913 194.119 73.3492C190.633 73.3104 189.702 71.0924 189.647 67.9435C186.366 67.062 183.25 64.8957 182.178 61.5416C179.688 61.4313 176.144 61.38 174.339 59.4244C173.514 58.5136 173.088 57.3101 173.157 56.0833C173.284 53.5068 175.49 52.152 177.847 51.8867C178.151 51.843 178.281 51.841 178.566 51.7091C177.987 50.9823 172.202 50.2649 170.313 47.1263C169.671 46.041 169.487 44.7448 169.802 43.5239C170.089 42.4548 170.67 41.9038 171.591 41.375L171.545 41.0105Z" fill="url(#paint5_linear_172_2191)"/>
<path d="M171.578 41.4499C172.44 42.6097 174.09 43.4301 175.439 43.7915C175.532 43.9342 175.567 44.1427 175.587 44.3741C175.607 44.6066 175.613 44.8634 175.663 45.0618C175.947 46.1962 176.494 46.9781 177.207 47.4969C177.918 48.0149 178.79 48.2675 179.715 48.3528C181.554 48.5221 183.623 48.0298 185.126 47.6221C186.939 48.8535 188.169 49.677 189.813 51.1116L189.802 51.1214C188.168 52.4264 187.604 52.5857 186.11 54.3147C185.885 54.1694 185.611 53.9817 185.337 53.7998C185.047 53.6079 184.756 53.425 184.525 53.3192L184.465 53.4124C184.911 53.7998 185.283 54.147 185.796 54.4537C185.79 54.4741 185.785 54.4925 185.781 54.5084C185.774 54.5342 185.769 54.5534 185.764 54.5688C185.755 54.5995 185.75 54.6061 185.744 54.6113C185.736 54.6202 185.722 54.6285 185.681 54.6534C185.649 54.6735 185.605 54.7027 185.543 54.7464C185.378 54.6507 185.247 54.5617 185.113 54.4729C184.974 54.3808 184.832 54.2896 184.648 54.1957C184.587 54.1051 184.473 54.0034 184.326 53.8963C184.169 53.7817 183.967 53.6561 183.736 53.526C183.273 53.2656 182.686 52.9834 182.083 52.7241C181.481 52.4648 180.861 52.2284 180.332 52.0595C180.067 51.975 179.825 51.9068 179.618 51.8617C179.412 51.8169 179.237 51.794 179.11 51.8006C179.003 51.8062 178.914 51.8261 178.832 51.8484C178.748 51.8711 178.675 51.8944 178.59 51.9108C178.472 51.9337 178.332 51.94 178.129 51.9003C178.275 51.8768 178.4 51.8486 178.59 51.761L178.655 51.7308L178.61 51.6744C178.569 51.6218 178.506 51.5724 178.429 51.5251C178.352 51.4773 178.255 51.4297 178.146 51.3815C177.926 51.2851 177.643 51.1841 177.316 51.0748C176.661 50.8557 175.827 50.601 174.951 50.2702C173.306 49.6493 171.532 48.7679 170.547 47.3818L170.361 47.0979C169.727 46.0256 169.546 44.7453 169.857 43.5391C169.999 43.012 170.212 42.615 170.502 42.2847C170.783 41.964 171.14 41.7049 171.578 41.4499Z" fill="#FEFEFE"/>
<path d="M171.578 41.4499C172.44 42.6097 174.09 43.4301 175.439 43.7915C175.532 43.9342 175.567 44.1427 175.587 44.3741C175.607 44.6066 175.613 44.8634 175.663 45.0618C175.947 46.1962 176.494 46.9781 177.207 47.4969C177.918 48.0149 178.79 48.2675 179.715 48.3528C181.554 48.5221 183.623 48.0298 185.126 47.6221C186.939 48.8535 188.169 49.677 189.813 51.1116L189.802 51.1214C188.168 52.4264 187.604 52.5857 186.11 54.3147C185.885 54.1694 185.611 53.9817 185.337 53.7998C185.047 53.6079 184.756 53.425 184.525 53.3192L184.465 53.4124C184.911 53.7998 185.283 54.147 185.796 54.4537C185.79 54.4741 185.785 54.4925 185.781 54.5084C185.774 54.5342 185.769 54.5534 185.764 54.5688C185.755 54.5995 185.75 54.6061 185.744 54.6113C185.736 54.6202 185.722 54.6285 185.681 54.6534C185.649 54.6735 185.605 54.7027 185.543 54.7464C185.378 54.6507 185.247 54.5617 185.113 54.4729C184.974 54.3808 184.832 54.2896 184.648 54.1957C184.587 54.1051 184.473 54.0034 184.326 53.8963C184.169 53.7817 183.967 53.6561 183.736 53.526C183.273 53.2656 182.686 52.9834 182.083 52.7241C181.481 52.4648 180.861 52.2284 180.332 52.0595C180.067 51.975 179.825 51.9068 179.618 51.8617C179.412 51.8169 179.237 51.794 179.11 51.8006C179.003 51.8062 178.914 51.8261 178.832 51.8484C178.748 51.8711 178.675 51.8944 178.59 51.9108C178.472 51.9337 178.332 51.94 178.129 51.9003C178.275 51.8768 178.4 51.8486 178.59 51.761L178.655 51.7308L178.61 51.6744C178.569 51.6218 178.506 51.5724 178.429 51.5251C178.352 51.4773 178.255 51.4297 178.146 51.3815C177.926 51.2851 177.643 51.1841 177.316 51.0748C176.661 50.8557 175.827 50.601 174.951 50.2702C173.306 49.6493 171.532 48.7679 170.547 47.3818L170.361 47.0979C169.727 46.0256 169.546 44.7453 169.857 43.5391C169.999 43.012 170.212 42.615 170.502 42.2847C170.783 41.964 171.14 41.7049 171.578 41.4499Z" fill="url(#paint6_linear_172_2191)"/>
<path d="M171.578 41.4499C172.44 42.6097 174.09 43.4301 175.439 43.7915C175.532 43.9342 175.567 44.1427 175.587 44.3741C175.607 44.6066 175.613 44.8634 175.663 45.0618C175.947 46.1962 176.494 46.9781 177.207 47.4969C177.918 48.0149 178.79 48.2675 179.715 48.3528C181.554 48.5221 183.623 48.0298 185.126 47.6221C186.939 48.8535 188.169 49.677 189.813 51.1116L189.802 51.1214C188.168 52.4264 187.604 52.5857 186.11 54.3147C185.885 54.1694 185.611 53.9817 185.337 53.7998C185.047 53.6079 184.756 53.425 184.525 53.3192L184.465 53.4124C184.911 53.7998 185.283 54.147 185.796 54.4537C185.79 54.4741 185.785 54.4925 185.781 54.5084C185.774 54.5342 185.769 54.5534 185.764 54.5688C185.755 54.5995 185.75 54.6061 185.744 54.6113C185.736 54.6202 185.722 54.6285 185.681 54.6534C185.649 54.6735 185.605 54.7027 185.543 54.7464C185.378 54.6507 185.247 54.5617 185.113 54.4729C184.974 54.3808 184.832 54.2896 184.648 54.1957C184.587 54.1051 184.473 54.0034 184.326 53.8963C184.169 53.7817 183.967 53.6561 183.736 53.526C183.273 53.2656 182.686 52.9834 182.083 52.7241C181.481 52.4648 180.861 52.2284 180.332 52.0595C180.067 51.975 179.825 51.9068 179.618 51.8617C179.412 51.8169 179.237 51.794 179.11 51.8006C179.003 51.8062 178.914 51.8261 178.832 51.8484C178.748 51.8711 178.675 51.8944 178.59 51.9108C178.472 51.9337 178.332 51.94 178.129 51.9003C178.275 51.8768 178.4 51.8486 178.59 51.761L178.655 51.7308L178.61 51.6744C178.569 51.6218 178.506 51.5724 178.429 51.5251C178.352 51.4773 178.255 51.4297 178.146 51.3815C177.926 51.2851 177.643 51.1841 177.316 51.0748C176.661 50.8557 175.827 50.601 174.951 50.2702C173.306 49.6493 171.532 48.7679 170.547 47.3818L170.361 47.0979C169.727 46.0256 169.546 44.7453 169.857 43.5391C169.999 43.012 170.212 42.615 170.502 42.2847C170.783 41.964 171.14 41.7049 171.578 41.4499Z" stroke="#613C2E" stroke-width="0.112377"/>
<path d="M171.546 41.0102C169.991 38.7829 170.98 35.8138 173.781 35.3366C177.08 34.7746 180.238 35.8545 182.958 37.6319C180.089 38.2062 178.31 38.801 176.557 41.376C176.244 41.8353 175.933 42.5739 175.679 42.9377C174.743 42.4673 172.834 41.9626 171.546 41.0102Z" fill="#FEFEFE"/>
<path d="M171.546 41.0102C169.991 38.7829 170.98 35.8138 173.781 35.3366C177.08 34.7746 180.238 35.8545 182.958 37.6319C180.089 38.2062 178.31 38.801 176.557 41.376C176.244 41.8353 175.933 42.5739 175.679 42.9377C174.743 42.4673 172.834 41.9626 171.546 41.0102Z" fill="url(#paint7_linear_172_2191)"/>
<path d="M187.239 47.2086C189.618 47.2379 191.83 48.1582 193.676 49.6304L192.009 50.1484C191.588 50.2883 191.05 50.5637 190.64 50.7576C189.828 49.9101 189.158 49.3656 188.217 48.663C187.912 48.4354 186.716 47.6024 186.524 47.3815C186.749 47.1964 186.885 47.2471 187.239 47.2086Z" fill="#FEFEFE"/>
<path d="M187.239 47.2086C189.618 47.2379 191.83 48.1582 193.676 49.6304L192.009 50.1484C191.588 50.2883 191.05 50.5637 190.64 50.7576C189.828 49.9101 189.158 49.3656 188.217 48.663C187.912 48.4354 186.716 47.6024 186.524 47.3815C186.749 47.1964 186.885 47.2471 187.239 47.2086Z" fill="url(#paint8_linear_172_2191)"/>
<path d="M84.6132 152.776C59.0458 157.366 28.8074 170.803 45.7254 209.85" stroke="#613C2E" stroke-width="10.7595" stroke-linecap="round"/>
<path d="M39.926 217.496C39.9016 216.58 41.111 214.519 41.7004 213.749C44.5102 210.154 49.1798 207.063 53.7112 206.35C57.3874 205.772 60.454 207.995 60.9196 211.697C61.1112 211.919 63.6355 211.721 64.4723 211.895C67.6761 211.978 70.7826 213.555 73.458 215.185C79.0396 218.583 82.0695 220.377 79.7671 227.286L79.3171 228.569C80.2778 229.43 81.306 232.07 81.3764 233.465C81.4578 234.821 80.9851 236.152 80.0661 237.154C77.5696 239.832 73.6369 238.487 71.3034 236.304L70.7982 237.185C69.1132 239.893 66.2329 242.238 62.9228 240.659L62.3445 241.11C62.3108 241.141 62.2775 241.17 62.244 241.199C61.0003 242.243 59.3873 242.742 57.7712 242.581C54.1711 242.201 52.8835 239.977 50.4223 238.284C48.4185 236.904 46.9387 236.784 45.0747 234.323C43.3223 232.009 42.6499 229.757 42.9768 226.867C42.9954 225.92 43.3705 224.638 43.6209 223.7C41.0734 222.384 39.1406 220.587 39.926 217.496Z" fill="#E9F6FD"/>
<path d="M39.926 217.496C39.9016 216.58 41.111 214.519 41.7004 213.749C44.5102 210.154 49.1798 207.063 53.7112 206.35C57.3874 205.772 60.454 207.995 60.9196 211.697C61.1112 211.919 63.6355 211.721 64.4723 211.895C67.6761 211.978 70.7826 213.555 73.458 215.185C79.0396 218.583 82.0695 220.377 79.7671 227.286L79.3171 228.569C80.2778 229.43 81.306 232.07 81.3764 233.465C81.4578 234.821 80.9851 236.152 80.0661 237.154C77.5696 239.832 73.6369 238.487 71.3034 236.304L70.7982 237.185C69.1132 239.893 66.2329 242.238 62.9228 240.659L62.3445 241.11C62.3108 241.141 62.2775 241.17 62.244 241.199C61.0003 242.243 59.3873 242.742 57.7712 242.581C54.1711 242.201 52.8835 239.977 50.4223 238.284C48.4185 236.904 46.9387 236.784 45.0747 234.323C43.3223 232.009 42.6499 229.757 42.9768 226.867C42.9954 225.92 43.3705 224.638 43.6209 223.7C41.0734 222.384 39.1406 220.587 39.926 217.496Z" fill="url(#paint9_linear_172_2191)"/>
<ellipse cx="143.382" cy="89.6972" rx="6.27219" ry="13.9079" transform="rotate(42.9432 143.382 89.6972)" fill="#613C2E"/>
<defs>
<filter id="filter0_i_172_2191" x="34.0781" y="99.1992" width="172.736" height="109.861" filterUnits="userSpaceOnUse" color-interpolation-filters="sRGB">
<feFlood flood-opacity="0" result="BackgroundImageFix"/>
<feBlend mode="normal" in="SourceGraphic" in2="BackgroundImageFix" result="shape"/>
<feColorMatrix in="SourceAlpha" type="matrix" values="0 0 0 0 0 0 0 0 0 0 0 0 0 0 0 0 0 0 127 0" result="hardAlpha"/>
<feOffset dx="4.63597" dy="-4.90867"/>
<feComposite in2="hardAlpha" operator="arithmetic" k2="-1" k3="1"/>
<feColorMatrix type="matrix" values="0 0 0 0 0.807692 0 0 0 0 0.370276 0 0 0 0 0.0543639 0 0 0 1 0"/>
<feBlend mode="normal" in2="shape" result="effect1_innerShadow_172_2191"/>
</filter>
<linearGradient id="paint0_linear_172_2191" x1="98.5284" y1="261.967" x2="100.341" y2="293.013" gradientUnits="userSpaceOnUse">
<stop stop-color="white"/>
<stop offset="1" stop-color="#FDC249"/>
</linearGradient>
<linearGradient id="paint1_linear_172_2191" x1="109.353" y1="251.4" x2="110.206" y2="266.018" gradientUnits="userSpaceOnUse">
<stop stop-color="white"/>
<stop offset="1" stop-color="#FDC249"/>
</linearGradient>
<linearGradient id="paint2_linear_172_2191" x1="130.614" y1="38.304" x2="66.4288" y2="190.519" gradientUnits="userSpaceOnUse">
<stop stop-color="#FF7700"/>
<stop offset="0.556535" stop-color="#F0A408"/>
<stop offset="1" stop-color="#FDC249"/>
</linearGradient>
<linearGradient id="paint3_linear_172_2191" x1="150.96" y1="253.561" x2="153.663" y2="299.852" gradientUnits="userSpaceOnUse">
<stop stop-color="white"/>
<stop offset="1" stop-color="#FDC249"/>
</linearGradient>
<linearGradient id="paint4_linear_172_2191" x1="142.546" y1="245.124" x2="143.406" y2="259.848" gradientUnits="userSpaceOnUse">
<stop stop-color="white"/>
<stop offset="1" stop-color="#FDC249"/>
</linearGradient>
<linearGradient id="paint5_linear_172_2191" x1="188.764" y1="41.1861" x2="189.981" y2="84.7548" gradientUnits="userSpaceOnUse">
<stop stop-color="white"/>
<stop offset="1" stop-color="#FDC249"/>
</linearGradient>
<linearGradient id="paint6_linear_172_2191" x1="178.387" y1="46.9575" x2="176.997" y2="64.7708" gradientUnits="userSpaceOnUse">
<stop stop-color="white"/>
<stop offset="1" stop-color="#FDC249"/>
</linearGradient>
<linearGradient id="paint7_linear_172_2191" x1="176.018" y1="38.3708" x2="175.143" y2="49.5841" gradientUnits="userSpaceOnUse">
<stop stop-color="white"/>
<stop offset="1" stop-color="#FDC249"/>
</linearGradient>
<linearGradient id="paint8_linear_172_2191" x1="189.569" y1="48.7216" x2="189.197" y2="53.4879" gradientUnits="userSpaceOnUse">
<stop stop-color="white"/>
<stop offset="1" stop-color="#FDC249"/>
</linearGradient>
<linearGradient id="paint9_linear_172_2191" x1="58.6669" y1="221.853" x2="45.2827" y2="260.778" gradientUnits="userSpaceOnUse">
<stop stop-color="white"/>
<stop offset="1" stop-color="#FDC249"/>
</linearGradient>
</defs>
</svg>
