<svg width="218" height="175" viewBox="0 0 218 175" fill="none" xmlns="http://www.w3.org/2000/svg">
<path d="M40.1714 73.2102C26.5548 75.5715 10.4253 82.6253 19.3031 103.452" stroke="#3B4B66" stroke-width="7.5272" stroke-linecap="round"/>
<path d="M14.6233 107.845C14.5506 107.218 15.2544 105.73 15.6117 105.165C17.3198 102.527 20.3347 100.121 23.4001 99.3552C25.8869 98.7333 28.1268 100.071 28.6727 102.583C28.8177 102.724 30.5375 102.434 31.1222 102.501C33.3255 102.363 35.5532 103.255 37.4884 104.209C41.5257 106.199 43.7142 107.245 42.5569 112.126L42.3266 113.034C43.0383 113.566 43.9052 115.315 44.0387 116.267C44.1775 117.193 43.9345 118.135 43.3653 118.879C41.8162 120.869 39.0356 120.186 37.3012 118.831L37.0084 119.466C36.0179 121.427 34.185 123.212 31.8174 122.331L31.4483 122.676C31.427 122.699 31.4059 122.721 31.3847 122.743C30.5952 123.535 29.5191 123.976 28.4004 123.965C25.9072 123.924 24.8878 122.477 23.0957 121.466C21.6365 120.642 20.6139 120.649 19.1845 119.075C17.8408 117.595 17.2417 116.09 17.2894 114.088C17.2442 113.437 17.4233 112.535 17.5377 111.876C15.7094 111.128 14.2735 110.014 14.6233 107.845Z" fill="#E9F6FD"/>
<path d="M14.6233 107.845C14.5506 107.218 15.2544 105.73 15.6117 105.165C17.3198 102.527 20.3347 100.121 23.4001 99.3552C25.8869 98.7333 28.1268 100.071 28.6727 102.583C28.8177 102.724 30.5375 102.434 31.1222 102.501C33.3255 102.363 35.5532 103.255 37.4884 104.209C41.5257 106.199 43.7142 107.245 42.5569 112.126L42.3266 113.034C43.0383 113.566 43.9052 115.315 44.0387 116.267C44.1775 117.193 43.9345 118.135 43.3653 118.879C41.8162 120.869 39.0356 120.186 37.3012 118.831L37.0084 119.466C36.0179 121.427 34.185 123.212 31.8174 122.331L31.4483 122.676C31.427 122.699 31.4059 122.721 31.3847 122.743C30.5952 123.535 29.5191 123.976 28.4004 123.965C25.9072 123.924 24.8878 122.477 23.0957 121.466C21.6365 120.642 20.6139 120.649 19.1845 119.075C17.8408 117.595 17.2417 116.09 17.2894 114.088C17.2442 113.437 17.4233 112.535 17.5377 111.876C15.7094 111.128 14.2735 110.014 14.6233 107.845Z" fill="url(#paint0_linear_172_2050)"/>
<path d="M179.474 50.084C171.266 58.4007 164.01 64.668 142.032 71.2851" stroke="#3B4B66" stroke-width="7.5272" stroke-linecap="round"/>
<path d="M174.53 46.6758C174.592 49.8485 181.033 54.616 184.245 56.6031C196.622 56.5205 201.197 51.0484 201.937 48.3227C201.735 44.756 199.598 36.2282 192.666 30.6504C184 23.6782 174.452 42.7098 174.53 46.6758Z" fill="url(#paint1_linear_172_2050)"/>
<path d="M174.331 43.3816C171.35 42.1977 169.173 44.8762 169.861 46.5402C171.237 49.8702 175.167 56.9809 179.873 58.7832C183.234 60.0705 186.26 58.6975 185.102 56.662C182.787 52.5908 177.687 44.7145 174.331 43.3816Z" fill="url(#paint2_linear_172_2050)"/>
<path d="M176.654 19.8739C169.643 18.7607 173.254 35.6527 175.936 44.2378L179.162 40.8056C181.546 38.2688 183.006 34.932 182.629 31.4711C182.074 26.3585 180.46 20.6214 176.654 19.8739Z" fill="url(#paint3_linear_172_2050)"/>
<path d="M199.693 33.5304C199.354 36.5334 191.286 37.1277 187.295 37.0494C185.006 36.1945 183.214 32.265 185.533 29.5454C187.853 26.8258 197.505 27.1707 198.256 27.7774C199.008 28.3841 200.118 29.7767 199.693 33.5304Z" fill="url(#paint4_linear_172_2050)"/>
<path d="M200.324 42.2423C199.985 45.2453 191.917 45.8396 187.926 45.7614C185.637 44.9065 183.844 40.9769 186.164 38.2573C188.484 35.5377 198.136 35.8826 198.887 36.4893C199.639 37.096 200.748 38.4886 200.324 42.2423Z" fill="url(#paint5_linear_172_2050)"/>
<path d="M204.654 47.7833C204.696 50.8051 196.767 52.411 192.797 52.8363C190.419 52.2765 188.146 48.604 190.105 45.6138C192.064 42.6237 201.682 41.75 202.504 42.2572C203.325 42.7644 204.602 44.0061 204.654 47.7833Z" fill="url(#paint6_linear_172_2050)"/>
<path d="M87.4782 77.7715C84.4372 86.7931 79.6914 111.667 85.036 138.99" stroke="#3B4B66" stroke-width="9.00272" stroke-linecap="round"/>
<path d="M106.777 76.9141C110.606 85.6303 117.54 109.985 114.64 137.675" stroke="#3B4B66" stroke-width="9.00272" stroke-linecap="round"/>
<path d="M61.5391 144.583C65.4738 142.165 71.194 141.881 75.6102 142.947L75.6142 142.948C76.639 143.114 77.6215 143.43 78.5911 143.769C79.5593 144.108 80.5164 144.472 81.4842 144.73C83.2744 145.206 85.5977 145.755 87.8755 145.9C90.133 146.045 92.3553 145.792 93.9715 144.671C96.5668 147.427 98.0431 150.486 98.9275 154.15C98.8588 154.343 98.6684 154.551 98.3675 154.769C98.0617 154.991 97.6505 155.217 97.1658 155.444C96.1967 155.896 94.9375 156.345 93.6395 156.755C91.0436 157.574 88.3 158.235 87.4267 158.457C83.0174 159.577 78.4045 160.896 73.7616 161.596C69.1197 162.297 64.4524 162.379 59.9376 161.029C59.5103 160.899 58.437 160.436 57.4255 159.932C56.9202 159.68 56.4321 159.419 56.0492 159.185C55.8578 159.068 55.6932 158.959 55.5665 158.861C55.4448 158.767 55.3635 158.687 55.3234 158.626C55.2766 153.176 56.6361 147.597 61.5391 144.583Z" fill="#F1FAFE"/>
<path d="M61.5391 144.583C65.4738 142.165 71.194 141.881 75.6102 142.947L75.6142 142.948C76.639 143.114 77.6215 143.43 78.5911 143.769C79.5593 144.108 80.5164 144.472 81.4842 144.73C83.2744 145.206 85.5977 145.755 87.8755 145.9C90.133 146.045 92.3553 145.792 93.9715 144.671C96.5668 147.427 98.0431 150.486 98.9275 154.15C98.8588 154.343 98.6684 154.551 98.3675 154.769C98.0617 154.991 97.6505 155.217 97.1658 155.444C96.1967 155.896 94.9375 156.345 93.6395 156.755C91.0436 157.574 88.3 158.235 87.4267 158.457C83.0174 159.577 78.4045 160.896 73.7616 161.596C69.1197 162.297 64.4524 162.379 59.9376 161.029C59.5103 160.899 58.437 160.436 57.4255 159.932C56.9202 159.68 56.4321 159.419 56.0492 159.185C55.8578 159.068 55.6932 158.959 55.5665 158.861C55.4448 158.767 55.3635 158.687 55.3234 158.626C55.2766 153.176 56.6361 147.597 61.5391 144.583Z" fill="url(#paint7_linear_172_2050)"/>
<path d="M61.5391 144.583C65.4738 142.165 71.194 141.881 75.6102 142.947L75.6142 142.948C76.639 143.114 77.6215 143.43 78.5911 143.769C79.5593 144.108 80.5164 144.472 81.4842 144.73C83.2744 145.206 85.5977 145.755 87.8755 145.9C90.133 146.045 92.3553 145.792 93.9715 144.671C96.5668 147.427 98.0431 150.486 98.9275 154.15C98.8588 154.343 98.6684 154.551 98.3675 154.769C98.0617 154.991 97.6505 155.217 97.1658 155.444C96.1967 155.896 94.9375 156.345 93.6395 156.755C91.0436 157.574 88.3 158.235 87.4267 158.457C83.0174 159.577 78.4045 160.896 73.7616 161.596C69.1197 162.297 64.4524 162.379 59.9376 161.029C59.5103 160.899 58.437 160.436 57.4255 159.932C56.9202 159.68 56.4321 159.419 56.0492 159.185C55.8578 159.068 55.6932 158.959 55.5665 158.861C55.4448 158.767 55.3635 158.687 55.3234 158.626C55.2766 153.176 56.6361 147.597 61.5391 144.583Z" stroke="#3B4B66" stroke-width="0.109903"/>
<path d="M89.0528 136.641C89.0652 136.643 89.084 136.647 89.1081 136.652C89.1564 136.662 89.228 136.677 89.3183 136.698C89.4988 136.739 89.7564 136.803 90.064 136.893C90.68 137.074 91.4957 137.359 92.297 137.779C93.9028 138.621 95.4299 139.991 95.2096 142.126C95.1112 143.081 94.603 143.863 93.9433 144.557C92.3553 145.676 90.1477 145.935 87.8817 145.79C85.6152 145.645 83.3007 145.098 81.512 144.622C80.5497 144.366 79.5987 144.005 78.6268 143.664C77.6661 143.328 76.6861 143.013 75.6627 142.844C75.3044 141.918 75.3843 141.11 75.7044 140.417C76.0287 139.715 76.6017 139.128 77.2253 138.655C77.8487 138.183 78.5198 137.829 79.0354 137.593C79.2927 137.475 79.5109 137.386 79.6648 137.327C79.7419 137.298 79.8032 137.275 79.8447 137.26C79.8654 137.253 79.8812 137.247 79.8918 137.244C79.8953 137.242 79.8981 137.241 79.9005 137.24L89.039 136.639C89.0421 136.639 89.0468 136.64 89.0528 136.641Z" fill="#DAF0FC"/>
<path d="M89.0528 136.641C89.0652 136.643 89.084 136.647 89.1081 136.652C89.1564 136.662 89.228 136.677 89.3183 136.698C89.4988 136.739 89.7564 136.803 90.064 136.893C90.68 137.074 91.4957 137.359 92.297 137.779C93.9028 138.621 95.4299 139.991 95.2096 142.126C95.1112 143.081 94.603 143.863 93.9433 144.557C92.3553 145.676 90.1477 145.935 87.8817 145.79C85.6152 145.645 83.3007 145.098 81.512 144.622C80.5497 144.366 79.5987 144.005 78.6268 143.664C77.6661 143.328 76.6861 143.013 75.6627 142.844C75.3044 141.918 75.3843 141.11 75.7044 140.417C76.0287 139.715 76.6017 139.128 77.2253 138.655C77.8487 138.183 78.5198 137.829 79.0354 137.593C79.2927 137.475 79.5109 137.386 79.6648 137.327C79.7419 137.298 79.8032 137.275 79.8447 137.26C79.8654 137.253 79.8812 137.247 79.8918 137.244C79.8953 137.242 79.8981 137.241 79.9005 137.24L89.039 136.639C89.0421 136.639 89.0468 136.64 89.0528 136.641Z" fill="url(#paint8_linear_172_2050)"/>
<path d="M89.0528 136.641C89.0652 136.643 89.084 136.647 89.1081 136.652C89.1564 136.662 89.228 136.677 89.3183 136.698C89.4988 136.739 89.7564 136.803 90.064 136.893C90.68 137.074 91.4957 137.359 92.297 137.779C93.9028 138.621 95.4299 139.991 95.2096 142.126C95.1112 143.081 94.603 143.863 93.9433 144.557C92.3553 145.676 90.1477 145.935 87.8817 145.79C85.6152 145.645 83.3007 145.098 81.512 144.622C80.5497 144.366 79.5987 144.005 78.6268 143.664C77.6661 143.328 76.6861 143.013 75.6627 142.844C75.3044 141.918 75.3843 141.11 75.7044 140.417C76.0287 139.715 76.6017 139.128 77.2253 138.655C77.8487 138.183 78.5198 137.829 79.0354 137.593C79.2927 137.475 79.5109 137.386 79.6648 137.327C79.7419 137.298 79.8032 137.275 79.8447 137.26C79.8654 137.253 79.8812 137.247 79.8918 137.244C79.8953 137.242 79.8981 137.241 79.9005 137.24L89.039 136.639C89.0421 136.639 89.0468 136.64 89.0528 136.641Z" stroke="#3B4B66" stroke-width="0.109903"/>
<path d="M112.387 131.586C112.256 132.521 112.214 134.047 112.165 134.998L112.163 135.035L112.197 135.051L112.332 135.111L112.332 135.112C115.365 136.433 118.453 136.416 121.517 135.205L121.552 135.19L121.552 135.152C121.526 134.065 121.626 132.529 121.701 131.412C123.308 131.709 124.491 132.083 125.192 132.821C125.898 133.562 126.128 134.684 125.778 136.512L125.76 136.605L125.851 136.574C129.702 135.242 133.788 134.948 137.259 136.062C140.728 137.176 143.586 139.697 144.986 144.006C145.487 145.549 146.176 148.2 146.191 149.817L146.246 149.817L146.189 149.817L146.193 149.83C146.344 150.444 146.428 151.256 146.404 152.06C146.38 152.864 146.247 153.656 145.968 154.236C145.462 155.287 144.254 156.259 142.891 157.062C141.701 157.763 140.4 158.331 139.364 158.708L138.938 158.858C131.527 161.309 123.649 159.63 116.176 158.361C114.801 158.128 113.56 157.963 112.432 157.75C111.305 157.536 110.298 157.276 109.399 156.855C107.605 156.016 106.226 154.533 105.184 151.481C103.902 147.304 104.008 142.845 107.777 140.078L107.832 140.038L107.781 139.993C106.08 138.487 105.576 136.045 106.892 134.079C107.465 133.222 108.368 132.677 109.375 132.305C110.357 131.943 111.432 131.747 112.387 131.586Z" fill="#EEF9FE"/>
<path d="M112.387 131.586C112.256 132.521 112.214 134.047 112.165 134.998L112.163 135.035L112.197 135.051L112.332 135.111L112.332 135.112C115.365 136.433 118.453 136.416 121.517 135.205L121.552 135.19L121.552 135.152C121.526 134.065 121.626 132.529 121.701 131.412C123.308 131.709 124.491 132.083 125.192 132.821C125.898 133.562 126.128 134.684 125.778 136.512L125.76 136.605L125.851 136.574C129.702 135.242 133.788 134.948 137.259 136.062C140.728 137.176 143.586 139.697 144.986 144.006C145.487 145.549 146.176 148.2 146.191 149.817L146.246 149.817L146.189 149.817L146.193 149.83C146.344 150.444 146.428 151.256 146.404 152.06C146.38 152.864 146.247 153.656 145.968 154.236C145.462 155.287 144.254 156.259 142.891 157.062C141.701 157.763 140.4 158.331 139.364 158.708L138.938 158.858C131.527 161.309 123.649 159.63 116.176 158.361C114.801 158.128 113.56 157.963 112.432 157.75C111.305 157.536 110.298 157.276 109.399 156.855C107.605 156.016 106.226 154.533 105.184 151.481C103.902 147.304 104.008 142.845 107.777 140.078L107.832 140.038L107.781 139.993C106.08 138.487 105.576 136.045 106.892 134.079C107.465 133.222 108.368 132.677 109.375 132.305C110.357 131.943 111.432 131.747 112.387 131.586Z" fill="url(#paint9_linear_172_2050)"/>
<path d="M112.387 131.586C112.256 132.521 112.214 134.047 112.165 134.998L112.163 135.035L112.197 135.051L112.332 135.111L112.332 135.112C115.365 136.433 118.453 136.416 121.517 135.205L121.552 135.19L121.552 135.152C121.526 134.065 121.626 132.529 121.701 131.412C123.308 131.709 124.491 132.083 125.192 132.821C125.898 133.562 126.128 134.684 125.778 136.512L125.76 136.605L125.851 136.574C129.702 135.242 133.788 134.948 137.259 136.062C140.728 137.176 143.586 139.697 144.986 144.006C145.487 145.549 146.176 148.2 146.191 149.817L146.246 149.817L146.189 149.817L146.193 149.83C146.344 150.444 146.428 151.256 146.404 152.06C146.38 152.864 146.247 153.656 145.968 154.236C145.462 155.287 144.254 156.259 142.891 157.062C141.701 157.763 140.4 158.331 139.364 158.708L138.938 158.858C131.527 161.309 123.649 159.63 116.176 158.361C114.801 158.128 113.56 157.963 112.432 157.75C111.305 157.536 110.298 157.276 109.399 156.855C107.605 156.016 106.226 154.533 105.184 151.481C103.902 147.304 104.008 142.845 107.777 140.078L107.832 140.038L107.781 139.993C106.08 138.487 105.576 136.045 106.892 134.079C107.465 133.222 108.368 132.677 109.375 132.305C110.357 131.943 111.432 131.747 112.387 131.586Z" stroke="#3B4B66" stroke-width="0.109903"/>
<rect width="107.774" height="107.774" rx="13.9063" transform="matrix(-0.996808 0.0798339 0.0798339 0.996808 140.55 9.77832)" fill="#2251A2"/>
<rect width="106.065" height="106.065" rx="13.6858" transform="matrix(-0.996808 0.0798339 0.0798339 0.996808 145.599 4.75977)" fill="url(#paint10_linear_172_2050)"/>
<ellipse cx="23.345" cy="26.8691" rx="23.345" ry="26.8691" transform="matrix(-0.996808 0.0798339 0.0798339 0.996808 141.617 23.6133)" fill="url(#paint11_linear_172_2050)"/>
<ellipse cx="116.901" cy="52.889" rx="10.8893" ry="10.8183" transform="rotate(-4.57902 116.901 52.889)" fill="#3B4B66"/>
<path d="M115.651 52.4718L105.8 50.6768L106.449 58.7767L115.651 52.4718Z" fill="white"/>
<ellipse cx="23.345" cy="26.8691" rx="23.345" ry="26.8691" transform="matrix(-0.996808 0.0798339 0.0798339 0.996808 104.101 26.6172)" fill="url(#paint12_linear_172_2050)"/>
<ellipse cx="79.3857" cy="55.8929" rx="10.8893" ry="10.8183" transform="rotate(-4.57902 79.3857 55.8929)" fill="#3B4B66"/>
<path d="M78.1354 55.4758L68.2847 53.6807L68.9334 61.7806L78.1354 55.4758Z" fill="white"/>
<path d="M86.3205 85.7074C90.762 89.4902 88.3775 95.8889 86.4202 97.2872" stroke="#2251A2" stroke-width="3.30025" stroke-linecap="round"/>
<path d="M88.8376 91.0277C90.5978 93.3981 96.9208 97.3692 108.132 94.2903" stroke="#2251A2" stroke-width="3.30025" stroke-linecap="round"/>
<defs>
<linearGradient id="paint0_linear_172_2050" x1="27.7479" y1="109.689" x2="20.9444" y2="137.213" gradientUnits="userSpaceOnUse">
<stop stop-color="white"/>
<stop offset="1" stop-color="#3E82F7"/>
</linearGradient>
<linearGradient id="paint1_linear_172_2050" x1="181.149" y1="32.2435" x2="212.405" y2="90.516" gradientUnits="userSpaceOnUse">
<stop stop-color="white"/>
<stop offset="1" stop-color="#3E82F7"/>
</linearGradient>
<linearGradient id="paint2_linear_172_2050" x1="178.447" y1="43.6965" x2="198.048" y2="80.3855" gradientUnits="userSpaceOnUse">
<stop offset="0.0743331" stop-color="white"/>
<stop offset="1" stop-color="#3E82F7"/>
</linearGradient>
<linearGradient id="paint3_linear_172_2050" x1="176.687" y1="22.5574" x2="219.694" y2="79.8867" gradientUnits="userSpaceOnUse">
<stop stop-color="white"/>
<stop offset="1" stop-color="#3E82F7"/>
</linearGradient>
<linearGradient id="paint4_linear_172_2050" x1="188.429" y1="29.6488" x2="226.576" y2="35.7474" gradientUnits="userSpaceOnUse">
<stop stop-color="white"/>
<stop offset="1" stop-color="#3E82F7"/>
</linearGradient>
<linearGradient id="paint5_linear_172_2050" x1="189.06" y1="38.3608" x2="227.207" y2="44.4593" gradientUnits="userSpaceOnUse">
<stop stop-color="white"/>
<stop offset="1" stop-color="#3E82F7"/>
</linearGradient>
<linearGradient id="paint6_linear_172_2050" x1="192.99" y1="45.3517" x2="231.602" y2="46.5961" gradientUnits="userSpaceOnUse">
<stop stop-color="white"/>
<stop offset="1" stop-color="#3E82F7"/>
</linearGradient>
<linearGradient id="paint7_linear_172_2050" x1="73.7722" y1="150.224" x2="75.045" y2="178.865" gradientUnits="userSpaceOnUse">
<stop stop-color="white"/>
<stop offset="1" stop-color="#3E82F7"/>
</linearGradient>
<linearGradient id="paint8_linear_172_2050" x1="83.8851" y1="140.622" x2="84.4844" y2="154.107" gradientUnits="userSpaceOnUse">
<stop stop-color="white"/>
<stop offset="1" stop-color="#3E82F7"/>
</linearGradient>
<linearGradient id="paint9_linear_172_2050" x1="122.21" y1="143.147" x2="124.108" y2="185.852" gradientUnits="userSpaceOnUse">
<stop stop-color="white"/>
<stop offset="1" stop-color="#3E82F7"/>
</linearGradient>
<linearGradient id="paint10_linear_172_2050" x1="53.0325" y1="0" x2="53.0325" y2="163.115" gradientUnits="userSpaceOnUse">
<stop stop-color="#3E82F7"/>
<stop offset="1" stop-color="#00BAD1"/>
</linearGradient>
<linearGradient id="paint11_linear_172_2050" x1="19.2539" y1="40.5308" x2="19.2539" y2="80.74" gradientUnits="userSpaceOnUse">
<stop stop-color="white"/>
<stop offset="1" stop-color="#999999"/>
</linearGradient>
<linearGradient id="paint12_linear_172_2050" x1="19.2539" y1="33.1323" x2="19.2539" y2="85.565" gradientUnits="userSpaceOnUse">
<stop stop-color="white"/>
<stop offset="1" stop-color="#999999"/>
</linearGradient>
</defs>
</svg>
