<svg width="230" height="273" viewBox="0 0 230 273" fill="none" xmlns="http://www.w3.org/2000/svg">
<path d="M49.6664 60.0857C42.7855 72.6603 35.1427 99.6491 59.6196 107.007" stroke="#3B255A" stroke-width="7.33689" stroke-linecap="round"/>
<ellipse cx="53.5069" cy="45.6471" rx="17.265" ry="16.7834" transform="rotate(12.5181 53.5069 45.6471)" fill="url(#paint0_linear_172_2144)"/>
<path d="M59.9678 38.3342C56.8196 36.538 59.9862 27.3665 61.963 23.0053C63.9891 20.8883 69.168 20.7747 71.0658 24.619C72.9637 28.4634 68.0121 38.9348 66.9877 39.4754C65.9633 40.0161 63.9031 40.5794 59.9678 38.3342Z" fill="url(#paint1_linear_172_2144)"/>
<path d="M50.0713 34.9006C46.9231 33.1044 50.0897 23.9329 52.0665 19.5717C54.0926 17.4547 59.2715 17.3411 61.1693 21.1854C63.0672 25.0298 58.1156 35.5012 57.0912 36.0418C56.0668 36.5825 54.0066 37.1458 50.0713 34.9006Z" fill="url(#paint2_linear_172_2144)"/>
<path d="M41.9146 37.0483C38.5651 35.663 40.5511 26.1657 41.9628 21.5902C43.7061 19.2349 48.8294 18.4697 51.1964 22.0444C53.5634 25.619 49.9705 36.6308 49.0223 37.2962C48.0742 37.9615 46.1014 38.7799 41.9146 37.0483Z" fill="url(#paint3_linear_172_2144)"/>
<path d="M64.4145 34.5259C75.9225 37.5999 73.0685 47.1089 70.203 51.4792L68.1549 46.5418C67.6592 47.0598 64.2153 47.2375 54.4059 43.8042C42.1441 39.5126 50.0295 30.6835 64.4145 34.5259Z" fill="url(#paint4_linear_172_2144)"/>
<path d="M37.8851 64.6885L55.7092 69.2641C59.22 70.1653 65.992 72.94 67.7668 66.0265C69.5415 59.1129 63.7666 56.9395 60.7959 56.1769L42.7018 51.532C41.0814 51.1161 33.5197 49.1749 31.7865 55.9265C30.39 61.3664 35.5446 64.0876 37.8851 64.6885Z" fill="url(#paint5_linear_172_2144)"/>
<path d="M184.423 138.957C198.036 143.449 222.044 157.953 209.181 180.04" stroke="#3B255A" stroke-width="7.33689" stroke-linecap="round"/>
<path fill-rule="evenodd" clip-rule="evenodd" d="M181.345 198.411C181.472 198.604 181.604 198.796 181.739 198.986C182.675 198.185 183.551 197.35 184.277 196.523C183.382 197.037 182.364 197.683 181.345 198.411Z" fill="url(#paint6_linear_172_2144)"/>
<path fill-rule="evenodd" clip-rule="evenodd" d="M181.345 198.411C181.472 198.604 181.604 198.796 181.739 198.986C182.675 198.185 183.551 197.35 184.277 196.523C183.382 197.037 182.364 197.683 181.345 198.411Z" fill="url(#paint7_linear_172_2144)"/>
<path fill-rule="evenodd" clip-rule="evenodd" d="M181.345 198.411C181.472 198.604 181.604 198.796 181.739 198.986C182.675 198.185 183.551 197.35 184.277 196.523C183.382 197.037 182.364 197.683 181.345 198.411Z" fill="url(#paint8_linear_172_2144)"/>
<path fill-rule="evenodd" clip-rule="evenodd" d="M169.147 196.844C169.521 194.179 173.595 190.876 176.862 188.818C176.812 186.406 177.229 183.553 178.29 180.422C180.832 172.921 185.795 171.942 190.063 173.054C196.091 171.194 203.015 172.844 207.728 177.861C214.258 184.81 214.074 195.589 207.319 201.936C205.253 203.877 202.812 205.179 200.231 205.852C198.921 209.162 194.297 213.498 191.494 215.735C188.767 216.686 184.195 214.511 184.12 210.342C183.359 210.864 182.639 211.328 182.007 211.713C179.141 212.321 174.797 209.499 175.393 205.254C175.502 204.478 175.924 203.648 176.549 202.811C176.274 202.987 176.011 203.151 175.761 203.303C172.895 203.912 168.551 201.09 169.147 196.844ZM181.345 198.411C182.364 197.683 183.382 197.037 184.277 196.523C183.551 197.35 182.675 198.185 181.739 198.986C181.604 198.796 181.472 198.604 181.345 198.411Z" fill="url(#paint9_linear_172_2144)"/>
<path d="M219.577 185.355L207.978 171.069C205.693 168.255 201.903 161.994 196.362 166.493C190.82 170.992 194.167 176.176 196.1 178.557L207.875 193.06C208.929 194.359 213.85 200.42 219.262 196.026C223.622 192.486 221.1 187.231 219.577 185.355Z" fill="url(#paint10_linear_172_2144)"/>
<circle cx="125.078" cy="127.495" r="69.3645" transform="rotate(8.08379 125.078 127.495)" fill="#3B255A"/>
<path d="M140.174 188.766C131.953 189.732 128.025 194.611 128.91 206.051C129.842 218.085 135.395 217.548 138.105 219.534" stroke="#3B255A" stroke-width="8.19497" stroke-linecap="round"/>
<path d="M137.58 232.894C138.28 230.611 133.29 227.697 130.708 226.525L139.604 210.041C148.542 211.761 165.215 218.541 160.397 231.905C154.375 248.61 148.737 257.207 142.695 253.614C136.652 250.02 136.705 235.748 137.58 232.894Z" fill="url(#paint11_linear_172_2144)"/>
<path d="M136.731 210.518L129.747 223.457C128.372 226.006 124.915 230.722 129.934 233.431C134.953 236.14 137.751 232.08 138.915 229.924L146.004 216.788C146.639 215.612 149.602 210.122 144.7 207.477C140.751 205.346 137.648 208.818 136.731 210.518Z" fill="url(#paint12_linear_172_2144)"/>
<path d="M104.284 187.545C97.1342 183.373 91.062 184.909 84.8904 194.583C78.3982 204.758 83.1585 207.669 84.1292 210.885" stroke="#3B255A" stroke-width="8.19497" stroke-linecap="round"/>
<path d="M75.6774 221.245C77.6094 219.842 75.375 214.512 74.0164 212.023L91.0365 204.201C97.1443 210.95 106.388 226.393 94.5032 234.174C79.6467 243.9 69.9721 247.38 67.305 240.875C64.6379 234.37 73.2624 222.999 75.6774 221.245Z" fill="url(#paint13_linear_172_2144)"/>
<path d="M88.4542 202.853L75.0937 208.993C72.462 210.202 66.8639 211.892 69.2454 217.075C71.6269 222.257 76.3037 220.696 78.5304 219.673L92.0934 213.44C93.308 212.882 98.9761 210.277 96.6504 205.216C94.7765 201.139 90.2086 202.047 88.4542 202.853Z" fill="url(#paint14_linear_172_2144)"/>
<circle cx="122.758" cy="123.026" r="69.3645" transform="rotate(17.3482 122.758 123.026)" fill="url(#paint15_linear_172_2144)"/>
<circle cx="98.6782" cy="102.932" r="32.1945" transform="rotate(17.3482 98.6782 102.932)" fill="url(#paint16_linear_172_2144)"/>
<circle cx="98.6783" cy="102.932" r="12.2924" transform="rotate(17.3482 98.6783 102.932)" fill="#3B255A"/>
<path d="M88.8659 135.436C73.2193 130.548 63.9576 114.819 66.7609 99.0944L127.727 118.139C121.08 132.664 104.512 140.323 88.8659 135.436Z" fill="#512399"/>
<circle cx="145.61" cy="117.593" r="32.1945" transform="rotate(17.3482 145.61 117.593)" fill="url(#paint17_linear_172_2144)"/>
<circle cx="149.522" cy="118.815" r="12.2924" transform="rotate(17.3482 149.522 118.815)" fill="#3B255A"/>
<path d="M135.239 149.923C119.592 145.035 110.33 129.306 113.134 113.581L174.1 132.626C167.454 147.151 150.886 154.811 135.239 149.923Z" fill="#512399"/>
<path d="M95.3102 101.266L85.7569 95.2158L83.0038 104.029L95.3102 101.266Z" fill="white"/>
<path d="M148.388 117.847L138.835 111.797L136.082 120.61L148.388 117.847Z" fill="white"/>
<path d="M118.29 146.037C120.347 146.286 121.924 147.045 122.881 148.229C123.857 149.435 124.062 150.93 123.643 152.328C122.818 155.078 119.695 157.338 115.354 157.493C113.16 157.571 110.418 157.603 107.347 156.688C104.261 155.769 100.913 153.917 97.4244 150.334C95.982 148.853 95.1641 147.318 94.9623 145.857C94.7574 144.372 95.2028 143.02 96.1649 142.061C98.0887 140.144 101.504 140.204 104.578 142.419C109.402 145.895 113.104 145.409 118.29 146.037Z" fill="white" stroke="#3B255A" stroke-width="2.34142"/>
<path d="M104.722 143.456L100.445 152.239M114.22 146.423L112.755 157.004" stroke="#B1B1B1" stroke-width="2.34142"/>
<path d="M118.29 146.037C120.347 146.286 121.924 147.045 122.881 148.229C123.857 149.435 124.062 150.93 123.643 152.328C122.818 155.078 119.695 157.338 115.354 157.493C113.16 157.571 110.418 157.603 107.347 156.688C104.261 155.769 100.913 153.917 97.4244 150.334C95.982 148.853 95.1641 147.318 94.9623 145.857C94.7574 144.372 95.2028 143.02 96.1649 142.061C98.0887 140.144 101.504 140.204 104.578 142.419C109.402 145.895 113.104 145.409 118.29 146.037Z" stroke="#3B255A" stroke-width="2.34142"/>
<defs>
<linearGradient id="paint0_linear_172_2144" x1="53.5069" y1="28.8637" x2="51.4701" y2="108.119" gradientUnits="userSpaceOnUse">
<stop stop-color="white"/>
<stop offset="1" stop-color="#A783D8"/>
</linearGradient>
<linearGradient id="paint1_linear_172_2144" x1="69.5804" y1="27.7605" x2="44.7917" y2="66.9057" gradientUnits="userSpaceOnUse">
<stop stop-color="white"/>
<stop offset="1" stop-color="#A783D8"/>
</linearGradient>
<linearGradient id="paint2_linear_172_2144" x1="59.6839" y1="24.3269" x2="34.8952" y2="63.4721" gradientUnits="userSpaceOnUse">
<stop stop-color="white"/>
<stop offset="1" stop-color="#A783D8"/>
</linearGradient>
<linearGradient id="paint3_linear_172_2144" x1="50.1185" y1="25.3479" x2="30.4587" y2="67.304" gradientUnits="userSpaceOnUse">
<stop stop-color="white"/>
<stop offset="1" stop-color="#A783D8"/>
</linearGradient>
<linearGradient id="paint4_linear_172_2144" x1="62.3157" y1="39.0597" x2="56.5844" y2="56.8141" gradientUnits="userSpaceOnUse">
<stop stop-color="white"/>
<stop offset="1" stop-color="#A783D8"/>
</linearGradient>
<linearGradient id="paint5_linear_172_2144" x1="48.1354" y1="67.3697" x2="56.9851" y2="38.5029" gradientUnits="userSpaceOnUse">
<stop stop-color="white"/>
<stop offset="1" stop-color="#A783D8"/>
</linearGradient>
<linearGradient id="paint6_linear_172_2144" x1="178.804" y1="191.987" x2="246.256" y2="130.452" gradientUnits="userSpaceOnUse">
<stop stop-color="white"/>
<stop offset="1" stop-color="#512399"/>
</linearGradient>
<linearGradient id="paint7_linear_172_2144" x1="178.804" y1="191.987" x2="246.256" y2="130.452" gradientUnits="userSpaceOnUse">
<stop stop-color="white"/>
<stop offset="1" stop-color="#512399"/>
</linearGradient>
<linearGradient id="paint8_linear_172_2144" x1="178.804" y1="191.987" x2="246.256" y2="130.452" gradientUnits="userSpaceOnUse">
<stop stop-color="white"/>
<stop offset="1" stop-color="#512399"/>
</linearGradient>
<linearGradient id="paint9_linear_172_2144" x1="178.804" y1="191.987" x2="246.256" y2="130.452" gradientUnits="userSpaceOnUse">
<stop stop-color="white"/>
<stop offset="1" stop-color="#512399"/>
</linearGradient>
<linearGradient id="paint10_linear_172_2144" x1="212.936" y1="177.099" x2="188.642" y2="195.028" gradientUnits="userSpaceOnUse">
<stop stop-color="white"/>
<stop offset="1" stop-color="#A783D8"/>
</linearGradient>
<linearGradient id="paint11_linear_172_2144" x1="140.831" y1="233.651" x2="179.207" y2="254.362" gradientUnits="userSpaceOnUse">
<stop stop-color="white"/>
<stop offset="1" stop-color="#A783D8"/>
</linearGradient>
<linearGradient id="paint12_linear_172_2144" x1="132.676" y1="217.949" x2="153.355" y2="230.375" gradientUnits="userSpaceOnUse">
<stop stop-color="white"/>
<stop offset="1" stop-color="#A783D8"/>
</linearGradient>
<linearGradient id="paint13_linear_172_2144" x1="77.8196" y1="223.803" x2="96.0291" y2="263.429" gradientUnits="userSpaceOnUse">
<stop stop-color="white"/>
<stop offset="1" stop-color="#A783D8"/>
</linearGradient>
<linearGradient id="paint14_linear_172_2144" x1="80.7456" y1="206.353" x2="89.7965" y2="228.716" gradientUnits="userSpaceOnUse">
<stop stop-color="white"/>
<stop offset="1" stop-color="#A783D8"/>
</linearGradient>
<linearGradient id="paint15_linear_172_2144" x1="122.758" y1="53.6614" x2="132.416" y2="293.657" gradientUnits="userSpaceOnUse">
<stop stop-color="#512399"/>
<stop offset="1" stop-color="#9B53FF"/>
</linearGradient>
<linearGradient id="paint16_linear_172_2144" x1="106.873" y1="102.932" x2="194.091" y2="148.297" gradientUnits="userSpaceOnUse">
<stop stop-color="white"/>
<stop offset="1" stop-color="#A783D8"/>
</linearGradient>
<linearGradient id="paint17_linear_172_2144" x1="153.805" y1="117.593" x2="241.023" y2="162.958" gradientUnits="userSpaceOnUse">
<stop stop-color="white"/>
<stop offset="1" stop-color="#A783D8"/>
</linearGradient>
</defs>
</svg>
