<svg width="515" height="379" viewBox="0 0 515 379" fill="none" xmlns="http://www.w3.org/2000/svg">
<g filter="url(#filter0_dd_330_958)">
<rect x="285.574" y="47.5684" width="175.427" height="223" rx="7.43333" fill="white"/>
<rect x="286.074" y="48.0684" width="174.427" height="222" rx="6.93333" stroke="#511B9C"/>
<path d="M307.474 73H301.648V78.6311H307.474V73Z" fill="#3E82F7"/>
<path d="M314.71 75.1308C314.71 76.6723 313.406 77.9224 311.798 77.9224C310.189 77.9224 308.885 76.6723 308.885 75.1308C308.885 75.0901 308.886 75.0494 308.888 75.0098H314.707C314.709 75.0494 314.71 75.0901 314.71 75.1308Z" fill="#FDBD00"/>
<path d="M316.115 72.6251L321.746 69.5859V79.0284L316.115 82.0132V72.6251Z" fill="#EF643E"/>
<path d="M326.16 78.8253C327.822 78.8253 329.17 77.5212 329.17 75.9126C329.17 74.304 327.822 73 326.16 73C324.498 73 323.15 74.304 323.15 75.9126C323.15 77.5212 324.498 78.8253 326.16 78.8253Z" fill="#511B9C"/>
<path d="M333.365 73L330.576 78.0486H336.207L333.365 73Z" fill="#00BAD1"/>
<rect x="300.574" y="87.5684" width="101" height="6" rx="3" fill="#D9D9D9"/>
<rect x="300.574" y="173.568" width="101" height="6" rx="3" fill="#D9D9D9"/>
<rect x="300.574" y="184.568" width="101" height="6" rx="3" fill="#D9D9D9"/>
<rect x="300.574" y="247.568" width="34" height="6" rx="3" fill="#D9D9D9"/>
<rect x="300.574" y="108.568" width="146" height="6" rx="3" fill="#D9D9D9"/>
<rect x="300.574" y="119.568" width="138" height="6" rx="3" fill="#D9D9D9"/>
<rect x="300.574" y="130.568" width="138" height="6" rx="3" fill="#D9D9D9"/>
<rect x="300.574" y="141.568" width="138" height="6" rx="3" fill="#D9D9D9"/>
</g>
<path d="M119.24 122.147C120.595 122.916 121.345 124.214 121.492 125.569H121.575V137.941C121.575 139.549 120.717 141.035 119.325 141.839L61.3249 175.324C59.9326 176.128 58.2172 176.128 56.8249 175.324L2.82488 144.147L2.32488 143.859C0.932578 143.056 0.0748826 141.57 0.0748826 139.962V128.833C-0.245675 127.082 0.462582 125.169 2.20672 124.136L36.82 103.639L37.3298 104.5L2.71551 124.996C1.71398 125.589 1.15147 126.556 1.02605 127.569H1.07488V128.734C1.26642 129.653 1.82419 130.505 2.74871 131.039L57.3249 162.549C58.4077 163.174 59.7421 163.174 60.8249 162.549L118.77 129.094C121.114 127.741 121.101 124.353 118.747 123.018L84.3278 103.504L84.822 102.635L119.24 122.147ZM120.575 128.829C120.233 129.267 119.799 129.655 119.27 129.96L61.3249 163.414C59.9326 164.218 58.2172 164.218 56.8249 163.414L2.24871 131.905C1.78604 131.638 1.39492 131.309 1.07488 130.937V139.962C1.07488 141.212 1.74198 142.368 2.82488 142.993L3.32488 143.282L57.3249 174.459C58.4077 175.084 59.7421 175.084 60.8249 174.459L118.825 140.973C119.908 140.347 120.575 139.192 120.575 137.941V128.829Z" fill="#7E7E7E"/>
<path d="M60.5742 100.068C64.1083 100.068 67.2836 100.73 69.5566 101.779C71.8722 102.848 73.0742 104.224 73.0742 105.568C73.0742 106.913 71.8722 108.289 69.5566 109.357C67.2836 110.406 64.1083 111.068 60.5742 111.068C57.0402 111.068 53.8649 110.406 51.5918 109.357C49.2762 108.289 48.0742 106.913 48.0742 105.568C48.0742 104.224 49.2762 102.848 51.5918 101.779C53.8649 100.73 57.0402 100.068 60.5742 100.068Z" fill="#7E7E7E" stroke="#7E7E7E"/>
<path d="M52.1166 125.568C52.1152 128.068 51.7181 132.568 60.1181 132.568C68.5181 132.568 68.6128 127.568 68.6152 125.068" stroke="#7E7E7E"/>
<path d="M41.0734 114.068C41.2454 117.758 42.8582 121.326 46.1661 122.968C50.0158 124.88 55.5161 126.547 61.8719 125.975C67.064 125.507 71.1057 124.242 74.016 122.88C77.6899 121.161 79.325 117.22 79.567 113.171L79.5731 113.069" stroke="#7E7E7E" stroke-linecap="round"/>
<path fill-rule="evenodd" clip-rule="evenodd" d="M60.0742 18.5684C76.4555 18.5684 87.593 24.8837 94.7483 33.9463C101.888 42.9892 105.031 54.7255 105.534 65.5449C106.04 76.4463 101.733 85.4346 96.7534 91.9961C91.7789 98.5507 86.1062 102.722 83.7972 104.006C81.4092 105.334 80.5924 108.243 80.4652 110.7C80.3844 112.262 79.9462 114.007 78.5187 115.021C74.8875 117.598 67.9949 120.568 60.0742 120.568C51.7629 120.568 45.1444 117.612 41.6102 115.034C40.1994 114.005 39.7641 112.262 39.6833 110.7C39.556 108.243 38.7393 105.334 36.3513 104.006C34.0422 102.722 28.3695 98.5506 23.3951 91.9961C18.4154 85.4346 14.1082 76.4463 14.6148 65.5449C15.1179 54.7213 18.3871 42.9854 25.5884 33.9443C32.8045 24.8849 43.9406 18.5684 60.0742 18.5684ZM60.0742 19.5684C44.2368 19.5684 33.3916 25.7522 26.37 34.5674C19.3339 43.4009 16.1082 54.9159 15.612 65.5918C15.1196 76.1899 19.305 84.9523 24.1912 91.3906C29.0825 97.8356 34.6499 101.915 36.8372 103.131C39.6983 104.722 40.5487 108.105 40.6804 110.648C40.7564 112.117 41.16 113.469 42.1986 114.227C45.5747 116.689 51.9898 119.568 60.0742 119.568C67.7666 119.568 74.4607 116.676 77.9411 114.205C78.9861 113.463 79.392 112.117 79.468 110.648C79.5997 108.105 80.4501 104.722 83.3113 103.131C85.4985 101.915 91.0658 97.8357 95.9572 91.3906C100.843 84.9523 105.029 76.19 104.536 65.5918C104.04 54.9116 100.938 43.3971 93.9648 34.5654C87.0073 25.7534 76.1634 19.5684 60.0742 19.5684Z" fill="#7E7E7E"/>
<path d="M54.6743 103.464C55.5077 88.7971 54.9743 60.6637 46.1743 65.4637C35.1743 71.4637 56.1743 84.4645 72.1743 61.4645C88.1743 38.4645 65.1738 49.9648 65.1738 66.9645C65.1738 80.5648 65.1738 96.9641 65.1738 103.464" stroke="#FED459" stroke-width="3"/>
<path d="M95.0742 108.068L147.488 78.5684H286.574" stroke="#511B9C"/>
<g filter="url(#filter1_dd_330_958)">
<g clip-path="url(#clip0_330_958)">
<rect x="144.574" y="153.568" width="239.933" height="166" rx="12.5546" fill="white"/>
<rect x="171.078" y="164.729" width="188.319" height="30.6891" rx="5.57983" fill="#F2F2F2"/>
<path d="M183.257 177.43H177.791V182.713H183.257V177.43Z" fill="#3E82F7"/>
<path d="M190.046 179.428C190.046 180.874 188.823 182.047 187.314 182.047C185.804 182.047 184.58 180.874 184.58 179.428C184.58 179.39 184.581 179.352 184.583 179.314H190.043C190.045 179.352 190.046 179.39 190.046 179.428Z" fill="#FDBD00"/>
<path d="M191.365 177.078L196.649 174.227V183.087L191.365 185.887V177.078Z" fill="#EF643E"/>
<path d="M200.793 182.896C202.352 182.896 203.617 181.672 203.617 180.163C203.617 178.653 202.352 177.43 200.793 177.43C199.233 177.43 197.969 178.653 197.969 180.163C197.969 181.672 199.233 182.896 200.793 182.896Z" fill="#511B9C"/>
<path d="M207.55 177.43L204.934 182.167H210.217L207.55 177.43Z" fill="#00BAD1"/>
<path d="M344.053 177.283V178.213H352.422V177.283H344.053ZM344.053 179.608V180.538H352.422V179.608H344.053ZM344.053 181.933V182.863H352.422V181.933H344.053Z" fill="#696969"/>
<rect x="171.078" y="199.602" width="188.319" height="66.958" rx="5.57983" fill="#F2F2F2"/>
<rect x="176.658" y="207.971" width="19.5294" height="19.5294" rx="9.76471" fill="#D9D9D9"/>
<rect x="198.977" y="207.971" width="154.84" height="5.57983" rx="2.78992" fill="#D9D9D9"/>
<rect x="198.977" y="216.34" width="41.8487" height="5.57983" rx="2.78992" fill="#D9D9D9"/>
<rect x="198.977" y="224.711" width="154.84" height="33.479" rx="5.57983" fill="#D9D9D9"/>
<rect x="171.078" y="270.744" width="188.319" height="66.958" rx="5.57983" fill="#F2F2F2"/>
<rect x="176.658" y="279.113" width="19.5294" height="19.5294" rx="9.76471" fill="#D9D9D9"/>
<rect x="198.977" y="279.113" width="154.84" height="5.57983" rx="2.78992" fill="#D9D9D9"/>
<rect x="198.977" y="287.482" width="41.8487" height="5.57983" rx="2.78992" fill="#D9D9D9"/>
<rect x="198.977" y="295.854" width="154.84" height="33.479" rx="5.57983" fill="#D9D9D9"/>
</g>
<rect x="145.074" y="154.068" width="238.933" height="165" rx="12.0546" stroke="#511B9C"/>
</g>
<path d="M88.0742 153.568L131.074 178.395V234.568H145.074" stroke="#511B9C"/>
<defs>
<filter id="filter0_dd_330_958" x="232.426" y="0.000291824" width="281.722" height="329.296" filterUnits="userSpaceOnUse" color-interpolation-filters="sRGB">
<feFlood flood-opacity="0" result="BackgroundImageFix"/>
<feColorMatrix in="SourceAlpha" type="matrix" values="0 0 0 0 0 0 0 0 0 0 0 0 0 0 0 0 0 0 127 0" result="hardAlpha"/>
<feOffset dy="5.57983"/>
<feGaussianBlur stdDeviation="26.5739"/>
<feComposite in2="hardAlpha" operator="out"/>
<feColorMatrix type="matrix" values="0 0 0 0 0 0 0 0 0 0 0 0 0 0 0 0 0 0 0.05 0"/>
<feBlend mode="normal" in2="BackgroundImageFix" result="effect1_dropShadow_330_958"/>
<feColorMatrix in="SourceAlpha" type="matrix" values="0 0 0 0 0 0 0 0 0 0 0 0 0 0 0 0 0 0 127 0" result="hardAlpha"/>
<feOffset dy="4"/>
<feGaussianBlur stdDeviation="11.3"/>
<feComposite in2="hardAlpha" operator="out"/>
<feColorMatrix type="matrix" values="0 0 0 0 0.317647 0 0 0 0 0.105882 0 0 0 0 0.611765 0 0 0 0.1 0"/>
<feBlend mode="normal" in2="effect1_dropShadow_330_958" result="effect2_dropShadow_330_958"/>
<feBlend mode="normal" in="SourceGraphic" in2="effect2_dropShadow_330_958" result="shape"/>
</filter>
<filter id="filter1_dd_330_958" x="91.4263" y="106" width="346.229" height="272.296" filterUnits="userSpaceOnUse" color-interpolation-filters="sRGB">
<feFlood flood-opacity="0" result="BackgroundImageFix"/>
<feColorMatrix in="SourceAlpha" type="matrix" values="0 0 0 0 0 0 0 0 0 0 0 0 0 0 0 0 0 0 127 0" result="hardAlpha"/>
<feOffset dy="5.57983"/>
<feGaussianBlur stdDeviation="26.5739"/>
<feComposite in2="hardAlpha" operator="out"/>
<feColorMatrix type="matrix" values="0 0 0 0 0 0 0 0 0 0 0 0 0 0 0 0 0 0 0.05 0"/>
<feBlend mode="normal" in2="BackgroundImageFix" result="effect1_dropShadow_330_958"/>
<feColorMatrix in="SourceAlpha" type="matrix" values="0 0 0 0 0 0 0 0 0 0 0 0 0 0 0 0 0 0 127 0" result="hardAlpha"/>
<feOffset dy="4"/>
<feGaussianBlur stdDeviation="11.3"/>
<feComposite in2="hardAlpha" operator="out"/>
<feColorMatrix type="matrix" values="0 0 0 0 0.317647 0 0 0 0 0.105882 0 0 0 0 0.611765 0 0 0 0.1 0"/>
<feBlend mode="normal" in2="effect1_dropShadow_330_958" result="effect2_dropShadow_330_958"/>
<feBlend mode="normal" in="SourceGraphic" in2="effect2_dropShadow_330_958" result="shape"/>
</filter>
<clipPath id="clip0_330_958">
<rect x="144.574" y="153.568" width="239.933" height="166" rx="12.5546" fill="white"/>
</clipPath>
</defs>
</svg>
