<svg width="355" height="403" viewBox="0 0 355 403" fill="none" xmlns="http://www.w3.org/2000/svg">
<line x1="177.25" y1="99.0059" x2="177.25" y2="301.37" stroke="url(#paint0_linear_336_1048)" stroke-width="0.937173"/>
<g filter="url(#filter0_d_336_1048)">
<rect x="18.2188" y="14.9062" width="318" height="79.5" rx="8.28125" fill="white" shape-rendering="crispEdges"/>
<rect x="18.6328" y="15.3203" width="317.172" height="78.6719" rx="7.86719" stroke="url(#paint1_linear_336_1048)" stroke-width="0.828125" shape-rendering="crispEdges"/>
<rect x="31.4688" y="36.4375" width="36.4375" height="36.4375" rx="6.625" fill="#511B9C"/>
<path d="M40.6432 53.9257C40.6377 54.0482 40.6357 54.1743 40.6372 54.3002C40.6927 59.0699 44.7686 62.8911 49.7417 62.8332C54.7125 62.7753 58.6972 58.8602 58.6417 54.0906C58.6402 53.9646 58.6353 53.8387 58.627 53.7163" stroke="url(#paint2_linear_336_1048)" stroke-width="1.74249" stroke-linecap="round"/>
<path d="M49.1876 47.8471C49.3748 47.3414 50.09 47.3414 50.2771 47.8471L51.2607 50.5054C51.3196 50.6643 51.4449 50.7897 51.6039 50.8485L54.2622 51.8322C54.7678 52.0193 54.7678 52.7345 54.2622 52.9216L51.6039 53.9053C51.4449 53.9641 51.3196 54.0895 51.2607 54.2484L50.2771 56.9067C50.09 57.4124 49.3748 57.4124 49.1876 56.9067L48.204 54.2484C48.1452 54.0895 48.0198 53.9641 47.8608 53.9053L45.2026 52.9216C44.6969 52.7345 44.6969 52.0193 45.2026 51.8322L47.8608 50.8485C48.0198 50.7897 48.1452 50.6644 48.204 50.5054L49.1876 47.8471Z" fill="#FED459"/>
<path d="M77.1018 49.6562V40.3812H78.8905V48.265H82.9583V49.6562H77.1018ZM84.4902 49.6562V42.9782H86.2789V49.6562H84.4902ZM85.3912 42.064C85.0732 42.064 84.8082 41.9712 84.5962 41.7857C84.393 41.5914 84.2914 41.3485 84.2914 41.057C84.2914 40.7655 84.393 40.527 84.5962 40.3415C84.8082 40.1472 85.0732 40.05 85.3912 40.05C85.718 40.05 85.983 40.1472 86.1862 40.3415C86.3982 40.527 86.5042 40.7655 86.5042 41.057C86.5042 41.3485 86.3982 41.5914 86.1862 41.7857C85.983 41.9712 85.718 42.064 85.3912 42.064ZM88.0864 49.6562V42.9782H89.6632L89.7957 44.0647C89.9988 43.6937 90.2859 43.3934 90.6569 43.1637C91.0367 42.9341 91.4872 42.8192 92.0084 42.8192C92.5649 42.8192 93.0331 42.9341 93.4129 43.1637C93.7927 43.3934 94.0798 43.7291 94.2742 44.1707C94.4773 44.6124 94.5789 45.1557 94.5789 45.8005V49.6562H92.8034V45.9727C92.8034 45.4427 92.6886 45.0364 92.4589 44.7537C92.2381 44.4711 91.8936 44.3297 91.4254 44.3297C91.1251 44.3297 90.8557 44.4004 90.6172 44.5417C90.3875 44.6831 90.2064 44.8862 90.0739 45.1512C89.9414 45.4074 89.8752 45.721 89.8752 46.092V49.6562H88.0864ZM100.637 49.6562L97.7879 45.9992L100.345 42.9782H102.452L99.1527 46.7545V45.3367L102.863 49.6562H100.637ZM96.2642 49.6562V40.1162H98.0529V49.6562H96.2642ZM106.46 49.6562L109.852 40.3812H111.879L115.258 49.6562H113.363L110.859 42.4217L108.341 49.6562H106.46ZM107.957 47.5495L108.434 46.1582H113.151L113.615 47.5495H107.957ZM119.312 52.7303C118.676 52.7303 118.12 52.6508 117.643 52.4918C117.166 52.3416 116.795 52.1075 116.53 51.7895C116.273 51.4803 116.145 51.0961 116.145 50.6368C116.145 50.3276 116.225 50.0361 116.384 49.7623C116.543 49.4884 116.772 49.2411 117.073 49.0202C117.382 48.7906 117.766 48.5962 118.226 48.4372L118.901 49.3117C118.495 49.4442 118.199 49.6077 118.014 49.802C117.837 50.0052 117.749 50.2216 117.749 50.4513C117.749 50.6544 117.815 50.8267 117.947 50.968C118.089 51.1093 118.274 51.2109 118.504 51.2728C118.742 51.3434 119.007 51.3788 119.299 51.3788C119.581 51.3788 119.824 51.3434 120.028 51.2728C120.24 51.2021 120.403 51.0961 120.518 50.9548C120.641 50.8223 120.703 50.6633 120.703 50.4778C120.703 50.2393 120.619 50.0449 120.452 49.8948C120.284 49.7446 119.948 49.6518 119.445 49.6165C118.994 49.5812 118.592 49.5326 118.239 49.4707C117.894 49.4001 117.59 49.3206 117.325 49.2322C117.06 49.1351 116.834 49.0291 116.649 48.9142C116.472 48.7994 116.326 48.6846 116.212 48.5697V48.265L117.629 46.7412L118.915 47.152L117.245 48.795L117.749 47.9205C117.846 47.9735 117.938 48.0265 118.027 48.0795C118.124 48.1237 118.243 48.1678 118.385 48.212C118.526 48.2473 118.711 48.2827 118.941 48.318C119.171 48.3533 119.462 48.3842 119.816 48.4107C120.399 48.4637 120.876 48.5742 121.247 48.742C121.626 48.9098 121.905 49.1351 122.081 49.4177C122.258 49.6916 122.346 50.0317 122.346 50.438C122.346 50.8355 122.236 51.2065 122.015 51.551C121.803 51.9043 121.472 52.187 121.021 52.399C120.571 52.6198 120.001 52.7303 119.312 52.7303ZM119.312 47.682C118.756 47.682 118.274 47.576 117.868 47.364C117.47 47.1432 117.161 46.8517 116.94 46.4895C116.728 46.1185 116.622 45.7077 116.622 45.2572C116.622 44.8067 116.728 44.4004 116.94 44.0382C117.161 43.6672 117.47 43.3713 117.868 43.1505C118.274 42.9297 118.756 42.8192 119.312 42.8192C119.877 42.8192 120.359 42.9297 120.756 43.1505C121.163 43.3713 121.472 43.6672 121.684 44.0382C121.896 44.4004 122.002 44.8067 122.002 45.2572C122.002 45.7077 121.896 46.1185 121.684 46.4895C121.472 46.8517 121.163 47.1432 120.756 47.364C120.359 47.576 119.877 47.682 119.312 47.682ZM119.312 46.3172C119.657 46.3172 119.935 46.2289 120.147 46.0522C120.359 45.8756 120.465 45.615 120.465 45.2705C120.465 44.926 120.359 44.6654 120.147 44.4887C119.935 44.3032 119.657 44.2105 119.312 44.2105C118.976 44.2105 118.698 44.3032 118.477 44.4887C118.265 44.6654 118.159 44.926 118.159 45.2705C118.159 45.615 118.265 45.8756 118.477 46.0522C118.698 46.2289 118.976 46.3172 119.312 46.3172ZM120.425 44.2502L120.134 42.9782H122.876V44.0382L120.425 44.2502ZM127.278 49.8153C126.606 49.8153 126.01 49.6739 125.489 49.3912C124.976 49.0997 124.575 48.6978 124.283 48.1855C124 47.6643 123.859 47.0637 123.859 46.3835C123.859 45.6857 124 45.0717 124.283 44.5417C124.575 44.0029 124.976 43.5833 125.489 43.283C126.001 42.9738 126.597 42.8192 127.278 42.8192C127.94 42.8192 128.519 42.965 129.013 43.2565C129.508 43.548 129.892 43.9411 130.166 44.4357C130.44 44.9304 130.577 45.4913 130.577 46.1185C130.577 46.2068 130.577 46.3084 130.577 46.4232C130.577 46.5292 130.568 46.6397 130.55 46.7545H125.131V45.668H128.775C128.748 45.2352 128.594 44.8951 128.311 44.6477C128.037 44.4004 127.693 44.2767 127.278 44.2767C126.977 44.2767 126.699 44.3474 126.443 44.4887C126.187 44.6212 125.983 44.8288 125.833 45.1115C125.692 45.3942 125.621 45.7519 125.621 46.1847V46.569C125.621 46.9312 125.688 47.2492 125.82 47.523C125.961 47.788 126.156 47.9956 126.403 48.1457C126.65 48.2871 126.937 48.3577 127.264 48.3577C127.591 48.3577 127.861 48.2871 128.073 48.1457C128.293 48.0044 128.457 47.8233 128.563 47.6025H130.391C130.268 48.0177 130.06 48.3931 129.769 48.7287C129.477 49.0644 129.119 49.3294 128.695 49.5237C128.271 49.7181 127.799 49.8153 127.278 49.8153ZM132.042 49.6562V42.9782H133.618L133.751 44.0647C133.954 43.6937 134.241 43.3934 134.612 43.1637C134.992 42.9341 135.443 42.8192 135.964 42.8192C136.52 42.8192 136.988 42.9341 137.368 43.1637C137.748 43.3934 138.035 43.7291 138.229 44.1707C138.433 44.6124 138.534 45.1557 138.534 45.8005V49.6562H136.759V45.9727C136.759 45.4427 136.644 45.0364 136.414 44.7537C136.193 44.4711 135.849 44.3297 135.381 44.3297C135.08 44.3297 134.811 44.4004 134.572 44.5417C134.343 44.6831 134.162 44.8862 134.029 45.1512C133.897 45.4074 133.83 45.721 133.83 46.092V49.6562H132.042ZM143.227 49.6562C142.759 49.6562 142.348 49.5856 141.995 49.4442C141.65 49.2941 141.381 49.0512 141.187 48.7155C140.992 48.371 140.895 47.9028 140.895 47.311V44.4755H139.756V42.9782H140.895L141.094 41.163H142.684V42.9782H144.446V44.4755H142.684V47.3375C142.684 47.6378 142.75 47.8454 142.883 47.9602C143.015 48.0751 143.24 48.1325 143.558 48.1325H144.433V49.6562H143.227Z" fill="#353535"/>
<path d="M81.2093 69.8153C80.3083 69.8153 79.5265 69.6165 78.864 69.219C78.2103 68.8127 77.7068 68.2517 77.3535 67.5362C77.0002 66.8119 76.8235 65.9727 76.8235 65.0187C76.8235 64.0647 77.0002 63.23 77.3535 62.5145C77.7068 61.7902 78.2103 61.2292 78.864 60.8317C79.5265 60.4254 80.3083 60.2222 81.2093 60.2222C82.2693 60.2222 83.1305 60.474 83.793 60.9775C84.4555 61.481 84.8795 62.1921 85.065 63.1107H83.8328C83.6914 62.5366 83.4043 62.0772 82.9715 61.7327C82.5387 61.3794 81.9513 61.2027 81.2093 61.2027C80.5468 61.2027 79.9726 61.3573 79.4868 61.6665C79.0009 61.9668 78.6255 62.4041 78.3605 62.9782C78.0955 63.5436 77.963 64.2237 77.963 65.0187C77.963 65.8137 78.0955 66.4983 78.3605 67.0725C78.6255 67.6378 79.0009 68.0751 79.4868 68.3842C79.9726 68.6846 80.5468 68.8347 81.2093 68.8347C81.9513 68.8347 82.5387 68.6669 82.9715 68.3312C83.4043 67.9867 83.6914 67.5318 83.8328 66.9665H85.065C84.8795 67.8587 84.4555 68.5565 83.793 69.06C83.1305 69.5635 82.2693 69.8153 81.2093 69.8153ZM89.5938 69.8153C88.9755 69.8153 88.419 69.6739 87.9243 69.3912C87.4296 69.0997 87.041 68.6934 86.7583 68.1722C86.4756 67.6422 86.3343 67.0283 86.3343 66.3305C86.3343 65.615 86.4756 64.9967 86.7583 64.4755C87.0498 63.9455 87.4429 63.5392 87.9376 63.2565C88.4411 62.965 89.002 62.8192 89.6203 62.8192C90.2563 62.8192 90.8172 62.965 91.3031 63.2565C91.7977 63.5392 92.1864 63.9455 92.4691 64.4755C92.7606 64.9967 92.9063 65.6106 92.9063 66.3172C92.9063 67.0239 92.7606 67.6422 92.4691 68.1722C92.1776 68.6934 91.7845 69.0997 91.2898 69.3912C90.7951 69.6739 90.2298 69.8153 89.5938 69.8153ZM89.6071 68.8612C89.9869 68.8612 90.3402 68.7685 90.6671 68.583C90.9939 68.3887 91.2589 68.1016 91.4621 67.7217C91.6652 67.3419 91.7668 66.8737 91.7668 66.3172C91.7668 65.7519 91.6652 65.2837 91.4621 64.9127C91.2677 64.5329 91.0071 64.2502 90.6803 64.0647C90.3623 63.8704 90.009 63.7732 89.6203 63.7732C89.2493 63.7732 88.896 63.8704 88.5603 64.0647C88.2335 64.2502 87.9685 64.5329 87.7653 64.9127C87.571 65.2837 87.4738 65.7519 87.4738 66.3172C87.4738 66.8737 87.571 67.3419 87.7653 67.7217C87.9685 68.1016 88.2291 68.3887 88.5471 68.583C88.8739 68.7685 89.2272 68.8612 89.6071 68.8612ZM94.4668 69.6562V62.9782H95.4738L95.5268 64.1442C95.7388 63.7291 96.0391 63.4067 96.4278 63.177C96.8253 62.9385 97.2758 62.8192 97.7793 62.8192C98.3005 62.8192 98.751 62.9252 99.1308 63.1372C99.5106 63.3404 99.8066 63.654 100.019 64.078C100.231 64.4932 100.337 65.0232 100.337 65.668V69.6562H99.2236V65.7872C99.2236 65.1159 99.0734 64.6124 98.7731 64.2767C98.4816 63.9411 98.0664 63.7732 97.5276 63.7732C97.1566 63.7732 96.8253 63.866 96.5338 64.0515C96.2423 64.2282 96.0082 64.4887 95.8316 64.8332C95.6637 65.1689 95.5798 65.5885 95.5798 66.092V69.6562H94.4668ZM102.075 69.6562V62.9782H103.082L103.135 64.1442C103.347 63.7291 103.648 63.4067 104.036 63.177C104.434 62.9385 104.884 62.8192 105.388 62.8192C105.909 62.8192 106.359 62.9252 106.739 63.1372C107.119 63.3404 107.415 63.654 107.627 64.078C107.839 64.4932 107.945 65.0232 107.945 65.668V69.6562H106.832V65.7872C106.832 65.1159 106.682 64.6124 106.381 64.2767C106.09 63.9411 105.675 63.7732 105.136 63.7732C104.765 63.7732 104.434 63.866 104.142 64.0515C103.851 64.2282 103.617 64.4887 103.44 64.8332C103.272 65.1689 103.188 65.5885 103.188 66.092V69.6562H102.075ZM112.612 69.8153C111.985 69.8153 111.428 69.6695 110.942 69.378C110.465 69.0865 110.09 68.6802 109.816 68.159C109.542 67.629 109.405 67.0151 109.405 66.3172C109.405 65.6106 109.538 64.9967 109.803 64.4755C110.077 63.9543 110.457 63.548 110.942 63.2565C111.437 62.965 112.002 62.8192 112.638 62.8192C113.292 62.8192 113.844 62.965 114.295 63.2565C114.754 63.548 115.103 63.9322 115.341 64.4092C115.589 64.8774 115.712 65.3942 115.712 65.9595C115.712 66.0478 115.712 66.1406 115.712 66.2377C115.712 66.3349 115.708 66.4453 115.699 66.569H110.24V65.7077H114.626C114.599 65.0982 114.396 64.6212 114.016 64.2767C113.645 63.9322 113.177 63.76 112.612 63.76C112.232 63.76 111.879 63.8483 111.552 64.025C111.234 64.1928 110.978 64.4446 110.783 64.7802C110.589 65.1071 110.492 65.5178 110.492 66.0125V66.3835C110.492 66.9312 110.589 67.3905 110.783 67.7615C110.987 68.1325 111.247 68.4107 111.565 68.5962C111.892 68.7817 112.241 68.8745 112.612 68.8745C113.08 68.8745 113.464 68.7729 113.765 68.5697C114.074 68.3577 114.295 68.0751 114.427 67.7217H115.527C115.421 68.1192 115.235 68.477 114.97 68.795C114.705 69.113 114.374 69.3647 113.977 69.5502C113.588 69.7269 113.133 69.8153 112.612 69.8153ZM120.222 69.8153C119.595 69.8153 119.03 69.6695 118.526 69.378C118.031 69.0865 117.643 68.6802 117.36 68.159C117.077 67.629 116.936 67.0195 116.936 66.3305C116.936 65.6238 117.077 65.0099 117.36 64.4887C117.643 63.9676 118.031 63.5612 118.526 63.2697C119.03 62.9694 119.595 62.8192 120.222 62.8192C121.017 62.8192 121.68 63.0268 122.21 63.442C122.74 63.8483 123.075 64.396 123.217 65.085H122.077C121.989 64.6698 121.772 64.3474 121.428 64.1177C121.083 63.8881 120.677 63.7732 120.209 63.7732C119.829 63.7732 119.476 63.8704 119.149 64.0647C118.822 64.2502 118.561 64.5329 118.367 64.9127C118.173 65.2926 118.076 65.7607 118.076 66.3172C118.076 66.7324 118.133 67.1034 118.248 67.4302C118.363 67.7482 118.517 68.0132 118.712 68.2252C118.906 68.4372 119.131 68.6007 119.387 68.7155C119.652 68.8215 119.926 68.8745 120.209 68.8745C120.527 68.8745 120.814 68.8259 121.07 68.7287C121.326 68.6227 121.543 68.4682 121.719 68.265C121.896 68.0618 122.015 67.8233 122.077 67.5495H123.217C123.075 68.2208 122.735 68.7685 122.196 69.1925C121.666 69.6077 121.008 69.8153 120.222 69.8153ZM127.239 69.6562C126.842 69.6562 126.497 69.5944 126.206 69.4707C125.914 69.3471 125.689 69.1395 125.53 68.848C125.38 68.5477 125.305 68.1457 125.305 67.6422V63.919H124.139V62.9782H125.305L125.45 61.3617H126.418V62.9782H128.352V63.919H126.418V67.6422C126.418 68.0574 126.502 68.3401 126.669 68.4902C126.837 68.6316 127.133 68.7022 127.557 68.7022H128.273V69.6562H127.239ZM139.313 69.6562V60.3812H140.426V69.6562H139.313ZM133.39 69.6562V60.3812H134.503V69.6562H133.39ZM134.291 65.3897V64.4755H139.591V65.3897H134.291ZM142.409 69.6562V60.3812H145.404C146.128 60.3812 146.72 60.5049 147.179 60.7522C147.638 60.9907 147.978 61.3132 148.199 61.7195C148.42 62.1258 148.531 62.5852 148.531 63.0975C148.531 63.5922 148.416 64.0471 148.186 64.4622C147.965 64.8774 147.621 65.2087 147.153 65.456C146.684 65.7033 146.084 65.827 145.351 65.827H143.522V69.6562H142.409ZM147.312 69.6562L145.271 65.509H146.517L148.623 69.6562H147.312ZM143.522 64.9525H145.324C146.031 64.9525 146.547 64.7802 146.874 64.4357C147.21 64.0912 147.378 63.6496 147.378 63.1107C147.378 62.5631 147.214 62.1302 146.888 61.8122C146.57 61.4854 146.044 61.322 145.311 61.322H143.522V64.9525ZM149.335 71.286L150.104 68.3577H151.257L150.104 71.286H149.335ZM156.136 72.5713V62.9782H157.143L157.236 64.0647C157.377 63.8527 157.558 63.654 157.779 63.4685C158 63.2742 158.265 63.1196 158.574 63.0047C158.883 62.8811 159.237 62.8192 159.634 62.8192C160.288 62.8192 160.853 62.9738 161.33 63.283C161.816 63.5922 162.191 64.0117 162.456 64.5417C162.73 65.0629 162.867 65.6592 162.867 66.3305C162.867 67.0018 162.73 67.6025 162.456 68.1325C162.191 68.6537 161.816 69.0644 161.33 69.3647C160.844 69.6651 160.275 69.8153 159.621 69.8153C159.082 69.8153 158.605 69.7048 158.19 69.484C157.784 69.2632 157.47 68.954 157.249 68.5565V72.5713H156.136ZM159.502 68.848C159.935 68.848 160.319 68.742 160.654 68.53C160.99 68.318 161.251 68.0265 161.436 67.6555C161.631 67.2757 161.728 66.8296 161.728 66.3172C161.728 65.8137 161.631 65.3721 161.436 64.9922C161.251 64.6124 160.99 64.3165 160.654 64.1045C160.319 63.8925 159.935 63.7865 159.502 63.7865C159.06 63.7865 158.671 63.8925 158.336 64.1045C158 64.3165 157.739 64.6124 157.554 64.9922C157.368 65.3721 157.276 65.8137 157.276 66.3172C157.276 66.8296 157.368 67.2757 157.554 67.6555C157.739 68.0265 158 68.318 158.336 68.53C158.671 68.742 159.06 68.848 159.502 68.848ZM164.43 69.6562V62.9782H165.437L165.517 64.2502C165.667 63.9499 165.857 63.6937 166.087 63.4817C166.325 63.2697 166.608 63.1063 166.935 62.9915C167.27 62.8767 167.65 62.8192 168.074 62.8192V63.9852H167.663C167.381 63.9852 167.111 64.025 166.855 64.1045C166.599 64.1752 166.369 64.2944 166.166 64.4622C165.972 64.6301 165.817 64.8597 165.702 65.1512C165.596 65.4339 165.543 65.7872 165.543 66.2112V69.6562H164.43ZM172.07 69.8153C171.452 69.8153 170.895 69.6739 170.4 69.3912C169.906 69.0997 169.517 68.6934 169.234 68.1722C168.952 67.6422 168.81 67.0283 168.81 66.3305C168.81 65.615 168.952 64.9967 169.234 64.4755C169.526 63.9455 169.919 63.5392 170.414 63.2565C170.917 62.965 171.478 62.8192 172.096 62.8192C172.732 62.8192 173.293 62.965 173.779 63.2565C174.274 63.5392 174.662 63.9455 174.945 64.4755C175.237 64.9967 175.382 65.6106 175.382 66.3172C175.382 67.0239 175.237 67.6422 174.945 68.1722C174.654 68.6934 174.261 69.0997 173.766 69.3912C173.271 69.6739 172.706 69.8153 172.07 69.8153ZM172.083 68.8612C172.463 68.8612 172.816 68.7685 173.143 68.583C173.47 68.3887 173.735 68.1016 173.938 67.7217C174.141 67.3419 174.243 66.8737 174.243 66.3172C174.243 65.7519 174.141 65.2837 173.938 64.9127C173.744 64.5329 173.483 64.2502 173.156 64.0647C172.838 63.8704 172.485 63.7732 172.096 63.7732C171.725 63.7732 171.372 63.8704 171.036 64.0647C170.71 64.2502 170.445 64.5329 170.241 64.9127C170.047 65.2837 169.95 65.7519 169.95 66.3172C169.95 66.8737 170.047 67.3419 170.241 67.7217C170.445 68.1016 170.705 68.3887 171.023 68.583C171.35 68.7685 171.703 68.8612 172.083 68.8612ZM175.658 72.5713V71.6173H176.174C176.51 71.6173 176.749 71.5466 176.89 71.4053C177.031 71.2728 177.102 71.0431 177.102 70.7163V62.9782H178.215V70.7428C178.215 71.1668 178.144 71.5113 178.003 71.7763C177.862 72.0501 177.65 72.2488 177.367 72.3725C177.093 72.505 176.753 72.5713 176.347 72.5713H175.658ZM177.672 61.5605C177.451 61.5605 177.265 61.4898 177.115 61.3485C176.974 61.1983 176.903 61.0128 176.903 60.792C176.903 60.5712 176.974 60.3945 177.115 60.262C177.265 60.1207 177.451 60.05 177.672 60.05C177.884 60.05 178.06 60.1207 178.202 60.262C178.352 60.3945 178.427 60.5712 178.427 60.792C178.427 61.0128 178.352 61.1983 178.202 61.3485C178.06 61.4898 177.884 61.5605 177.672 61.5605ZM183.093 69.8153C182.466 69.8153 181.909 69.6695 181.424 69.378C180.947 69.0865 180.571 68.6802 180.297 68.159C180.023 67.629 179.887 67.0151 179.887 66.3172C179.887 65.6106 180.019 64.9967 180.284 64.4755C180.558 63.9543 180.938 63.548 181.424 63.2565C181.918 62.965 182.484 62.8192 183.12 62.8192C183.773 62.8192 184.325 62.965 184.776 63.2565C185.235 63.548 185.584 63.9322 185.823 64.4092C186.07 64.8774 186.194 65.3942 186.194 65.9595C186.194 66.0478 186.194 66.1406 186.194 66.2377C186.194 66.3349 186.189 66.4453 186.18 66.569H180.721V65.7077H185.107C185.081 65.0982 184.877 64.6212 184.498 64.2767C184.127 63.9322 183.658 63.76 183.093 63.76C182.713 63.76 182.36 63.8483 182.033 64.025C181.715 64.1928 181.459 64.4446 181.265 64.7802C181.07 65.1071 180.973 65.5178 180.973 66.0125V66.3835C180.973 66.9312 181.07 67.3905 181.265 67.7615C181.468 68.1325 181.728 68.4107 182.046 68.5962C182.373 68.7817 182.722 68.8745 183.093 68.8745C183.561 68.8745 183.945 68.7729 184.246 68.5697C184.555 68.3577 184.776 68.0751 184.908 67.7217H186.008C185.902 68.1192 185.717 68.477 185.452 68.795C185.187 69.113 184.855 69.3647 184.458 69.5502C184.069 69.7269 183.614 69.8153 183.093 69.8153ZM190.703 69.8153C190.076 69.8153 189.511 69.6695 189.007 69.378C188.513 69.0865 188.124 68.6802 187.841 68.159C187.559 67.629 187.417 67.0195 187.417 66.3305C187.417 65.6238 187.559 65.0099 187.841 64.4887C188.124 63.9676 188.513 63.5612 189.007 63.2697C189.511 62.9694 190.076 62.8192 190.703 62.8192C191.498 62.8192 192.161 63.0268 192.691 63.442C193.221 63.8483 193.556 64.396 193.698 65.085H192.558C192.47 64.6698 192.254 64.3474 191.909 64.1177C191.565 63.8881 191.158 63.7732 190.69 63.7732C190.31 63.7732 189.957 63.8704 189.63 64.0647C189.303 64.2502 189.043 64.5329 188.848 64.9127C188.654 65.2926 188.557 65.7607 188.557 66.3172C188.557 66.7324 188.614 67.1034 188.729 67.4302C188.844 67.7482 188.998 68.0132 189.193 68.2252C189.387 68.4372 189.612 68.6007 189.869 68.7155C190.134 68.8215 190.407 68.8745 190.69 68.8745C191.008 68.8745 191.295 68.8259 191.551 68.7287C191.807 68.6227 192.024 68.4682 192.201 68.265C192.377 68.0618 192.496 67.8233 192.558 67.5495H193.698C193.556 68.2208 193.216 68.7685 192.678 69.1925C192.148 69.6077 191.489 69.8153 190.703 69.8153ZM197.72 69.6562C197.323 69.6562 196.978 69.5944 196.687 69.4707C196.395 69.3471 196.17 69.1395 196.011 68.848C195.861 68.5477 195.786 68.1457 195.786 67.6422V63.919H194.62V62.9782H195.786L195.932 61.3617H196.899V62.9782H198.833V63.919H196.899V67.6422C196.899 68.0574 196.983 68.3401 197.151 68.4902C197.319 68.6316 197.614 68.7022 198.038 68.7022H198.754V69.6562H197.72ZM202.803 69.8153C202.247 69.8153 201.761 69.7225 201.346 69.537C200.939 69.3515 200.612 69.0953 200.365 68.7685C200.127 68.4328 199.981 68.0397 199.928 67.5892H201.067C201.112 67.8189 201.204 68.0309 201.346 68.2252C201.487 68.4196 201.677 68.5786 201.915 68.7022C202.163 68.8171 202.463 68.8745 202.816 68.8745C203.126 68.8745 203.382 68.8303 203.585 68.742C203.788 68.6448 203.938 68.5167 204.035 68.3577C204.141 68.1987 204.194 68.0265 204.194 67.841C204.194 67.5672 204.128 67.3596 203.996 67.2182C203.872 67.0769 203.686 66.9665 203.439 66.887C203.192 66.7987 202.891 66.7236 202.538 66.6617C202.247 66.6087 201.96 66.5381 201.677 66.4497C201.394 66.3614 201.142 66.2466 200.922 66.1052C200.701 65.9551 200.524 65.774 200.392 65.562C200.268 65.35 200.206 65.0894 200.206 64.7802C200.206 64.4004 200.303 64.0647 200.498 63.7732C200.692 63.4729 200.97 63.2388 201.332 63.071C201.703 62.9032 202.132 62.8192 202.618 62.8192C203.333 62.8192 203.912 62.9915 204.353 63.336C204.795 63.6805 205.056 64.1796 205.135 64.8332H204.035C203.991 64.4976 203.845 64.237 203.598 64.0515C203.36 63.8572 203.028 63.76 202.604 63.76C202.189 63.76 201.871 63.8439 201.65 64.0117C201.438 64.1796 201.332 64.4004 201.332 64.6742C201.332 64.8509 201.39 65.0099 201.505 65.1512C201.628 65.2837 201.805 65.3986 202.035 65.4957C202.273 65.5929 202.565 65.6724 202.909 65.7342C203.351 65.8137 203.753 65.9197 204.115 66.0522C204.477 66.1847 204.769 66.3835 204.989 66.6485C205.219 66.9047 205.334 67.2712 205.334 67.7482C205.334 68.1634 205.228 68.5256 205.016 68.8347C204.813 69.1439 204.521 69.3868 204.141 69.5635C203.762 69.7313 203.315 69.8153 202.803 69.8153ZM206.062 71.286L206.831 68.3577H207.983L206.831 71.286H206.062ZM215.844 69.8153C215.226 69.8153 214.669 69.6739 214.175 69.3912C213.68 69.0997 213.291 68.6934 213.009 68.1722C212.726 67.6422 212.585 67.0283 212.585 66.3305C212.585 65.615 212.726 64.9967 213.009 64.4755C213.3 63.9455 213.693 63.5392 214.188 63.2565C214.691 62.965 215.252 62.8192 215.871 62.8192C216.507 62.8192 217.067 62.965 217.553 63.2565C218.048 63.5392 218.437 63.9455 218.719 64.4755C219.011 64.9967 219.157 65.6106 219.157 66.3172C219.157 67.0239 219.011 67.6422 218.719 68.1722C218.428 68.6934 218.035 69.0997 217.54 69.3912C217.045 69.6739 216.48 69.8153 215.844 69.8153ZM215.857 68.8612C216.237 68.8612 216.59 68.7685 216.917 68.583C217.244 68.3887 217.509 68.1016 217.712 67.7217C217.915 67.3419 218.017 66.8737 218.017 66.3172C218.017 65.7519 217.915 65.2837 217.712 64.9127C217.518 64.5329 217.257 64.2502 216.931 64.0647C216.613 63.8704 216.259 63.7732 215.871 63.7732C215.5 63.7732 215.146 63.8704 214.811 64.0647C214.484 64.2502 214.219 64.5329 214.016 64.9127C213.821 65.2837 213.724 65.7519 213.724 66.3172C213.724 66.8737 213.821 67.3419 214.016 67.7217C214.219 68.1016 214.479 68.3887 214.797 68.583C215.124 68.7685 215.477 68.8612 215.857 68.8612ZM220.717 69.6562V62.9782H221.724L221.804 64.2502C221.954 63.9499 222.144 63.6937 222.373 63.4817C222.612 63.2697 222.894 63.1063 223.221 62.9915C223.557 62.8767 223.937 62.8192 224.361 62.8192V63.9852H223.95C223.667 63.9852 223.398 64.025 223.142 64.1045C222.886 64.1752 222.656 64.2944 222.453 64.4622C222.258 64.6301 222.104 64.8597 221.989 65.1512C221.883 65.4339 221.83 65.7872 221.83 66.2112V69.6562H220.717ZM232.639 69.8153C232.259 69.8153 231.914 69.7623 231.605 69.6562C231.305 69.5414 231.04 69.3912 230.81 69.2057C230.58 69.0202 230.391 68.8038 230.24 68.5565L230.148 69.6562H229.141V60.1162H230.254V64.078C230.466 63.7335 230.77 63.4376 231.168 63.1902C231.565 62.9429 232.056 62.8192 232.639 62.8192C233.283 62.8192 233.849 62.9738 234.335 63.283C234.82 63.5833 235.196 63.9985 235.461 64.5285C235.735 65.0497 235.872 65.6459 235.872 66.3172C235.872 66.9886 235.735 67.5892 235.461 68.1192C235.196 68.6492 234.82 69.0644 234.335 69.3647C233.849 69.6651 233.283 69.8153 232.639 69.8153ZM232.506 68.848C232.939 68.848 233.323 68.742 233.659 68.53C233.995 68.318 234.255 68.0265 234.441 67.6555C234.635 67.2757 234.732 66.8296 234.732 66.3172C234.732 65.8137 234.635 65.3721 234.441 64.9922C234.255 64.6124 233.995 64.3165 233.659 64.1045C233.323 63.8925 232.939 63.7865 232.506 63.7865C232.064 63.7865 231.676 63.8925 231.34 64.1045C231.004 64.3165 230.744 64.6124 230.558 64.9922C230.373 65.3721 230.28 65.8137 230.28 66.3172C230.28 66.8296 230.373 67.2757 230.558 67.6555C230.744 68.0265 231.004 68.318 231.34 68.53C231.676 68.742 232.064 68.848 232.506 68.848ZM239.86 69.8153C239.347 69.8153 238.897 69.7137 238.508 69.5105C238.128 69.3073 237.832 68.9937 237.62 68.5697C237.417 68.1457 237.316 67.6157 237.316 66.9797V62.9782H238.429V66.8605C238.429 67.523 238.574 68.0221 238.866 68.3577C239.157 68.6934 239.568 68.8612 240.098 68.8612C240.469 68.8612 240.805 68.7729 241.105 68.5962C241.405 68.4107 241.64 68.1502 241.807 67.8145C241.984 67.47 242.072 67.0504 242.072 66.5557V62.9782H243.185V69.6562H242.178L242.112 68.4902C241.909 68.9054 241.609 69.2322 241.211 69.4707C240.814 69.7004 240.363 69.8153 239.86 69.8153ZM247.548 69.8153C246.991 69.8153 246.505 69.7225 246.09 69.537C245.684 69.3515 245.357 69.0953 245.11 68.7685C244.871 68.4328 244.726 68.0397 244.673 67.5892H245.812C245.856 67.8189 245.949 68.0309 246.09 68.2252C246.232 68.4196 246.422 68.5786 246.66 68.7022C246.907 68.8171 247.208 68.8745 247.561 68.8745C247.87 68.8745 248.126 68.8303 248.33 68.742C248.533 68.6448 248.683 68.5167 248.78 68.3577C248.886 68.1987 248.939 68.0265 248.939 67.841C248.939 67.5672 248.873 67.3596 248.74 67.2182C248.617 67.0769 248.431 66.9665 248.184 66.887C247.936 66.7987 247.636 66.7236 247.283 66.6617C246.991 66.6087 246.704 66.5381 246.422 66.4497C246.139 66.3614 245.887 66.2466 245.666 66.1052C245.445 65.9551 245.269 65.774 245.136 65.562C245.013 65.35 244.951 65.0894 244.951 64.7802C244.951 64.4004 245.048 64.0647 245.242 63.7732C245.437 63.4729 245.715 63.2388 246.077 63.071C246.448 62.9032 246.876 62.8192 247.362 62.8192C248.078 62.8192 248.656 62.9915 249.098 63.336C249.54 63.6805 249.8 64.1796 249.88 64.8332H248.78C248.736 64.4976 248.59 64.237 248.343 64.0515C248.104 63.8572 247.773 63.76 247.349 63.76C246.934 63.76 246.616 63.8439 246.395 64.0117C246.183 64.1796 246.077 64.4004 246.077 64.6742C246.077 64.8509 246.134 65.0099 246.249 65.1512C246.373 65.2837 246.55 65.3986 246.779 65.4957C247.018 65.5929 247.309 65.6724 247.654 65.7342C248.095 65.8137 248.497 65.9197 248.86 66.0522C249.222 66.1847 249.513 66.3835 249.734 66.6485C249.964 66.9047 250.079 67.2712 250.079 67.7482C250.079 68.1634 249.973 68.5256 249.761 68.8347C249.557 69.1439 249.266 69.3868 248.886 69.5635C248.506 69.7313 248.06 69.8153 247.548 69.8153ZM251.787 69.6562V62.9782H252.9V69.6562H251.787ZM252.344 61.5605C252.123 61.5605 251.937 61.4898 251.787 61.3485C251.646 61.1983 251.575 61.0128 251.575 60.792C251.575 60.5712 251.646 60.3945 251.787 60.262C251.937 60.1207 252.123 60.05 252.344 60.05C252.556 60.05 252.737 60.1207 252.887 60.262C253.037 60.3945 253.112 60.5712 253.112 60.792C253.112 61.0128 253.037 61.1983 252.887 61.3485C252.737 61.4898 252.556 61.5605 252.344 61.5605ZM254.864 69.6562V62.9782H255.871L255.924 64.1442C256.136 63.7291 256.437 63.4067 256.825 63.177C257.223 62.9385 257.673 62.8192 258.177 62.8192C258.698 62.8192 259.148 62.9252 259.528 63.1372C259.908 63.3404 260.204 63.654 260.416 64.078C260.628 64.4932 260.734 65.0232 260.734 65.668V69.6562H259.621V65.7872C259.621 65.1159 259.471 64.6124 259.171 64.2767C258.879 63.9411 258.464 63.7732 257.925 63.7732C257.554 63.7732 257.223 63.866 256.931 64.0515C256.64 64.2282 256.406 64.4887 256.229 64.8332C256.061 65.1689 255.977 65.5885 255.977 66.092V69.6562H254.864ZM265.401 69.8153C264.774 69.8153 264.217 69.6695 263.731 69.378C263.254 69.0865 262.879 68.6802 262.605 68.159C262.331 67.629 262.194 67.0151 262.194 66.3172C262.194 65.6106 262.327 64.9967 262.592 64.4755C262.866 63.9543 263.246 63.548 263.731 63.2565C264.226 62.965 264.791 62.8192 265.427 62.8192C266.081 62.8192 266.633 62.965 267.084 63.2565C267.543 63.548 267.892 63.9322 268.13 64.4092C268.378 64.8774 268.501 65.3942 268.501 65.9595C268.501 66.0478 268.501 66.1406 268.501 66.2377C268.501 66.3349 268.497 66.4453 268.488 66.569H263.029V65.7077H267.415C267.388 65.0982 267.185 64.6212 266.805 64.2767C266.434 63.9322 265.966 63.76 265.401 63.76C265.021 63.76 264.668 63.8483 264.341 64.025C264.023 64.1928 263.767 64.4446 263.572 64.7802C263.378 65.1071 263.281 65.5178 263.281 66.0125V66.3835C263.281 66.9312 263.378 67.3905 263.572 67.7615C263.776 68.1325 264.036 68.4107 264.354 68.5962C264.681 68.7817 265.03 68.8745 265.401 68.8745C265.869 68.8745 266.253 68.7729 266.554 68.5697C266.863 68.3577 267.084 68.0751 267.216 67.7217H268.316C268.21 68.1192 268.024 68.477 267.759 68.795C267.494 69.113 267.163 69.3647 266.766 69.5502C266.377 69.7269 265.922 69.8153 265.401 69.8153ZM272.521 69.8153C271.964 69.8153 271.479 69.7225 271.063 69.537C270.657 69.3515 270.33 69.0953 270.083 68.7685C269.844 68.4328 269.699 68.0397 269.646 67.5892H270.785C270.829 67.8189 270.922 68.0309 271.063 68.2252C271.205 68.4196 271.395 68.5786 271.633 68.7022C271.881 68.8171 272.181 68.8745 272.534 68.8745C272.843 68.8745 273.1 68.8303 273.303 68.742C273.506 68.6448 273.656 68.5167 273.753 68.3577C273.859 68.1987 273.912 68.0265 273.912 67.841C273.912 67.5672 273.846 67.3596 273.713 67.2182C273.59 67.0769 273.404 66.9665 273.157 66.887C272.91 66.7987 272.609 66.7236 272.256 66.6617C271.964 66.6087 271.677 66.5381 271.395 66.4497C271.112 66.3614 270.86 66.2466 270.639 66.1052C270.419 65.9551 270.242 65.774 270.109 65.562C269.986 65.35 269.924 65.0894 269.924 64.7802C269.924 64.4004 270.021 64.0647 270.215 63.7732C270.41 63.4729 270.688 63.2388 271.05 63.071C271.421 62.9032 271.85 62.8192 272.335 62.8192C273.051 62.8192 273.63 62.9915 274.071 63.336C274.513 63.6805 274.773 64.1796 274.853 64.8332H273.753C273.709 64.4976 273.563 64.237 273.316 64.0515C273.077 63.8572 272.746 63.76 272.322 63.76C271.907 63.76 271.589 63.8439 271.368 64.0117C271.156 64.1796 271.05 64.4004 271.05 64.6742C271.05 64.8509 271.108 65.0099 271.222 65.1512C271.346 65.2837 271.523 65.3986 271.752 65.4957C271.991 65.5929 272.282 65.6724 272.627 65.7342C273.069 65.8137 273.471 65.9197 273.833 66.0522C274.195 66.1847 274.486 66.3835 274.707 66.6485C274.937 66.9047 275.052 67.2712 275.052 67.7482C275.052 68.1634 274.946 68.5256 274.734 68.8347C274.531 69.1439 274.239 69.3868 273.859 69.5635C273.479 69.7313 273.033 69.8153 272.521 69.8153ZM279.172 69.8153C278.615 69.8153 278.129 69.7225 277.714 69.537C277.308 69.3515 276.981 69.0953 276.734 68.7685C276.495 68.4328 276.35 68.0397 276.297 67.5892H277.436C277.48 67.8189 277.573 68.0309 277.714 68.2252C277.856 68.4196 278.046 68.5786 278.284 68.7022C278.531 68.8171 278.832 68.8745 279.185 68.8745C279.494 68.8745 279.75 68.8303 279.954 68.742C280.157 68.6448 280.307 68.5167 280.404 68.3577C280.51 68.1987 280.563 68.0265 280.563 67.841C280.563 67.5672 280.497 67.3596 280.364 67.2182C280.241 67.0769 280.055 66.9665 279.808 66.887C279.56 66.7987 279.26 66.7236 278.907 66.6617C278.615 66.6087 278.328 66.5381 278.046 66.4497C277.763 66.3614 277.511 66.2466 277.29 66.1052C277.069 65.9551 276.893 65.774 276.76 65.562C276.637 65.35 276.575 65.0894 276.575 64.7802C276.575 64.4004 276.672 64.0647 276.866 63.7732C277.061 63.4729 277.339 63.2388 277.701 63.071C278.072 62.9032 278.5 62.8192 278.986 62.8192C279.702 62.8192 280.28 62.9915 280.722 63.336C281.164 63.6805 281.424 64.1796 281.504 64.8332H280.404C280.36 64.4976 280.214 64.237 279.967 64.0515C279.728 63.8572 279.397 63.76 278.973 63.76C278.558 63.76 278.24 63.8439 278.019 64.0117C277.807 64.1796 277.701 64.4004 277.701 64.6742C277.701 64.8509 277.758 65.0099 277.873 65.1512C277.997 65.2837 278.174 65.3986 278.403 65.4957C278.642 65.5929 278.933 65.6724 279.278 65.7342C279.719 65.8137 280.121 65.9197 280.484 66.0522C280.846 66.1847 281.137 66.3835 281.358 66.6485C281.588 66.9047 281.703 67.2712 281.703 67.7482C281.703 68.1634 281.597 68.5256 281.385 68.8347C281.181 69.1439 280.89 69.3868 280.51 69.5635C280.13 69.7313 279.684 69.8153 279.172 69.8153ZM289.448 69.6562C289.051 69.6562 288.706 69.5944 288.415 69.4707C288.123 69.3471 287.898 69.1395 287.739 68.848C287.589 68.5477 287.514 68.1457 287.514 67.6422V63.919H286.348V62.9782H287.514L287.659 61.3617H288.627V62.9782H290.561V63.919H288.627V67.6422C288.627 68.0574 288.711 68.3401 288.878 68.4902C289.046 68.6316 289.342 68.7022 289.766 68.7022H290.482V69.6562H289.448ZM294.814 69.8153C294.195 69.8153 293.639 69.6739 293.144 69.3912C292.649 69.0997 292.261 68.6934 291.978 68.1722C291.695 67.6422 291.554 67.0283 291.554 66.3305C291.554 65.615 291.695 64.9967 291.978 64.4755C292.27 63.9455 292.663 63.5392 293.157 63.2565C293.661 62.965 294.222 62.8192 294.84 62.8192C295.476 62.8192 296.037 62.965 296.523 63.2565C297.017 63.5392 297.406 63.9455 297.689 64.4755C297.98 64.9967 298.126 65.6106 298.126 66.3172C298.126 67.0239 297.98 67.6422 297.689 68.1722C297.397 68.6934 297.004 69.0997 296.51 69.3912C296.015 69.6739 295.45 69.8153 294.814 69.8153ZM294.827 68.8612C295.207 68.8612 295.56 68.7685 295.887 68.583C296.214 68.3887 296.479 68.1016 296.682 67.7217C296.885 67.3419 296.987 66.8737 296.987 66.3172C296.987 65.7519 296.885 65.2837 296.682 64.9127C296.487 64.5329 296.227 64.2502 295.9 64.0647C295.582 63.8704 295.229 63.7732 294.84 63.7732C294.469 63.7732 294.116 63.8704 293.78 64.0647C293.453 64.2502 293.188 64.5329 292.985 64.9127C292.791 65.2837 292.694 65.7519 292.694 66.3172C292.694 66.8737 292.791 67.3419 292.985 67.7217C293.188 68.1016 293.449 68.3887 293.767 68.583C294.094 68.7685 294.447 68.8612 294.827 68.8612ZM302.668 69.8153C302.049 69.8153 301.493 69.6739 300.998 69.3912C300.504 69.0997 300.115 68.6934 299.832 68.1722C299.55 67.6422 299.408 67.0283 299.408 66.3305C299.408 65.615 299.55 64.9967 299.832 64.4755C300.124 63.9455 300.517 63.5392 301.012 63.2565C301.515 62.965 302.076 62.8192 302.694 62.8192C303.33 62.8192 303.891 62.965 304.377 63.2565C304.872 63.5392 305.26 63.9455 305.543 64.4755C305.835 64.9967 305.98 65.6106 305.98 66.3172C305.98 67.0239 305.835 67.6422 305.543 68.1722C305.252 68.6934 304.858 69.0997 304.364 69.3912C303.869 69.6739 303.304 69.8153 302.668 69.8153ZM302.681 68.8612C303.061 68.8612 303.414 68.7685 303.741 68.583C304.068 68.3887 304.333 68.1016 304.536 67.7217C304.739 67.3419 304.841 66.8737 304.841 66.3172C304.841 65.7519 304.739 65.2837 304.536 64.9127C304.342 64.5329 304.081 64.2502 303.754 64.0647C303.436 63.8704 303.083 63.7732 302.694 63.7732C302.323 63.7732 301.97 63.8704 301.634 64.0647C301.307 64.2502 301.042 64.5329 300.839 64.9127C300.645 65.2837 300.548 65.7519 300.548 66.3172C300.548 66.8737 300.645 67.3419 300.839 67.7217C301.042 68.1016 301.303 68.3887 301.621 68.583C301.948 68.7685 302.301 68.8612 302.681 68.8612ZM307.541 69.6562V60.1162H308.654V69.6562H307.541ZM313.008 69.8153C312.452 69.8153 311.966 69.7225 311.551 69.537C311.145 69.3515 310.818 69.0953 310.57 68.7685C310.332 68.4328 310.186 68.0397 310.133 67.5892H311.273C311.317 67.8189 311.41 68.0309 311.551 68.2252C311.692 68.4196 311.882 68.5786 312.121 68.7022C312.368 68.8171 312.668 68.8745 313.022 68.8745C313.331 68.8745 313.587 68.8303 313.79 68.742C313.993 68.6448 314.144 68.5167 314.241 68.3577C314.347 68.1987 314.4 68.0265 314.4 67.841C314.4 67.5672 314.333 67.3596 314.201 67.2182C314.077 67.0769 313.892 66.9665 313.644 66.887C313.397 66.7987 313.097 66.7236 312.743 66.6617C312.452 66.6087 312.165 66.5381 311.882 66.4497C311.6 66.3614 311.348 66.2466 311.127 66.1052C310.906 65.9551 310.729 65.774 310.597 65.562C310.473 65.35 310.411 65.0894 310.411 64.7802C310.411 64.4004 310.509 64.0647 310.703 63.7732C310.897 63.4729 311.176 63.2388 311.538 63.071C311.909 62.9032 312.337 62.8192 312.823 62.8192C313.538 62.8192 314.117 62.9915 314.559 63.336C315 63.6805 315.261 64.1796 315.34 64.8332H314.241C314.197 64.4976 314.051 64.237 313.803 64.0515C313.565 63.8572 313.234 63.76 312.81 63.76C312.395 63.76 312.077 63.8439 311.856 64.0117C311.644 64.1796 311.538 64.4004 311.538 64.6742C311.538 64.8509 311.595 65.0099 311.71 65.1512C311.834 65.2837 312.01 65.3986 312.24 65.4957C312.478 65.5929 312.77 65.6724 313.114 65.7342C313.556 65.8137 313.958 65.9197 314.32 66.0522C314.682 66.1847 314.974 66.3835 315.195 66.6485C315.424 66.9047 315.539 67.2712 315.539 67.7482C315.539 68.1634 315.433 68.5256 315.221 68.8347C315.018 69.1439 314.727 69.3868 314.347 69.5635C313.967 69.7313 313.521 69.8153 313.008 69.8153Z" fill="#848484"/>
</g>
<rect x="171.987" y="88.3459" width="11.2926" height="11.2926" rx="5.64631" fill="white" stroke="#8A49EF" stroke-width="1.12926"/>
<g filter="url(#filter1_d_336_1048)">
<rect x="33.4375" y="164.797" width="289.219" height="79.75" rx="8.28125" fill="white" shape-rendering="crispEdges"/>
<rect x="33.8516" y="165.211" width="288.391" height="78.9219" rx="7.86719" stroke="url(#paint3_linear_336_1048)" stroke-width="0.828125" shape-rendering="crispEdges"/>
<rect x="46.6875" y="186.453" width="36.4375" height="36.4375" rx="6.07292" fill="#F9F9FB"/>
<g clip-path="url(#clip0_336_1048)">
<path d="M57.232 208.161C57.232 209.691 55.984 210.941 54.4536 210.941C52.9232 210.941 51.6738 209.691 51.6738 208.161C51.6738 206.631 52.9237 205.381 54.4538 205.381H57.2322L57.232 208.161ZM58.6325 208.161C58.6325 206.631 59.8823 205.381 61.4125 205.381C62.9427 205.381 64.1925 206.63 64.1925 208.161V215.12C64.1925 216.65 62.9429 217.9 61.4125 217.9C59.8823 217.9 58.6325 216.65 58.6325 215.12V208.161Z" fill="#DE1C59"/>
<path d="M61.4125 197C59.8823 197 58.6325 195.752 58.6325 194.221C58.6325 192.691 59.8823 191.441 61.4125 191.441C62.9427 191.441 64.1925 192.691 64.1925 194.221V197L61.4125 197ZM61.4125 198.4C62.9427 198.4 64.1925 199.65 64.1925 201.18C64.1925 202.71 62.9429 203.96 61.4125 203.96H54.4536C52.9234 203.96 51.6738 202.71 51.6738 201.18C51.6738 199.65 52.9237 198.4 54.4538 198.4H61.4125Z" fill="#35C5F0"/>
<path d="M72.5739 201.18C72.5739 199.65 73.8218 198.4 75.3522 198.4C76.8826 198.4 78.1322 199.65 78.1322 201.18C78.1322 202.71 76.8824 203.96 75.3522 203.96H72.5739V201.18ZM71.1733 201.18C71.1733 202.71 69.9235 203.96 68.3933 203.96C66.8631 203.96 65.6133 202.71 65.6133 201.18V194.221C65.6133 192.691 66.8629 191.441 68.3933 191.441C69.9235 191.441 71.1733 192.691 71.1733 194.221V201.18Z" fill="#2EB57D"/>
<path d="M68.3933 212.341C69.9235 212.341 71.1733 213.589 71.1733 215.12C71.1733 216.65 69.9235 217.9 68.3933 217.9C66.8631 217.9 65.6133 216.65 65.6133 215.12V212.341H68.3933ZM68.3933 210.941C66.8631 210.941 65.6133 209.691 65.6133 208.161C65.6133 206.631 66.8629 205.381 68.3933 205.381H75.3522C76.8824 205.381 78.1322 206.63 78.1322 208.161C78.1322 209.691 76.8824 210.941 75.3522 210.941H68.3933Z" fill="#EBB02E"/>
</g>
<path d="M95.5138 199.831C94.8424 199.831 94.2418 199.716 93.7118 199.486C93.1906 199.257 92.7754 198.921 92.4663 198.479C92.1659 198.038 92.0113 197.503 92.0025 196.876H93.8973C93.9061 197.15 93.9768 197.397 94.1093 197.618C94.2418 197.839 94.4228 198.016 94.6525 198.148C94.891 198.272 95.1737 198.334 95.5005 198.334C95.7832 198.334 96.0261 198.289 96.2293 198.201C96.4413 198.104 96.6047 197.971 96.7195 197.804C96.8343 197.636 96.8918 197.437 96.8918 197.207C96.8918 196.942 96.8255 196.722 96.693 196.545C96.5693 196.368 96.3927 196.218 96.163 196.094C95.9422 195.971 95.6816 195.86 95.3813 195.763C95.0898 195.657 94.7806 195.547 94.4538 195.432C93.7206 195.193 93.1597 194.875 92.771 194.478C92.3912 194.08 92.2013 193.555 92.2013 192.901C92.2013 192.345 92.3338 191.868 92.5988 191.47C92.8726 191.073 93.248 190.768 93.725 190.556C94.202 190.344 94.7453 190.238 95.3548 190.238C95.9819 190.238 96.5296 190.348 96.9978 190.569C97.4748 190.781 97.8502 191.09 98.124 191.497C98.4067 191.903 98.5524 192.38 98.5613 192.928H96.6533C96.6444 192.724 96.5826 192.535 96.4678 192.358C96.3618 192.172 96.2116 192.027 96.0173 191.921C95.8229 191.806 95.5933 191.748 95.3283 191.748C95.0986 191.74 94.8866 191.775 94.6923 191.854C94.5068 191.934 94.3566 192.053 94.2418 192.212C94.1358 192.362 94.0828 192.552 94.0828 192.782C94.0828 193.003 94.1358 193.188 94.2418 193.338C94.3566 193.489 94.5112 193.621 94.7055 193.736C94.8998 193.842 95.1295 193.943 95.3945 194.041C95.6595 194.129 95.9466 194.222 96.2558 194.319C96.7151 194.478 97.1391 194.668 97.5278 194.889C97.9164 195.101 98.2256 195.379 98.4553 195.723C98.6849 196.068 98.7998 196.523 98.7998 197.088C98.7998 197.574 98.6717 198.024 98.4155 198.44C98.1593 198.855 97.7883 199.19 97.3025 199.447C96.8255 199.703 96.2293 199.831 95.5138 199.831ZM103.484 199.831C102.812 199.831 102.216 199.69 101.695 199.407C101.183 199.115 100.781 198.713 100.489 198.201C100.207 197.68 100.065 197.079 100.065 196.399C100.065 195.701 100.207 195.087 100.489 194.557C100.781 194.019 101.183 193.599 101.695 193.299C102.207 192.989 102.804 192.835 103.484 192.835C104.146 192.835 104.725 192.981 105.22 193.272C105.714 193.564 106.099 193.957 106.372 194.451C106.646 194.946 106.783 195.507 106.783 196.134C106.783 196.222 106.783 196.324 106.783 196.439C106.783 196.545 106.774 196.655 106.757 196.77H101.337V195.684H104.981C104.955 195.251 104.8 194.911 104.517 194.663C104.243 194.416 103.899 194.292 103.484 194.292C103.183 194.292 102.905 194.363 102.649 194.504C102.393 194.637 102.19 194.844 102.04 195.127C101.898 195.41 101.828 195.768 101.828 196.2V196.585C101.828 196.947 101.894 197.265 102.026 197.539C102.168 197.804 102.362 198.011 102.609 198.161C102.857 198.303 103.144 198.373 103.471 198.373C103.797 198.373 104.067 198.303 104.279 198.161C104.5 198.02 104.663 197.839 104.769 197.618H106.598C106.474 198.033 106.266 198.409 105.975 198.744C105.683 199.08 105.326 199.345 104.902 199.539C104.478 199.734 104.005 199.831 103.484 199.831ZM108.248 199.672V192.994H109.825L109.957 194.08C110.16 193.709 110.448 193.409 110.819 193.179C111.198 192.95 111.649 192.835 112.17 192.835C112.727 192.835 113.195 192.95 113.575 193.179C113.954 193.409 114.241 193.745 114.436 194.186C114.639 194.628 114.741 195.171 114.741 195.816V199.672H112.965V195.988C112.965 195.458 112.85 195.052 112.621 194.769C112.4 194.487 112.055 194.345 111.587 194.345C111.287 194.345 111.017 194.416 110.779 194.557C110.549 194.699 110.368 194.902 110.236 195.167C110.103 195.423 110.037 195.737 110.037 196.108V199.672H108.248ZM119.394 199.831C118.784 199.831 118.237 199.681 117.751 199.38C117.274 199.08 116.898 198.665 116.625 198.135C116.351 197.605 116.214 197.009 116.214 196.346C116.214 195.666 116.351 195.065 116.625 194.544C116.907 194.014 117.291 193.599 117.777 193.299C118.272 192.989 118.824 192.835 119.434 192.835C119.911 192.835 120.33 192.923 120.692 193.1C121.054 193.277 121.346 193.528 121.567 193.855V190.132H123.356V199.672H121.766L121.567 198.758C121.434 198.943 121.266 199.12 121.063 199.288C120.869 199.455 120.635 199.588 120.361 199.685C120.087 199.782 119.765 199.831 119.394 199.831ZM119.818 198.267C120.171 198.267 120.48 198.188 120.745 198.029C121.019 197.861 121.231 197.631 121.381 197.34C121.531 197.048 121.607 196.713 121.607 196.333C121.607 195.953 121.531 195.617 121.381 195.326C121.231 195.034 121.019 194.809 120.745 194.65C120.48 194.482 120.171 194.398 119.818 194.398C119.482 194.398 119.177 194.482 118.904 194.65C118.63 194.809 118.413 195.034 118.254 195.326C118.104 195.617 118.029 195.949 118.029 196.32C118.029 196.708 118.104 197.048 118.254 197.34C118.413 197.631 118.625 197.861 118.89 198.029C119.164 198.188 119.473 198.267 119.818 198.267ZM128.266 199.672V190.397H130.4L133.235 196.187L136.044 190.397H138.177V199.672H136.389V193.444L133.937 198.373H132.52L130.055 193.444V199.672H128.266ZM143.169 199.831C142.498 199.831 141.902 199.69 141.38 199.407C140.868 199.115 140.466 198.713 140.175 198.201C139.892 197.68 139.751 197.079 139.751 196.399C139.751 195.701 139.892 195.087 140.175 194.557C140.466 194.019 140.868 193.599 141.38 193.299C141.893 192.989 142.489 192.835 143.169 192.835C143.832 192.835 144.41 192.981 144.905 193.272C145.4 193.564 145.784 193.957 146.058 194.451C146.331 194.946 146.468 195.507 146.468 196.134C146.468 196.222 146.468 196.324 146.468 196.439C146.468 196.545 146.46 196.655 146.442 196.77H141.023V195.684H144.666C144.64 195.251 144.485 194.911 144.203 194.663C143.929 194.416 143.584 194.292 143.169 194.292C142.869 194.292 142.591 194.363 142.334 194.504C142.078 194.637 141.875 194.844 141.725 195.127C141.584 195.41 141.513 195.768 141.513 196.2V196.585C141.513 196.947 141.579 197.265 141.712 197.539C141.853 197.804 142.047 198.011 142.295 198.161C142.542 198.303 142.829 198.373 143.156 198.373C143.483 198.373 143.752 198.303 143.964 198.161C144.185 198.02 144.348 197.839 144.454 197.618H146.283C146.159 198.033 145.952 198.409 145.66 198.744C145.369 199.08 145.011 199.345 144.587 199.539C144.163 199.734 143.69 199.831 143.169 199.831ZM150.663 199.831C150.053 199.831 149.523 199.734 149.073 199.539C148.622 199.345 148.269 199.076 148.013 198.731C147.757 198.387 147.611 197.998 147.576 197.565H149.351C149.395 197.733 149.47 197.888 149.576 198.029C149.682 198.161 149.824 198.267 150 198.347C150.177 198.426 150.389 198.466 150.636 198.466C150.875 198.466 151.069 198.435 151.219 198.373C151.37 198.303 151.48 198.21 151.551 198.095C151.63 197.98 151.67 197.861 151.67 197.737C151.67 197.552 151.617 197.411 151.511 197.313C151.405 197.207 151.25 197.123 151.047 197.062C150.844 197 150.597 196.938 150.305 196.876C149.987 196.814 149.674 196.739 149.364 196.651C149.064 196.554 148.795 196.434 148.556 196.293C148.318 196.152 148.128 195.971 147.986 195.75C147.845 195.529 147.774 195.255 147.774 194.928C147.774 194.531 147.88 194.178 148.092 193.868C148.304 193.55 148.614 193.299 149.02 193.113C149.426 192.928 149.916 192.835 150.491 192.835C151.294 192.835 151.93 193.016 152.399 193.378C152.867 193.74 153.145 194.239 153.233 194.875H151.551C151.498 194.672 151.378 194.513 151.193 194.398C151.016 194.275 150.778 194.213 150.477 194.213C150.159 194.213 149.916 194.27 149.749 194.385C149.581 194.5 149.497 194.65 149.497 194.836C149.497 194.959 149.55 195.07 149.656 195.167C149.771 195.264 149.93 195.348 150.133 195.419C150.336 195.48 150.583 195.542 150.875 195.604C151.387 195.71 151.838 195.834 152.226 195.975C152.615 196.108 152.92 196.302 153.141 196.558C153.361 196.805 153.472 197.168 153.472 197.645C153.472 198.069 153.357 198.448 153.127 198.784C152.898 199.111 152.571 199.367 152.147 199.553C151.732 199.738 151.237 199.831 150.663 199.831ZM157.715 199.831C157.105 199.831 156.575 199.734 156.125 199.539C155.674 199.345 155.321 199.076 155.065 198.731C154.809 198.387 154.663 197.998 154.628 197.565H156.403C156.447 197.733 156.522 197.888 156.628 198.029C156.734 198.161 156.876 198.267 157.052 198.347C157.229 198.426 157.441 198.466 157.688 198.466C157.927 198.466 158.121 198.435 158.271 198.373C158.422 198.303 158.532 198.21 158.603 198.095C158.682 197.98 158.722 197.861 158.722 197.737C158.722 197.552 158.669 197.411 158.563 197.313C158.457 197.207 158.302 197.123 158.099 197.062C157.896 197 157.649 196.938 157.357 196.876C157.039 196.814 156.726 196.739 156.416 196.651C156.116 196.554 155.847 196.434 155.608 196.293C155.37 196.152 155.18 195.971 155.038 195.75C154.897 195.529 154.826 195.255 154.826 194.928C154.826 194.531 154.932 194.178 155.144 193.868C155.356 193.55 155.666 193.299 156.072 193.113C156.478 192.928 156.968 192.835 157.543 192.835C158.346 192.835 158.982 193.016 159.451 193.378C159.919 193.74 160.197 194.239 160.285 194.875H158.603C158.55 194.672 158.43 194.513 158.245 194.398C158.068 194.275 157.83 194.213 157.529 194.213C157.211 194.213 156.968 194.27 156.801 194.385C156.633 194.5 156.549 194.65 156.549 194.836C156.549 194.959 156.602 195.07 156.708 195.167C156.823 195.264 156.982 195.348 157.185 195.419C157.388 195.48 157.635 195.542 157.927 195.604C158.439 195.71 158.89 195.834 159.278 195.975C159.667 196.108 159.972 196.302 160.193 196.558C160.413 196.805 160.524 197.168 160.524 197.645C160.524 198.069 160.409 198.448 160.179 198.784C159.95 199.111 159.623 199.367 159.199 199.553C158.784 199.738 158.289 199.831 157.715 199.831ZM164.29 199.831C163.733 199.831 163.274 199.743 162.912 199.566C162.55 199.38 162.28 199.137 162.104 198.837C161.936 198.528 161.852 198.188 161.852 197.817C161.852 197.411 161.953 197.053 162.157 196.744C162.369 196.434 162.682 196.192 163.097 196.015C163.521 195.838 164.051 195.75 164.687 195.75H166.344C166.344 195.423 166.299 195.154 166.211 194.942C166.123 194.721 165.986 194.557 165.8 194.451C165.615 194.345 165.368 194.292 165.058 194.292C164.723 194.292 164.436 194.367 164.197 194.518C163.967 194.659 163.826 194.88 163.773 195.18H162.037C162.082 194.703 162.236 194.292 162.501 193.948C162.775 193.595 163.133 193.321 163.574 193.126C164.025 192.932 164.524 192.835 165.072 192.835C165.699 192.835 166.242 192.941 166.701 193.153C167.161 193.365 167.514 193.67 167.761 194.067C168.009 194.465 168.132 194.955 168.132 195.538V199.672H166.622L166.423 198.652C166.326 198.828 166.211 198.987 166.079 199.129C165.946 199.27 165.792 199.394 165.615 199.5C165.438 199.606 165.239 199.685 165.019 199.738C164.798 199.8 164.555 199.831 164.29 199.831ZM164.714 198.453C164.944 198.453 165.147 198.413 165.323 198.334C165.509 198.245 165.668 198.13 165.8 197.989C165.933 197.839 166.034 197.671 166.105 197.486C166.185 197.291 166.238 197.084 166.264 196.863V196.85H164.899C164.626 196.85 164.4 196.885 164.224 196.956C164.056 197.017 163.932 197.11 163.853 197.234C163.773 197.358 163.733 197.499 163.733 197.658C163.733 197.835 163.773 197.98 163.853 198.095C163.932 198.21 164.047 198.298 164.197 198.36C164.347 198.422 164.52 198.453 164.714 198.453ZM172.676 202.746C172.04 202.746 171.484 202.666 171.007 202.507C170.53 202.357 170.159 202.123 169.894 201.805C169.638 201.496 169.51 201.112 169.51 200.652C169.51 200.343 169.589 200.052 169.748 199.778C169.907 199.504 170.137 199.257 170.437 199.036C170.746 198.806 171.13 198.612 171.59 198.453L172.266 199.327C171.859 199.46 171.563 199.623 171.378 199.818C171.201 200.021 171.113 200.237 171.113 200.467C171.113 200.67 171.179 200.842 171.312 200.984C171.453 201.125 171.638 201.227 171.868 201.288C172.107 201.359 172.372 201.394 172.663 201.394C172.946 201.394 173.189 201.359 173.392 201.288C173.604 201.218 173.767 201.112 173.882 200.97C174.006 200.838 174.068 200.679 174.068 200.493C174.068 200.255 173.984 200.061 173.816 199.91C173.648 199.76 173.312 199.667 172.809 199.632C172.358 199.597 171.956 199.548 171.603 199.486C171.259 199.416 170.954 199.336 170.689 199.248C170.424 199.151 170.199 199.045 170.013 198.93C169.836 198.815 169.691 198.7 169.576 198.585V198.281L170.994 196.757L172.279 197.168L170.609 198.811L171.113 197.936C171.21 197.989 171.303 198.042 171.391 198.095C171.488 198.139 171.607 198.183 171.749 198.228C171.89 198.263 172.076 198.298 172.305 198.334C172.535 198.369 172.826 198.4 173.18 198.426C173.763 198.479 174.24 198.59 174.611 198.758C174.991 198.925 175.269 199.151 175.446 199.433C175.622 199.707 175.711 200.047 175.711 200.454C175.711 200.851 175.6 201.222 175.379 201.567C175.167 201.92 174.836 202.203 174.386 202.415C173.935 202.635 173.365 202.746 172.676 202.746ZM172.676 197.698C172.12 197.698 171.638 197.592 171.232 197.38C170.835 197.159 170.525 196.867 170.305 196.505C170.093 196.134 169.987 195.723 169.987 195.273C169.987 194.822 170.093 194.416 170.305 194.054C170.525 193.683 170.835 193.387 171.232 193.166C171.638 192.945 172.12 192.835 172.676 192.835C173.242 192.835 173.723 192.945 174.121 193.166C174.527 193.387 174.836 193.683 175.048 194.054C175.26 194.416 175.366 194.822 175.366 195.273C175.366 195.723 175.26 196.134 175.048 196.505C174.836 196.867 174.527 197.159 174.121 197.38C173.723 197.592 173.242 197.698 172.676 197.698ZM172.676 196.333C173.021 196.333 173.299 196.245 173.511 196.068C173.723 195.891 173.829 195.631 173.829 195.286C173.829 194.942 173.723 194.681 173.511 194.504C173.299 194.319 173.021 194.226 172.676 194.226C172.341 194.226 172.062 194.319 171.842 194.504C171.63 194.681 171.524 194.942 171.524 195.286C171.524 195.631 171.63 195.891 171.842 196.068C172.062 196.245 172.341 196.333 172.676 196.333ZM173.789 194.266L173.498 192.994H176.241V194.054L173.789 194.266ZM180.642 199.831C179.97 199.831 179.374 199.69 178.853 199.407C178.341 199.115 177.939 198.713 177.647 198.201C177.365 197.68 177.223 197.079 177.223 196.399C177.223 195.701 177.365 195.087 177.647 194.557C177.939 194.019 178.341 193.599 178.853 193.299C179.365 192.989 179.962 192.835 180.642 192.835C181.304 192.835 181.883 192.981 182.378 193.272C182.872 193.564 183.256 193.957 183.53 194.451C183.804 194.946 183.941 195.507 183.941 196.134C183.941 196.222 183.941 196.324 183.941 196.439C183.941 196.545 183.932 196.655 183.915 196.77H178.495V195.684H182.139C182.113 195.251 181.958 194.911 181.675 194.663C181.401 194.416 181.057 194.292 180.642 194.292C180.341 194.292 180.063 194.363 179.807 194.504C179.551 194.637 179.348 194.844 179.198 195.127C179.056 195.41 178.986 195.768 178.986 196.2V196.585C178.986 196.947 179.052 197.265 179.184 197.539C179.326 197.804 179.52 198.011 179.767 198.161C180.015 198.303 180.302 198.373 180.629 198.373C180.955 198.373 181.225 198.303 181.437 198.161C181.658 198.02 181.821 197.839 181.927 197.618H183.756C183.632 198.033 183.424 198.409 183.133 198.744C182.841 199.08 182.484 199.345 182.06 199.539C181.636 199.734 181.163 199.831 180.642 199.831Z" fill="#353535"/>
<path d="M94.573 219.672V211.311H91.8038V210.397H98.4553V211.311H95.686V219.672H94.573ZM99.8298 222.587L101.46 218.93H101.075L98.4518 212.994H99.6576L101.831 218.095L104.11 212.994H105.262L100.996 222.587H99.8298ZM106.464 222.587V212.994H107.471L107.563 214.08C107.705 213.868 107.886 213.67 108.107 213.484C108.327 213.29 108.592 213.135 108.902 213.02C109.211 212.897 109.564 212.835 109.962 212.835C110.615 212.835 111.181 212.989 111.658 213.299C112.143 213.608 112.519 214.027 112.784 214.557C113.058 215.079 113.195 215.675 113.195 216.346C113.195 217.017 113.058 217.618 112.784 218.148C112.519 218.669 112.143 219.08 111.658 219.38C111.172 219.681 110.602 219.831 109.948 219.831C109.41 219.831 108.933 219.72 108.517 219.5C108.111 219.279 107.797 218.97 107.577 218.572V222.587H106.464ZM109.829 218.864C110.262 218.864 110.646 218.758 110.982 218.546C111.318 218.334 111.578 218.042 111.764 217.671C111.958 217.291 112.055 216.845 112.055 216.333C112.055 215.829 111.958 215.388 111.764 215.008C111.578 214.628 111.318 214.332 110.982 214.12C110.646 213.908 110.262 213.802 109.829 213.802C109.387 213.802 108.999 213.908 108.663 214.12C108.327 214.332 108.067 214.628 107.881 215.008C107.696 215.388 107.603 215.829 107.603 216.333C107.603 216.845 107.696 217.291 107.881 217.671C108.067 218.042 108.327 218.334 108.663 218.546C108.999 218.758 109.387 218.864 109.829 218.864ZM117.686 219.831C117.059 219.831 116.502 219.685 116.017 219.394C115.54 219.102 115.164 218.696 114.89 218.175C114.616 217.645 114.48 217.031 114.48 216.333C114.48 215.626 114.612 215.012 114.877 214.491C115.151 213.97 115.531 213.564 116.017 213.272C116.511 212.981 117.077 212.835 117.713 212.835C118.366 212.835 118.918 212.981 119.369 213.272C119.828 213.564 120.177 213.948 120.416 214.425C120.663 214.893 120.787 215.41 120.787 215.975C120.787 216.063 120.787 216.156 120.787 216.253C120.787 216.351 120.782 216.461 120.773 216.585H115.314V215.723H119.7C119.674 215.114 119.47 214.637 119.091 214.292C118.72 213.948 118.251 213.776 117.686 213.776C117.306 213.776 116.953 213.864 116.626 214.041C116.308 214.208 116.052 214.46 115.858 214.796C115.663 215.123 115.566 215.533 115.566 216.028V216.399C115.566 216.947 115.663 217.406 115.858 217.777C116.061 218.148 116.321 218.426 116.639 218.612C116.966 218.797 117.315 218.89 117.686 218.89C118.154 218.89 118.538 218.789 118.839 218.585C119.148 218.373 119.369 218.091 119.501 217.737H120.601C120.495 218.135 120.31 218.493 120.045 218.811C119.78 219.129 119.448 219.38 119.051 219.566C118.662 219.743 118.207 219.831 117.686 219.831ZM187.813 219.831C187.274 219.831 186.824 219.738 186.462 219.553C186.099 219.358 185.83 219.107 185.653 218.797C185.477 218.479 185.388 218.135 185.388 217.764C185.388 217.313 185.503 216.934 185.733 216.624C185.971 216.306 186.303 216.068 186.727 215.909C187.159 215.741 187.667 215.657 188.25 215.657H190.013C190.013 215.242 189.946 214.897 189.814 214.624C189.69 214.341 189.505 214.129 189.257 213.988C189.019 213.846 188.719 213.776 188.356 213.776C187.932 213.776 187.566 213.882 187.257 214.094C186.947 214.306 186.758 214.619 186.687 215.034H185.547C185.6 214.557 185.759 214.16 186.024 213.842C186.298 213.515 186.643 213.268 187.058 213.1C187.473 212.923 187.906 212.835 188.356 212.835C188.975 212.835 189.487 212.95 189.893 213.179C190.309 213.4 190.618 213.714 190.821 214.12C191.024 214.518 191.126 214.99 191.126 215.538V219.672H190.132L190.066 218.493C189.977 218.678 189.862 218.855 189.721 219.023C189.589 219.182 189.43 219.323 189.244 219.447C189.059 219.561 188.847 219.654 188.608 219.725C188.378 219.796 188.113 219.831 187.813 219.831ZM187.985 218.89C188.295 218.89 188.573 218.828 188.82 218.705C189.076 218.572 189.293 218.395 189.469 218.175C189.646 217.945 189.779 217.693 189.867 217.419C189.964 217.146 190.013 216.858 190.013 216.558V216.518H188.343C187.91 216.518 187.561 216.571 187.296 216.677C187.031 216.775 186.841 216.916 186.727 217.101C186.612 217.278 186.554 217.481 186.554 217.711C186.554 217.949 186.607 218.157 186.713 218.334C186.828 218.51 186.992 218.647 187.204 218.744C187.424 218.842 187.685 218.89 187.985 218.89ZM192.847 219.672V212.994H193.854L193.907 214.16C194.119 213.745 194.42 213.422 194.808 213.193C195.206 212.954 195.656 212.835 196.16 212.835C196.681 212.835 197.132 212.941 197.511 213.153C197.891 213.356 198.187 213.67 198.399 214.094C198.611 214.509 198.717 215.039 198.717 215.684V219.672H197.604V215.803C197.604 215.132 197.454 214.628 197.154 214.292C196.862 213.957 196.447 213.789 195.908 213.789C195.537 213.789 195.206 213.882 194.914 214.067C194.623 214.244 194.389 214.504 194.212 214.849C194.044 215.185 193.96 215.604 193.96 216.108V219.672H192.847ZM203.397 219.831C202.752 219.831 202.187 219.681 201.701 219.38C201.215 219.071 200.84 218.652 200.575 218.122C200.31 217.592 200.178 216.991 200.178 216.32C200.178 215.648 200.31 215.052 200.575 214.531C200.84 214.001 201.215 213.586 201.701 213.285C202.196 212.985 202.766 212.835 203.411 212.835C203.958 212.835 204.435 212.945 204.842 213.166C205.257 213.387 205.575 213.696 205.796 214.094V210.132H206.909V219.672H205.902L205.809 218.572C205.667 218.793 205.486 219.001 205.266 219.195C205.045 219.38 204.78 219.535 204.471 219.659C204.161 219.773 203.804 219.831 203.397 219.831ZM203.53 218.864C203.971 218.864 204.36 218.758 204.696 218.546C205.031 218.334 205.292 218.042 205.478 217.671C205.663 217.291 205.756 216.845 205.756 216.333C205.756 215.829 205.663 215.388 205.478 215.008C205.292 214.628 205.031 214.332 204.696 214.12C204.36 213.908 203.971 213.802 203.53 213.802C203.097 213.802 202.713 213.908 202.377 214.12C202.041 214.332 201.781 214.628 201.595 215.008C201.41 215.388 201.317 215.829 201.317 216.333C201.317 216.845 201.41 217.291 201.595 217.671C201.781 218.042 202.041 218.334 202.377 218.546C202.713 218.758 203.097 218.864 203.53 218.864ZM217.622 222.587V218.585C217.41 218.93 217.101 219.226 216.695 219.473C216.297 219.712 215.811 219.831 215.237 219.831C214.584 219.831 214.014 219.681 213.528 219.38C213.042 219.071 212.667 218.656 212.402 218.135C212.137 217.605 212.004 217.004 212.004 216.333C212.004 215.662 212.137 215.065 212.402 214.544C212.667 214.014 213.042 213.599 213.528 213.299C214.023 212.989 214.592 212.835 215.237 212.835C215.617 212.835 215.957 212.888 216.257 212.994C216.567 213.1 216.836 213.25 217.066 213.444C217.295 213.63 217.481 213.846 217.622 214.094L217.728 212.994H218.735V222.587H217.622ZM215.356 218.864C215.798 218.864 216.187 218.758 216.522 218.546C216.858 218.334 217.119 218.042 217.304 217.671C217.49 217.291 217.582 216.845 217.582 216.333C217.582 215.829 217.49 215.388 217.304 215.008C217.119 214.628 216.858 214.332 216.522 214.12C216.187 213.908 215.798 213.802 215.356 213.802C214.924 213.802 214.539 213.908 214.204 214.12C213.868 214.332 213.607 214.628 213.422 215.008C213.236 215.388 213.144 215.829 213.144 216.333C213.144 216.845 213.236 217.291 213.422 217.671C213.607 218.042 213.868 218.334 214.204 218.546C214.539 218.758 214.924 218.864 215.356 218.864ZM223.014 219.831C222.502 219.831 222.052 219.729 221.663 219.526C221.283 219.323 220.987 219.009 220.775 218.585C220.572 218.161 220.47 217.631 220.47 216.995V212.994H221.583V216.876C221.583 217.539 221.729 218.038 222.021 218.373C222.312 218.709 222.723 218.877 223.253 218.877C223.624 218.877 223.96 218.789 224.26 218.612C224.56 218.426 224.794 218.166 224.962 217.83C225.139 217.486 225.227 217.066 225.227 216.571V212.994H226.34V219.672H225.333L225.267 218.506C225.064 218.921 224.763 219.248 224.366 219.486C223.968 219.716 223.518 219.831 223.014 219.831ZM231.113 219.831C230.486 219.831 229.93 219.685 229.444 219.394C228.967 219.102 228.591 218.696 228.318 218.175C228.044 217.645 227.907 217.031 227.907 216.333C227.907 215.626 228.039 215.012 228.304 214.491C228.578 213.97 228.958 213.564 229.444 213.272C229.939 212.981 230.504 212.835 231.14 212.835C231.794 212.835 232.346 212.981 232.796 213.272C233.255 213.564 233.604 213.948 233.843 214.425C234.09 214.893 234.214 215.41 234.214 215.975C234.214 216.063 234.214 216.156 234.214 216.253C234.214 216.351 234.209 216.461 234.201 216.585H228.742V215.723H233.127C233.101 215.114 232.898 214.637 232.518 214.292C232.147 213.948 231.679 213.776 231.113 213.776C230.734 213.776 230.38 213.864 230.053 214.041C229.735 214.208 229.479 214.46 229.285 214.796C229.091 215.123 228.993 215.533 228.993 216.028V216.399C228.993 216.947 229.091 217.406 229.285 217.777C229.488 218.148 229.749 218.426 230.067 218.612C230.393 218.797 230.742 218.89 231.113 218.89C231.582 218.89 231.966 218.789 232.266 218.585C232.575 218.373 232.796 218.091 232.929 217.737H234.028C233.922 218.135 233.737 218.493 233.472 218.811C233.207 219.129 232.876 219.38 232.478 219.566C232.089 219.743 231.635 219.831 231.113 219.831ZM235.716 219.672V212.994H236.723L236.802 214.266C236.953 213.966 237.142 213.709 237.372 213.497C237.611 213.285 237.893 213.122 238.22 213.007C238.556 212.892 238.936 212.835 239.36 212.835V214.001H238.949C238.666 214.001 238.397 214.041 238.141 214.12C237.884 214.191 237.655 214.31 237.452 214.478C237.257 214.646 237.103 214.875 236.988 215.167C236.882 215.45 236.829 215.803 236.829 216.227V219.672H235.716ZM241.349 222.587L242.978 218.93H242.594L239.971 212.994H241.176L243.349 218.095L245.628 212.994H246.781L242.515 222.587H241.349ZM252.231 222.587L253.86 218.93H253.476L250.853 212.994H252.058L254.231 218.095L256.51 212.994H257.663L253.397 222.587H252.231ZM261.225 219.831C260.606 219.831 260.05 219.69 259.555 219.407C259.061 219.115 258.672 218.709 258.389 218.188C258.107 217.658 257.965 217.044 257.965 216.346C257.965 215.631 258.107 215.012 258.389 214.491C258.681 213.961 259.074 213.555 259.568 213.272C260.072 212.981 260.633 212.835 261.251 212.835C261.887 212.835 262.448 212.981 262.934 213.272C263.429 213.555 263.817 213.961 264.1 214.491C264.391 215.012 264.537 215.626 264.537 216.333C264.537 217.04 264.391 217.658 264.1 218.188C263.808 218.709 263.415 219.115 262.921 219.407C262.426 219.69 261.861 219.831 261.225 219.831ZM261.238 218.877C261.618 218.877 261.971 218.784 262.298 218.599C262.625 218.404 262.89 218.117 263.093 217.737C263.296 217.358 263.398 216.889 263.398 216.333C263.398 215.768 263.296 215.299 263.093 214.928C262.899 214.549 262.638 214.266 262.311 214.08C261.993 213.886 261.64 213.789 261.251 213.789C260.88 213.789 260.527 213.886 260.191 214.08C259.864 214.266 259.599 214.549 259.396 214.928C259.202 215.299 259.105 215.768 259.105 216.333C259.105 216.889 259.202 217.358 259.396 217.737C259.599 218.117 259.86 218.404 260.178 218.599C260.505 218.784 260.858 218.877 261.238 218.877ZM268.522 219.831C268.01 219.831 267.56 219.729 267.171 219.526C266.791 219.323 266.495 219.009 266.283 218.585C266.08 218.161 265.978 217.631 265.978 216.995V212.994H267.091V216.876C267.091 217.539 267.237 218.038 267.529 218.373C267.82 218.709 268.231 218.877 268.761 218.877C269.132 218.877 269.468 218.789 269.768 218.612C270.068 218.426 270.302 218.166 270.47 217.83C270.647 217.486 270.735 217.066 270.735 216.571V212.994H271.848V219.672H270.841L270.775 218.506C270.572 218.921 270.271 219.248 269.874 219.486C269.476 219.716 269.026 219.831 268.522 219.831ZM273.693 219.672V212.994H274.7L274.78 214.266C274.93 213.966 275.12 213.709 275.349 213.497C275.588 213.285 275.871 213.122 276.197 213.007C276.533 212.892 276.913 212.835 277.337 212.835V214.001H276.926C276.643 214.001 276.374 214.041 276.118 214.12C275.862 214.191 275.632 214.31 275.429 214.478C275.235 214.646 275.08 214.875 274.965 215.167C274.859 215.45 274.806 215.803 274.806 216.227V219.672H273.693ZM285.058 219.831C284.413 219.831 283.848 219.681 283.362 219.38C282.876 219.071 282.501 218.652 282.236 218.122C281.971 217.592 281.838 216.991 281.838 216.32C281.838 215.648 281.971 215.052 282.236 214.531C282.501 214.001 282.876 213.586 283.362 213.285C283.857 212.985 284.427 212.835 285.071 212.835C285.619 212.835 286.096 212.945 286.502 213.166C286.918 213.387 287.236 213.696 287.456 214.094V210.132H288.569V219.672H287.562L287.47 218.572C287.328 218.793 287.147 219.001 286.926 219.195C286.706 219.38 286.441 219.535 286.131 219.659C285.822 219.773 285.465 219.831 285.058 219.831ZM285.191 218.864C285.632 218.864 286.021 218.758 286.357 218.546C286.692 218.334 286.953 218.042 287.138 217.671C287.324 217.291 287.417 216.845 287.417 216.333C287.417 215.829 287.324 215.388 287.138 215.008C286.953 214.628 286.692 214.332 286.357 214.12C286.021 213.908 285.632 213.802 285.191 213.802C284.758 213.802 284.374 213.908 284.038 214.12C283.702 214.332 283.442 214.628 283.256 215.008C283.071 215.388 282.978 215.829 282.978 216.333C282.978 216.845 283.071 217.291 283.256 217.671C283.442 218.042 283.702 218.334 284.038 218.546C284.374 218.758 284.758 218.864 285.191 218.864ZM292.597 219.831C292.058 219.831 291.608 219.738 291.245 219.553C290.883 219.358 290.614 219.107 290.437 218.797C290.26 218.479 290.172 218.135 290.172 217.764C290.172 217.313 290.287 216.934 290.517 216.624C290.755 216.306 291.086 216.068 291.51 215.909C291.943 215.741 292.451 215.657 293.034 215.657H294.796C294.796 215.242 294.73 214.897 294.598 214.624C294.474 214.341 294.288 214.129 294.041 213.988C293.803 213.846 293.502 213.776 293.14 213.776C292.716 213.776 292.35 213.882 292.04 214.094C291.731 214.306 291.541 214.619 291.471 215.034H290.331C290.384 214.557 290.543 214.16 290.808 213.842C291.082 213.515 291.426 213.268 291.842 213.1C292.257 212.923 292.69 212.835 293.14 212.835C293.758 212.835 294.271 212.95 294.677 213.179C295.092 213.4 295.401 213.714 295.605 214.12C295.808 214.518 295.909 214.99 295.909 215.538V219.672H294.916L294.849 218.493C294.761 218.678 294.646 218.855 294.505 219.023C294.372 219.182 294.213 219.323 294.028 219.447C293.842 219.561 293.63 219.654 293.392 219.725C293.162 219.796 292.897 219.831 292.597 219.831ZM292.769 218.89C293.078 218.89 293.357 218.828 293.604 218.705C293.86 218.572 294.076 218.395 294.253 218.175C294.43 217.945 294.562 217.693 294.651 217.419C294.748 217.146 294.796 216.858 294.796 216.558V216.518H293.127C292.694 216.518 292.345 216.571 292.08 216.677C291.815 216.775 291.625 216.916 291.51 217.101C291.396 217.278 291.338 217.481 291.338 217.711C291.338 217.949 291.391 218.157 291.497 218.334C291.612 218.51 291.775 218.647 291.987 218.744C292.208 218.842 292.469 218.89 292.769 218.89ZM300.073 219.672C299.676 219.672 299.331 219.61 299.04 219.486C298.748 219.363 298.523 219.155 298.364 218.864C298.214 218.563 298.139 218.161 298.139 217.658V213.935H296.973V212.994H298.139L298.285 211.377H299.252V212.994H301.186V213.935H299.252V217.658C299.252 218.073 299.336 218.356 299.504 218.506C299.672 218.647 299.967 218.718 300.391 218.718H301.107V219.672H300.073ZM304.812 219.831C304.273 219.831 303.822 219.738 303.46 219.553C303.098 219.358 302.829 219.107 302.652 218.797C302.475 218.479 302.387 218.135 302.387 217.764C302.387 217.313 302.502 216.934 302.731 216.624C302.97 216.306 303.301 216.068 303.725 215.909C304.158 215.741 304.666 215.657 305.249 215.657H307.011C307.011 215.242 306.945 214.897 306.812 214.624C306.689 214.341 306.503 214.129 306.256 213.988C306.017 213.846 305.717 213.776 305.355 213.776C304.931 213.776 304.564 213.882 304.255 214.094C303.946 214.306 303.756 214.619 303.685 215.034H302.546C302.599 214.557 302.758 214.16 303.023 213.842C303.297 213.515 303.641 213.268 304.056 213.1C304.472 212.923 304.904 212.835 305.355 212.835C305.973 212.835 306.486 212.95 306.892 213.179C307.307 213.4 307.616 213.714 307.819 214.12C308.023 214.518 308.124 214.99 308.124 215.538V219.672H307.13L307.064 218.493C306.976 218.678 306.861 218.855 306.72 219.023C306.587 219.182 306.428 219.323 306.243 219.447C306.057 219.561 305.845 219.654 305.607 219.725C305.377 219.796 305.112 219.831 304.812 219.831ZM304.984 218.89C305.293 218.89 305.571 218.828 305.819 218.705C306.075 218.572 306.291 218.395 306.468 218.175C306.645 217.945 306.777 217.693 306.865 217.419C306.963 217.146 307.011 216.858 307.011 216.558V216.518H305.342C304.909 216.518 304.56 216.571 304.295 216.677C304.03 216.775 303.84 216.916 303.725 217.101C303.61 217.278 303.553 217.481 303.553 217.711C303.553 217.949 303.606 218.157 303.712 218.334C303.827 218.51 303.99 218.647 304.202 218.744C304.423 218.842 304.684 218.89 304.984 218.89Z" fill="#848484"/>
<rect x="125.359" y="204.133" width="57.1094" height="20.7969" rx="3.72656" fill="#511B9C" fill-opacity="0.1"/>
<rect x="125.359" y="204.133" width="57.1094" height="20.7969" rx="3.72656" stroke="#511B9C" stroke-width="0.828125"/>
<path d="M130.143 219.164L132.627 210.29H133.929L131.444 219.164H130.143ZM134.626 218.031V213.023H135.809L135.918 213.689C136.077 213.45 136.286 213.261 136.544 213.122C136.809 212.976 137.111 212.903 137.449 212.903C137.7 212.903 137.926 212.937 138.124 213.003C138.323 213.069 138.499 213.165 138.651 213.291C138.81 213.417 138.939 213.576 139.039 213.768C139.224 213.496 139.466 213.284 139.764 213.132C140.062 212.98 140.387 212.903 140.738 212.903C141.175 212.903 141.54 212.993 141.831 213.172C142.123 213.344 142.341 213.596 142.487 213.927C142.639 214.258 142.716 214.666 142.716 215.149V218.031H141.384V215.269C141.384 214.871 141.304 214.566 141.145 214.354C140.993 214.142 140.755 214.036 140.43 214.036C140.218 214.036 140.029 214.089 139.864 214.195C139.698 214.301 139.569 214.454 139.476 214.652C139.39 214.851 139.347 215.09 139.347 215.368V218.031H138.005V215.269C138.005 214.871 137.926 214.566 137.767 214.354C137.608 214.142 137.363 214.036 137.031 214.036C136.826 214.036 136.64 214.089 136.475 214.195C136.316 214.301 136.19 214.454 136.097 214.652C136.011 214.851 135.968 215.09 135.968 215.368V218.031H134.626ZM145.85 218.151C145.446 218.151 145.098 218.068 144.806 217.902C144.522 217.73 144.303 217.481 144.151 217.157C143.998 216.825 143.922 216.418 143.922 215.934V213.023H145.264V215.795C145.264 216.199 145.346 216.504 145.512 216.71C145.684 216.915 145.946 217.018 146.297 217.018C146.522 217.018 146.721 216.968 146.893 216.869C147.066 216.763 147.201 216.613 147.301 216.421C147.407 216.223 147.46 215.981 147.46 215.696V213.023H148.791V218.031H147.619L147.509 217.216C147.364 217.501 147.148 217.73 146.864 217.902C146.579 218.068 146.241 218.151 145.85 218.151ZM152.262 220.337C151.785 220.337 151.367 220.277 151.01 220.158C150.652 220.045 150.374 219.87 150.175 219.631C149.983 219.399 149.887 219.111 149.887 218.767C149.887 218.535 149.946 218.316 150.066 218.111C150.185 217.905 150.357 217.72 150.582 217.554C150.814 217.382 151.102 217.236 151.447 217.117L151.954 217.773C151.649 217.872 151.427 217.995 151.288 218.141C151.155 218.293 151.089 218.455 151.089 218.628C151.089 218.78 151.139 218.909 151.238 219.015C151.344 219.121 151.483 219.197 151.656 219.244C151.834 219.297 152.033 219.323 152.252 219.323C152.464 219.323 152.646 219.297 152.798 219.244C152.957 219.191 153.08 219.111 153.166 219.005C153.259 218.906 153.305 218.787 153.305 218.647C153.305 218.469 153.242 218.323 153.116 218.21C152.99 218.098 152.739 218.028 152.361 218.001C152.023 217.975 151.722 217.938 151.457 217.892C151.198 217.839 150.97 217.779 150.771 217.713C150.572 217.64 150.403 217.561 150.264 217.475C150.132 217.389 150.022 217.302 149.936 217.216V216.988L151 215.845L151.964 216.153L150.711 217.385L151.089 216.729C151.162 216.769 151.232 216.809 151.298 216.849C151.371 216.882 151.46 216.915 151.566 216.948C151.672 216.975 151.811 217.001 151.983 217.028C152.156 217.054 152.374 217.077 152.639 217.097C153.077 217.137 153.434 217.22 153.713 217.346C153.997 217.471 154.206 217.64 154.339 217.852C154.471 218.058 154.537 218.313 154.537 218.618C154.537 218.916 154.455 219.194 154.289 219.452C154.13 219.717 153.882 219.929 153.544 220.088C153.206 220.254 152.778 220.337 152.262 220.337ZM152.262 216.551C151.844 216.551 151.483 216.471 151.179 216.312C150.88 216.146 150.649 215.928 150.483 215.656C150.324 215.378 150.244 215.07 150.244 214.732C150.244 214.394 150.324 214.089 150.483 213.818C150.649 213.539 150.88 213.318 151.179 213.152C151.483 212.986 151.844 212.903 152.262 212.903C152.686 212.903 153.047 212.986 153.345 213.152C153.65 213.318 153.882 213.539 154.041 213.818C154.2 214.089 154.279 214.394 154.279 214.732C154.279 215.07 154.2 215.378 154.041 215.656C153.882 215.928 153.65 216.146 153.345 216.312C153.047 216.471 152.686 216.551 152.262 216.551ZM152.262 215.527C152.52 215.527 152.729 215.461 152.888 215.328C153.047 215.196 153.126 215 153.126 214.742C153.126 214.484 153.047 214.288 152.888 214.156C152.729 214.016 152.52 213.947 152.262 213.947C152.01 213.947 151.801 214.016 151.636 214.156C151.477 214.288 151.397 214.484 151.397 214.742C151.397 215 151.477 215.196 151.636 215.328C151.801 215.461 152.01 215.527 152.262 215.527ZM153.096 213.977L152.878 213.023H154.935V213.818L153.096 213.977ZM156.025 218.031V213.023H157.208L157.307 213.838C157.459 213.559 157.675 213.334 157.953 213.162C158.238 212.99 158.576 212.903 158.967 212.903C159.384 212.903 159.735 212.99 160.02 213.162C160.305 213.334 160.52 213.586 160.666 213.917C160.818 214.248 160.894 214.656 160.894 215.139V218.031H159.563V215.269C159.563 214.871 159.477 214.566 159.304 214.354C159.139 214.142 158.88 214.036 158.529 214.036C158.304 214.036 158.102 214.089 157.923 214.195C157.751 214.301 157.615 214.454 157.516 214.652C157.416 214.845 157.367 215.08 157.367 215.358V218.031H156.025ZM163.848 218.151C163.43 218.151 163.086 218.084 162.814 217.952C162.543 217.813 162.341 217.63 162.208 217.405C162.082 217.173 162.019 216.918 162.019 216.64C162.019 216.335 162.095 216.067 162.248 215.835C162.407 215.603 162.642 215.421 162.953 215.288C163.271 215.156 163.669 215.09 164.146 215.09H165.388C165.388 214.845 165.355 214.643 165.289 214.484C165.222 214.318 165.12 214.195 164.981 214.116C164.842 214.036 164.656 213.997 164.424 213.997C164.172 213.997 163.957 214.053 163.778 214.166C163.606 214.272 163.5 214.437 163.46 214.662H162.158C162.192 214.305 162.307 213.997 162.506 213.738C162.712 213.473 162.98 213.268 163.311 213.122C163.649 212.976 164.023 212.903 164.434 212.903C164.904 212.903 165.312 212.983 165.656 213.142C166.001 213.301 166.266 213.53 166.451 213.828C166.637 214.126 166.73 214.493 166.73 214.931V218.031H165.597L165.448 217.266C165.375 217.399 165.289 217.518 165.189 217.624C165.09 217.73 164.974 217.823 164.842 217.902C164.709 217.982 164.56 218.041 164.394 218.081C164.229 218.127 164.047 218.151 163.848 218.151ZM164.166 217.117C164.338 217.117 164.49 217.087 164.623 217.028C164.762 216.961 164.881 216.875 164.981 216.769C165.08 216.657 165.156 216.531 165.209 216.392C165.269 216.246 165.309 216.09 165.328 215.924V215.915H164.305C164.1 215.915 163.931 215.941 163.798 215.994C163.672 216.04 163.579 216.11 163.52 216.203C163.46 216.295 163.43 216.401 163.43 216.521C163.43 216.653 163.46 216.763 163.52 216.849C163.579 216.935 163.666 217.001 163.778 217.047C163.891 217.094 164.02 217.117 164.166 217.117ZM167.544 218.031L170.088 211.075H171.608L174.142 218.031H172.721L170.843 212.605L168.955 218.031H167.544ZM168.667 216.451L169.025 215.408H172.562L172.91 216.451H168.667ZM175.056 218.031V211.075H176.398V218.031H175.056Z" fill="#511B9C"/>
</g>
<g filter="url(#filter2_d_336_1048)">
<rect x="33.5254" y="301.783" width="288.523" height="79.2194" rx="7.86719" stroke="url(#paint4_linear_336_1048)" stroke-width="0.828125" shape-rendering="crispEdges"/>
</g>
<rect x="173.455" y="161.033" width="7.52841" height="7.52841" rx="3.7642" fill="white" stroke="#8A49EF" stroke-width="0.752841"/>
<rect x="173.455" y="240.423" width="7.52841" height="7.52841" rx="3.7642" fill="white" stroke="#8A49EF" stroke-width="0.752841"/>
<defs>
<filter id="filter0_d_336_1048" x="-1.90735e-06" y="-1.66893e-06" width="354.438" height="115.938" filterUnits="userSpaceOnUse" color-interpolation-filters="sRGB">
<feFlood flood-opacity="0" result="BackgroundImageFix"/>
<feColorMatrix in="SourceAlpha" type="matrix" values="0 0 0 0 0 0 0 0 0 0 0 0 0 0 0 0 0 0 127 0" result="hardAlpha"/>
<feOffset dy="3.3125"/>
<feGaussianBlur stdDeviation="9.10938"/>
<feComposite in2="hardAlpha" operator="out"/>
<feColorMatrix type="matrix" values="0 0 0 0 0 0 0 0 0 0 0 0 0 0 0 0 0 0 0.1 0"/>
<feBlend mode="normal" in2="BackgroundImageFix" result="effect1_dropShadow_336_1048"/>
<feBlend mode="normal" in="SourceGraphic" in2="effect1_dropShadow_336_1048" result="shape"/>
</filter>
<filter id="filter1_d_336_1048" x="15.2187" y="149.891" width="325.656" height="116.188" filterUnits="userSpaceOnUse" color-interpolation-filters="sRGB">
<feFlood flood-opacity="0" result="BackgroundImageFix"/>
<feColorMatrix in="SourceAlpha" type="matrix" values="0 0 0 0 0 0 0 0 0 0 0 0 0 0 0 0 0 0 127 0" result="hardAlpha"/>
<feOffset dy="3.3125"/>
<feGaussianBlur stdDeviation="9.10938"/>
<feComposite in2="hardAlpha" operator="out"/>
<feColorMatrix type="matrix" values="0 0 0 0 0 0 0 0 0 0 0 0 0 0 0 0 0 0 0.1 0"/>
<feBlend mode="normal" in2="BackgroundImageFix" result="effect1_dropShadow_336_1048"/>
<feBlend mode="normal" in="SourceGraphic" in2="effect1_dropShadow_336_1048" result="shape"/>
</filter>
<filter id="filter2_d_336_1048" x="14.8926" y="286.463" width="325.789" height="116.484" filterUnits="userSpaceOnUse" color-interpolation-filters="sRGB">
<feFlood flood-opacity="0" result="BackgroundImageFix"/>
<feColorMatrix in="SourceAlpha" type="matrix" values="0 0 0 0 0 0 0 0 0 0 0 0 0 0 0 0 0 0 127 0" result="hardAlpha"/>
<feOffset dy="3.3125"/>
<feGaussianBlur stdDeviation="9.10938"/>
<feComposite in2="hardAlpha" operator="out"/>
<feColorMatrix type="matrix" values="0 0 0 0 0 0 0 0 0 0 0 0 0 0 0 0 0 0 0.1 0"/>
<feBlend mode="normal" in2="BackgroundImageFix" result="effect1_dropShadow_336_1048"/>
<feBlend mode="normal" in="SourceGraphic" in2="effect1_dropShadow_336_1048" result="shape"/>
</filter>
<linearGradient id="paint0_linear_336_1048" x1="176.281" y1="99.0059" x2="176.281" y2="347.361" gradientUnits="userSpaceOnUse">
<stop stop-color="#848484"/>
<stop offset="1" stop-color="#1E1E1E" stop-opacity="0"/>
</linearGradient>
<linearGradient id="paint1_linear_336_1048" x1="22.0045" y1="18.466" x2="331.678" y2="93.7996" gradientUnits="userSpaceOnUse">
<stop stop-color="#512399"/>
<stop offset="1" stop-color="#00BAD1"/>
</linearGradient>
<linearGradient id="paint2_linear_336_1048" x1="51.0877" y1="70.9476" x2="49.7325" y2="42.0029" gradientUnits="userSpaceOnUse">
<stop stop-color="#FDBD00"/>
<stop offset="0.582036" stop-color="#FFEDB9"/>
</linearGradient>
<linearGradient id="paint3_linear_336_1048" x1="36.8806" y1="168.368" x2="321.355" y2="231.111" gradientUnits="userSpaceOnUse">
<stop stop-color="#512399"/>
<stop offset="1" stop-color="#00BAD1"/>
</linearGradient>
<linearGradient id="paint4_linear_336_1048" x1="89.6155" y1="237.419" x2="86.2213" y2="345.229" gradientUnits="userSpaceOnUse">
<stop offset="0.38001" stop-color="#512399"/>
<stop offset="0.835466" stop-color="#00BAD1" stop-opacity="0"/>
</linearGradient>
<clipPath id="clip0_336_1048">
<rect width="26.7208" height="26.7208" fill="white" transform="translate(51.5449 191.311)"/>
</clipPath>
</defs>
</svg>
