<svg width="102" height="90" viewBox="0 0 102 90" fill="none" xmlns="http://www.w3.org/2000/svg">
<path d="M4.53388 38.9994C4.50564 39.6325 4.49541 40.2834 4.50299 40.9341C4.78982 65.5693 25.842 85.3062 51.5282 85.0071C77.2025 84.7082 97.7835 64.4866 97.4967 39.8513C97.4891 39.2007 97.4637 38.5502 97.4208 37.9179" stroke="url(#paint0_linear_297_1002)" stroke-width="9" stroke-linecap="round"/>
<path d="M48.6669 7.60353C49.6334 4.99167 53.3276 4.99166 54.294 7.60352L59.3746 21.3335C59.6784 22.1546 60.3258 22.8021 61.147 23.1059L74.8769 28.1864C77.4888 29.1529 77.4888 32.8471 74.877 33.8136L61.147 38.8941C60.3259 39.1979 59.6784 39.8454 59.3746 40.6665L54.294 54.3965C53.3276 57.0083 49.6334 57.0083 48.6669 54.3965L43.5864 40.6665C43.2825 39.8454 42.6351 39.1979 41.8139 38.8941L28.084 33.8136C25.4721 32.8471 25.4721 29.1529 28.084 28.1864L41.8139 23.1059C42.6351 22.8021 43.2825 22.1546 43.5864 21.3335L48.6669 7.60353Z" fill="#FED459"/>
<defs>
<linearGradient id="paint0_linear_297_1002" x1="58.4805" y1="126.918" x2="51.4805" y2="-22.582" gradientUnits="userSpaceOnUse">
<stop stop-color="#FDBD00"/>
<stop offset="0.582036" stop-color="#FFEDB9"/>
</linearGradient>
</defs>
</svg>
