<svg width="491" height="493" viewBox="0 0 491 493" fill="none" xmlns="http://www.w3.org/2000/svg">
<path d="M393.4 185.893C396.613 208.689 392.802 253.577 351.85 250.762" stroke="#0A4F71" stroke-width="17" stroke-linecap="round"/>
<ellipse cx="27.7281" cy="26.9547" rx="27.7281" ry="26.9547" transform="matrix(-0.98991 -0.141695 -0.141695 0.98991 427.075 139.263)" fill="url(#paint0_linear_174_2)"/>
<path d="M390.243 147.368C395.992 146.453 396.431 130.876 395.933 123.202C394.088 118.873 386.37 115.767 381.339 120.468C376.308 125.17 377.815 143.711 379.048 145.104C380.281 146.497 383.057 148.511 390.243 147.368Z" fill="url(#paint1_linear_174_2)"/>
<path d="M407.062 147.818C412.81 146.903 413.25 131.327 412.751 123.653C410.906 119.323 403.188 116.217 398.157 120.919C393.127 125.62 394.633 144.162 395.866 145.555C397.099 146.948 399.875 148.962 407.062 147.818Z" fill="url(#paint2_linear_174_2)"/>
<path d="M418.104 155.669C423.922 155.485 426.32 140.088 426.792 132.412C425.507 127.885 418.242 123.831 412.659 127.862C407.076 131.892 406.235 150.475 407.282 152.013C408.33 153.55 410.831 155.898 418.104 155.669Z" fill="url(#paint3_linear_174_2)"/>
<path d="M385.719 139.125C366.684 137.223 365.583 153.129 367.413 161.321L373.288 155.062C373.74 156.121 378.814 158.34 395.501 158.74C416.359 159.241 409.513 141.504 385.719 139.125Z" fill="url(#paint4_linear_174_2)"/>
<path d="M408.492 199.486L379.114 196.26C373.328 195.625 361.579 195.957 362.83 184.562C364.081 173.167 373.991 173.174 378.887 173.711L408.71 176.986C411.381 177.28 423.844 178.648 422.622 189.776C421.637 198.742 412.349 199.91 408.492 199.486Z" fill="url(#paint5_linear_174_2)"/>
<path d="M154.638 109.9C139.707 127.422 118.866 167.361 154.948 186.934" stroke="#0A4F71" stroke-width="17" stroke-linecap="round"/>
<ellipse cx="165.402" cy="88.4523" rx="27.7281" ry="26.9547" transform="rotate(24.2642 165.402 88.4523)" fill="url(#paint6_linear_174_2)"/>
<path d="M177.951 79.0671C173.588 75.2135 181.566 61.8277 186.1 55.6164C189.978 52.9501 198.159 54.4646 199.886 61.13C201.613 67.7954 190.404 82.6417 188.616 83.1569C186.829 83.672 183.405 83.8842 177.951 79.0671Z" fill="url(#paint7_linear_174_2)"/>
<path d="M163.512 70.4336C159.149 66.5799 167.127 53.1941 171.661 46.9829C175.539 44.3165 183.719 45.831 185.446 52.4964C187.174 59.1618 175.964 74.0082 174.177 74.5233C172.389 75.0384 168.966 75.2507 163.512 70.4336Z" fill="url(#paint8_linear_174_2)"/>
<path d="M149.982 71.1426C145.168 67.8693 151.396 53.5851 155.112 46.8521C158.623 43.7185 166.929 44.1904 169.482 50.5851C172.036 56.9798 162.786 73.12 161.077 73.8562C159.369 74.5924 155.999 75.2343 149.982 71.1426Z" fill="url(#paint9_linear_174_2)"/>
<path d="M186.188 74.5331C203.278 83.1291 195.682 97.148 189.747 103.083L188.141 94.6497C187.192 95.3021 181.719 94.4555 167.417 85.8499C149.54 75.0928 164.825 63.7881 186.188 74.5331Z" fill="url(#paint10_linear_174_2)"/>
<path d="M134.611 113.286L161.141 126.309C166.367 128.873 176.108 135.451 181.159 125.16C186.21 114.869 177.84 109.564 173.418 107.393L146.486 94.174C144.074 92.9901 132.819 87.4656 127.886 97.515C123.912 105.612 131.127 111.576 134.611 113.286Z" fill="url(#paint11_linear_174_2)"/>
<path d="M251.733 312.744C238.499 318.691 234.505 328.917 242.014 347.573C249.914 367.198 258.914 363.373 264.49 365.265" stroke="#0A4F71" stroke-width="16.7367" stroke-linecap="round"/>
<path d="M270.657 387.875C270.623 383.69 260.746 381.447 255.812 380.849L261.995 348.607C277.842 346.771 309.285 349.318 308.275 374.196C307.012 405.292 302.12 422.635 290.125 419.813C278.131 416.99 270.698 393.106 270.657 387.875Z" fill="url(#paint12_linear_174_2)"/>
<path d="M257.442 350.918L252.589 376.228C251.633 381.213 248.34 390.919 258.157 392.801C267.974 394.684 270.513 386.424 271.322 382.205L276.249 356.512C276.69 354.211 278.749 343.474 269.162 341.636C261.437 340.154 258.08 347.595 257.442 350.918Z" fill="url(#paint13_linear_174_2)"/>
<path d="M196.538 301.476C172.371 326.217 173.537 338.028 174.059 359.814" stroke="#0A4F71" stroke-width="16.7367" stroke-linecap="round"/>
<path d="M155.341 375.107C159.348 373.898 158.721 363.789 157.907 358.886L190.587 355.751C196.806 370.442 203.205 401.331 179.048 407.359C148.852 414.894 130.833 415.077 130.168 402.773C129.503 390.469 150.333 376.618 155.341 375.107Z" fill="url(#paint14_linear_174_2)"/>
<path d="M187.089 352.032L161.436 354.493C156.383 354.978 146.143 354.548 147.097 364.499C148.052 374.449 156.693 374.561 160.968 374.151L187.01 371.653C189.342 371.429 200.225 370.385 199.293 360.668C198.541 352.838 190.457 351.709 187.089 352.032Z" fill="url(#paint15_linear_174_2)"/>
<path d="M312.264 84.9289C310.891 79.2313 306.571 74.706 300.943 73.0704L294.216 71.1153C288.478 69.4479 282.288 71.0462 278.076 75.2829L102.49 251.861C93.7461 260.654 97.6056 275.602 109.514 279.062L350.797 349.185C362.841 352.685 374.172 341.867 371.234 329.674L312.264 84.9289Z" fill="#0A4F71"/>
<path d="M298.902 83.2453C295.904 71.0346 280.812 66.6484 271.736 75.3502L91.0195 248.621C81.9438 257.322 85.6914 272.586 97.7652 276.095L338.18 345.965C350.254 349.474 361.599 338.597 358.601 326.386L298.902 83.2453Z" fill="url(#paint16_linear_174_2)"/>
<path d="M204.031 136.061L196.949 125.066" stroke="#0A4F71" stroke-width="12" stroke-linecap="round"/>
<path d="M193.328 145.22L183.895 136.161" stroke="#0A4F71" stroke-width="12" stroke-linecap="round"/>
<path d="M187.121 155.804L175.409 149.983" stroke="#0A4F71" stroke-width="12" stroke-linecap="round"/>
<ellipse cx="46.3415" cy="57.0687" rx="46.3415" ry="57.0687" transform="matrix(-0.960269 -0.279076 -0.279076 0.960269 274.134 143.923)" fill="url(#paint17_linear_174_2)"/>
<ellipse cx="21.8835" cy="24.8871" rx="21.8835" ry="24.8871" transform="matrix(-0.960269 -0.279076 -0.279076 0.960269 250.679 169.279)" fill="#0A4F71"/>
<path d="M220.236 184.853L200.804 171.764L195.057 191.542L220.236 184.853Z" fill="white"/>
<path d="M327.231 171.866L339.103 166.379" stroke="#0A4F71" stroke-width="12" stroke-linecap="round"/>
<path d="M331.358 185.334L344.177 182.743" stroke="#0A4F71" stroke-width="12" stroke-linecap="round"/>
<path d="M330.925 197.597L343.933 198.96" stroke="#0A4F71" stroke-width="12" stroke-linecap="round"/>
<ellipse cx="46.3415" cy="57.0687" rx="46.3415" ry="57.0687" transform="matrix(-0.960269 -0.279076 -0.279076 0.960269 343.357 164.041)" fill="url(#paint18_linear_174_2)"/>
<ellipse cx="21.8835" cy="24.8871" rx="21.8835" ry="24.8871" transform="matrix(-0.960269 -0.279076 -0.279076 0.960269 310.837 186.762)" fill="#0A4F71"/>
<path d="M280.395 202.336L260.963 189.247L255.215 209.025L280.395 202.336Z" fill="white"/>
<path d="M284.53 140.838C287.056 140.625 294.101 142.011 302.078 149.252" stroke="#0A4F71" stroke-width="12" stroke-linecap="round"/>
<path d="M251.12 131.128C249.102 129.595 242.411 126.989 231.796 128.827" stroke="#0A4F71" stroke-width="12" stroke-linecap="round"/>
<path d="M256.312 257.603C252.296 261.679 239.997 268.731 222.924 264.342" stroke="#0A4F71" stroke-width="7" stroke-linecap="round"/>
<defs>
<linearGradient id="paint0_linear_174_2" x1="27.7281" y1="1.00306e-07" x2="24.4569" y2="127.286" gradientUnits="userSpaceOnUse">
<stop stop-color="white"/>
<stop offset="1" stop-color="#73C8FE"/>
</linearGradient>
<linearGradient id="paint1_linear_174_2" x1="381.791" y1="126.031" x2="396.856" y2="198.904" gradientUnits="userSpaceOnUse">
<stop stop-color="white"/>
<stop offset="1" stop-color="#73C8FE"/>
</linearGradient>
<linearGradient id="paint2_linear_174_2" x1="398.609" y1="126.481" x2="413.674" y2="199.354" gradientUnits="userSpaceOnUse">
<stop stop-color="white"/>
<stop offset="1" stop-color="#73C8FE"/>
</linearGradient>
<linearGradient id="paint3_linear_174_2" x1="412.407" y1="133.437" x2="418.171" y2="207.627" gradientUnits="userSpaceOnUse">
<stop stop-color="white"/>
<stop offset="1" stop-color="#73C8FE"/>
</linearGradient>
<linearGradient id="paint4_linear_174_2" x1="386.304" y1="147.128" x2="384.854" y2="177.056" gradientUnits="userSpaceOnUse">
<stop stop-color="white"/>
<stop offset="1" stop-color="#73C8FE"/>
</linearGradient>
<linearGradient id="paint5_linear_174_2" x1="391.569" y1="197.706" x2="394.631" y2="149.312" gradientUnits="userSpaceOnUse">
<stop stop-color="white"/>
<stop offset="1" stop-color="#73C8FE"/>
</linearGradient>
<linearGradient id="paint6_linear_174_2" x1="165.402" y1="61.4976" x2="162.131" y2="188.784" gradientUnits="userSpaceOnUse">
<stop stop-color="white"/>
<stop offset="1" stop-color="#73C8FE"/>
</linearGradient>
<linearGradient id="paint7_linear_174_2" x1="196.523" y1="65.5839" x2="144.747" y2="119.031" gradientUnits="userSpaceOnUse">
<stop stop-color="white"/>
<stop offset="1" stop-color="#73C8FE"/>
</linearGradient>
<linearGradient id="paint8_linear_174_2" x1="182.084" y1="56.9503" x2="130.307" y2="110.398" gradientUnits="userSpaceOnUse">
<stop stop-color="white"/>
<stop offset="1" stop-color="#73C8FE"/>
</linearGradient>
<linearGradient id="paint9_linear_174_2" x1="166.707" y1="55.4271" x2="122.077" y2="114.971" gradientUnits="userSpaceOnUse">
<stop stop-color="white"/>
<stop offset="1" stop-color="#73C8FE"/>
</linearGradient>
<linearGradient id="paint10_linear_174_2" x1="181.406" y1="80.9757" x2="166.589" y2="107.019" gradientUnits="userSpaceOnUse">
<stop stop-color="white"/>
<stop offset="1" stop-color="#73C8FE"/>
</linearGradient>
<linearGradient id="paint11_linear_174_2" x1="149.852" y1="120.854" x2="173.205" y2="78.3569" gradientUnits="userSpaceOnUse">
<stop stop-color="white"/>
<stop offset="1" stop-color="#73C8FE"/>
</linearGradient>
<linearGradient id="paint12_linear_174_2" x1="276.488" y1="387.426" x2="351.552" y2="401.82" gradientUnits="userSpaceOnUse">
<stop stop-color="white"/>
<stop offset="1" stop-color="#73C8FE"/>
</linearGradient>
<linearGradient id="paint13_linear_174_2" x1="254.581" y1="365.477" x2="295.696" y2="375.35" gradientUnits="userSpaceOnUse">
<stop stop-color="white"/>
<stop offset="1" stop-color="#73C8FE"/>
</linearGradient>
<linearGradient id="paint14_linear_174_2" x1="157.412" y1="380.577" x2="164.711" y2="456.66" gradientUnits="userSpaceOnUse">
<stop stop-color="white"/>
<stop offset="1" stop-color="#73C8FE"/>
</linearGradient>
<linearGradient id="paint15_linear_174_2" x1="172.312" y1="353.382" x2="174.403" y2="395.613" gradientUnits="userSpaceOnUse">
<stop stop-color="white"/>
<stop offset="1" stop-color="#73C8FE"/>
</linearGradient>
<linearGradient id="paint16_linear_174_2" x1="218.542" y1="312.708" x2="322.119" y2="26.3579" gradientUnits="userSpaceOnUse">
<stop stop-color="#62E2F2"/>
<stop offset="1" stop-color="#00BAD1"/>
</linearGradient>
<linearGradient id="paint17_linear_174_2" x1="46.3415" y1="41.1924" x2="38.6179" y2="360.005" gradientUnits="userSpaceOnUse">
<stop stop-color="white"/>
<stop offset="1" stop-color="#999999"/>
</linearGradient>
<linearGradient id="paint18_linear_174_2" x1="46.3415" y1="41.1924" x2="38.6179" y2="360.005" gradientUnits="userSpaceOnUse">
<stop stop-color="white"/>
<stop offset="1" stop-color="#999999"/>
</linearGradient>
</defs>
</svg>
