<svg width="261" height="263" viewBox="0 0 261 263" fill="none" xmlns="http://www.w3.org/2000/svg">
<path d="M150.67 140.629C156.427 148.202 168.853 170.243 172.505 197.821" stroke="#533931" stroke-width="8.99547" stroke-linecap="round"/>
<path d="M132.121 145.972C131.274 155.447 132.475 180.721 144.051 206.016" stroke="#533931" stroke-width="8.99547" stroke-linecap="round"/>
<path d="M206.958 206.941C205.263 201.753 202.188 196.87 196.549 195.571C192.033 194.532 186.511 196.093 182.661 198.516C180.817 199.49 179.33 200.976 177.666 202.078C174.581 204.121 169.582 207.11 165.822 205.987C164.22 209.453 163.794 212.849 164.13 216.63C165.207 218.067 174.658 217.21 176.451 217.073C185.511 216.382 195.621 216.181 203.329 210.732C204.063 210.209 206.815 207.598 206.958 206.941Z" fill="#F1FAFE"/>
<path d="M206.958 206.941C205.263 201.753 202.188 196.87 196.549 195.571C192.033 194.532 186.511 196.093 182.661 198.516C180.817 199.49 179.33 200.976 177.666 202.078C174.581 204.121 169.582 207.11 165.822 205.987C164.22 209.453 163.794 212.849 164.13 216.63C165.207 218.067 174.658 217.21 176.451 217.073C185.511 216.382 195.621 216.181 203.329 210.732C204.063 210.209 206.815 207.598 206.958 206.941Z" fill="url(#paint0_linear_172_2088)"/>
<path d="M167.941 196.822C167.941 196.822 162.012 200.092 163.82 204.059C164.225 204.949 164.97 205.537 165.823 205.986C169.583 207.11 174.581 204.12 177.667 202.078C179.331 200.976 180.818 199.489 182.662 198.516C182.874 194.429 176.801 194.473 176.801 194.473L167.941 196.822Z" fill="#DAF0FC"/>
<path d="M167.941 196.822C167.941 196.822 162.012 200.092 163.82 204.059C164.225 204.949 164.97 205.537 165.823 205.986C169.583 207.11 174.581 204.12 177.667 202.078C179.331 200.976 180.818 199.489 182.662 198.516C182.874 194.429 176.801 194.473 176.801 194.473L167.941 196.822Z" fill="url(#paint1_linear_172_2088)"/>
<path d="M151.335 206.053C152.477 204.064 152.174 201.56 150.276 200.098C148.618 198.822 146.109 199.181 144.162 199.491C144.588 200.321 145.131 201.802 145.492 202.714L145.384 202.813C142.945 205.022 140.03 205.986 136.756 205.817C136.426 204.757 135.825 203.298 135.395 202.261C132.487 203.871 131.253 205.245 133.087 208.495C124.927 208.429 117.183 212.601 117.281 221.691C117.298 223.312 117.492 226.049 117.996 227.594C118.102 228.866 118.716 230.793 119.629 231.729C121.283 233.423 125.497 233.878 127.8 233.88C135.616 233.838 142.554 229.727 149.222 226.145C154.121 223.514 157.438 222.543 157.465 216.075C157.346 211.703 155.82 207.482 151.335 206.053Z" fill="#EEF9FE"/>
<path d="M151.335 206.053C152.477 204.064 152.174 201.56 150.276 200.098C148.618 198.822 146.109 199.181 144.162 199.491C144.588 200.321 145.131 201.802 145.492 202.714L145.384 202.813C142.945 205.022 140.03 205.986 136.756 205.817C136.426 204.757 135.825 203.298 135.395 202.261C132.487 203.871 131.253 205.245 133.087 208.495C124.927 208.429 117.183 212.601 117.281 221.691C117.298 223.312 117.492 226.049 117.996 227.594C118.102 228.866 118.716 230.793 119.629 231.729C121.283 233.423 125.497 233.878 127.8 233.88C135.616 233.838 142.554 229.727 149.222 226.145C154.121 223.514 157.438 222.543 157.465 216.075C157.346 211.703 155.82 207.482 151.335 206.053Z" fill="url(#paint2_linear_172_2088)"/>
<path d="M151.332 206.053C152.475 204.064 152.171 201.559 150.274 200.098C148.616 198.822 144.16 199.491 144.16 199.491L135.393 202.261C135.393 202.261 131.251 205.244 133.085 208.495C134.224 208.316 137.168 208.816 138.467 208.896C142.27 209.125 148.683 209.162 151.332 206.053Z" fill="#DDF1FC"/>
<path d="M151.332 206.053C152.475 204.064 152.171 201.559 150.274 200.098C148.616 198.822 144.16 199.491 144.16 199.491L135.393 202.261C135.393 202.261 131.251 205.244 133.085 208.495C134.224 208.316 137.168 208.816 138.467 208.896C142.27 209.125 148.683 209.162 151.332 206.053Z" fill="url(#paint3_linear_172_2088)"/>
<path d="M57.6298 149.371C68.952 152.222 78.3987 153.815 100.604 148.076" stroke="#533931" stroke-width="6.5763" stroke-linecap="round"/>
<path d="M211.892 149.078C203.805 140.657 196.641 134.296 174.772 127.385" stroke="#533931" stroke-width="6.5763" stroke-linecap="round"/>
<path d="M218.989 162.635C221.366 161.401 225.791 167.044 227.706 170.02C228.208 172.127 226.202 175.388 223.054 175.025C219.906 174.662 215.39 167.389 215.465 166.536C215.54 165.683 216.017 164.178 218.989 162.635Z" fill="url(#paint4_linear_172_2088)"/>
<path d="M225.088 157.867C227.466 156.632 231.89 162.276 233.806 165.252C234.308 167.359 232.301 170.62 229.154 170.257C226.006 169.893 221.49 162.62 221.565 161.768C221.64 160.915 222.116 159.41 225.088 157.867Z" fill="url(#paint5_linear_172_2088)"/>
<path d="M227.025 151.941C229.228 150.417 234.329 155.459 236.603 158.17C237.367 160.196 235.788 163.684 232.619 163.721C229.45 163.757 224.054 157.111 224.021 156.255C223.988 155.4 224.271 153.847 227.025 151.941Z" fill="url(#paint6_linear_172_2088)"/>
<path d="M211.088 167.911C212.078 159.162 219.34 160.209 222.848 161.826L219.463 163.863C219.896 164.169 220.402 166.667 218.965 174.212C217.168 183.645 209.852 178.846 211.088 167.911Z" fill="url(#paint7_linear_172_2088)"/>
<ellipse cx="220.137" cy="158.633" rx="12.7606" ry="12.4047" transform="rotate(135.373 220.137 158.633)" fill="url(#paint8_linear_172_2088)"/>
<path d="M214.577 141.299L204.589 150.531C202.622 152.349 198.184 155.441 201.765 159.316C205.345 163.19 209.01 160.475 210.675 158.937L220.814 149.565C221.722 148.726 225.96 144.809 222.463 141.026C219.645 137.978 215.889 140.087 214.577 141.299Z" fill="url(#paint9_linear_172_2088)"/>
<path d="M189.7 175.068L114.627 178.703C111.596 178.85 108.829 176.989 107.82 174.127L64.6338 51.5487C63.9793 49.6911 65.2993 47.7274 67.2666 47.6322L148.771 43.6865C152.668 43.4979 156.226 45.8901 157.523 49.5699L197.598 163.319C199.562 168.892 195.602 174.783 189.7 175.068Z" fill="#B34724"/>
<path d="M182.615 175.635L107.524 179.21C104.495 179.355 101.73 177.494 100.722 174.634L57.4005 51.6729C56.7457 49.8143 58.0673 47.85 60.0357 47.7563L141.567 43.8746C145.462 43.6892 149.016 46.081 150.312 49.7583L190.521 163.885C192.485 169.461 188.52 175.354 182.615 175.635Z" fill="url(#paint10_linear_172_2088)"/>
<path d="M87.4858 123.822L80.2119 123.598" stroke="#533931" stroke-width="4.90378" stroke-linecap="round"/>
<path d="M89.5304 128.114L82.9755 131.439" stroke="#533931" stroke-width="4.90378" stroke-linecap="round"/>
<ellipse cx="21.5766" cy="24.8556" rx="21.5766" ry="24.8556" transform="matrix(-0.943175 0.332297 0.332297 0.943175 121.536 89.0938)" fill="url(#paint11_linear_172_2088)"/>
<ellipse cx="113.618" cy="118.569" rx="9.4156" ry="10.7083" transform="rotate(-19.4083 113.618 118.569)" fill="#533931"/>
<path d="M112.458 118.435L103.72 118.811L106.392 126.397L112.458 118.435Z" fill="white"/>
<mask id="mask0_172_2088" style="mask-type:alpha" maskUnits="userSpaceOnUse" x="87" y="95" width="45" height="50">
<ellipse cx="21.5766" cy="24.8556" rx="21.5766" ry="24.8556" transform="matrix(-0.943175 0.332297 0.332297 0.943175 121.536 89.0938)" fill="white"/>
</mask>
<g mask="url(#mask0_172_2088)">
<rect width="56.9623" height="38.865" transform="matrix(-0.943175 0.332297 0.332297 0.943175 118.997 68.9043)" fill="#E0532C"/>
</g>
<path d="M159.884 97.3575L165.411 92.623" stroke="#533931" stroke-width="4.90378" stroke-linecap="round"/>
<path d="M160.983 101.982L168.175 100.464" stroke="#533931" stroke-width="4.90378" stroke-linecap="round"/>
<ellipse cx="21.5766" cy="24.8556" rx="21.5766" ry="24.8556" transform="matrix(-0.943175 0.332297 0.332297 0.943175 152.985 78.0127)" fill="url(#paint12_linear_172_2088)"/>
<ellipse cx="145.069" cy="107.489" rx="9.4156" ry="10.7083" transform="rotate(-19.4083 145.069 107.489)" fill="#533931"/>
<path d="M143.909 107.354L135.171 107.729L137.844 115.316L143.909 107.354Z" fill="white"/>
<mask id="mask1_172_2088" style="mask-type:alpha" maskUnits="userSpaceOnUse" x="118" y="84" width="45" height="50">
<ellipse cx="21.5766" cy="24.8556" rx="21.5766" ry="24.8556" transform="matrix(-0.943175 0.332297 0.332297 0.943175 152.985 78.0127)" fill="white"/>
</mask>
<g mask="url(#mask1_172_2088)">
<path d="M150.446 57.8242L96.7208 76.7526L109.636 113.409L163.361 94.4807L150.446 57.8242Z" fill="#E0532C"/>
</g>
<path d="M148.427 140.661C146.475 143.736 139.748 149.865 128.455 149.783" stroke="#B34724" stroke-width="4.05292" stroke-linecap="round"/>
<path d="M131.262 75.4858C132.685 74.7166 137.159 73.7277 143.673 75.9252" stroke="#533931" stroke-width="3.96409" stroke-linecap="round"/>
<path d="M100.011 83.1337C98.4208 83.4261 94.315 85.4599 90.617 91.2553" stroke="#533931" stroke-width="3.96409" stroke-linecap="round"/>
<path d="M60.0901 143.897C61.6816 146.64 58.6504 154.051 56.9358 157.413C46.32 163.758 39.5759 161.454 37.5308 159.509C35.8546 156.358 33.26 147.966 36.2915 139.607C40.0808 129.16 58.1007 140.469 60.0901 143.897Z" fill="url(#paint13_linear_172_2088)"/>
<path d="M58.5536 140.978C60.4865 138.422 63.7344 139.582 64.0093 141.36C64.5592 144.918 64.8877 153.029 61.8017 157.008C59.5974 159.85 56.301 160.245 56.235 157.906C56.1031 153.228 56.3774 143.856 58.5536 140.978Z" fill="url(#paint14_linear_172_2088)"/>
<path d="M44.3861 122.103C49.7983 117.518 55.4685 133.82 57.6271 142.544L53.0926 141.284C49.741 140.353 46.7649 138.259 45.2925 135.107C43.1174 130.452 41.522 124.714 44.3861 122.103Z" fill="url(#paint15_linear_172_2088)"/>
<path d="M31.7806 145.71C33.6269 148.1 40.827 144.426 44.1963 142.29C45.7084 140.373 45.2028 136.088 41.8115 134.967C38.4201 133.846 30.3541 139.143 30.0266 140.051C29.6992 140.958 29.4728 142.723 31.7806 145.71Z" fill="url(#paint16_linear_172_2088)"/>
<path d="M35.7572 153.479C37.6034 155.868 44.8036 152.194 48.1729 150.058C49.685 148.142 49.1794 143.856 45.788 142.735C42.3967 141.614 34.3306 146.911 34.0032 147.819C33.6757 148.727 33.4494 150.492 35.7572 153.479Z" fill="url(#paint17_linear_172_2088)"/>
<path d="M34.9313 160.457C36.4618 163.06 44.0674 160.322 47.6789 158.628C49.4204 156.917 49.4587 152.602 46.2356 151.063C43.0125 149.524 34.3434 153.762 33.9042 154.622C33.465 155.481 33.0181 157.203 34.9313 160.457Z" fill="url(#paint18_linear_172_2088)"/>
<defs>
<linearGradient id="paint0_linear_172_2088" x1="186.752" y1="204.868" x2="194.679" y2="232.395" gradientUnits="userSpaceOnUse">
<stop stop-color="white"/>
<stop offset="1" stop-color="#EF643E"/>
</linearGradient>
<linearGradient id="paint1_linear_172_2088" x1="174.114" y1="199" x2="177.847" y2="211.961" gradientUnits="userSpaceOnUse">
<stop stop-color="white"/>
<stop offset="1" stop-color="#EF643E"/>
</linearGradient>
<linearGradient id="paint2_linear_172_2088" x1="138.629" y1="213.614" x2="150.45" y2="254.658" gradientUnits="userSpaceOnUse">
<stop stop-color="white"/>
<stop offset="1" stop-color="#EF643E"/>
</linearGradient>
<linearGradient id="paint3_linear_172_2088" x1="143.354" y1="203.709" x2="147.114" y2="216.764" gradientUnits="userSpaceOnUse">
<stop stop-color="white"/>
<stop offset="1" stop-color="#EF643E"/>
</linearGradient>
<linearGradient id="paint4_linear_172_2088" x1="221.699" y1="172.843" x2="207.334" y2="141.756" gradientUnits="userSpaceOnUse">
<stop stop-color="white"/>
<stop offset="1" stop-color="#EF643E"/>
</linearGradient>
<linearGradient id="paint5_linear_172_2088" x1="227.799" y1="168.075" x2="213.434" y2="136.988" gradientUnits="userSpaceOnUse">
<stop stop-color="white"/>
<stop offset="1" stop-color="#EF643E"/>
</linearGradient>
<linearGradient id="paint6_linear_172_2088" x1="231" y1="161.727" x2="212.833" y2="132.697" gradientUnits="userSpaceOnUse">
<stop stop-color="white"/>
<stop offset="1" stop-color="#EF643E"/>
</linearGradient>
<linearGradient id="paint7_linear_172_2088" x1="214.632" y1="168.949" x2="228.236" y2="171.198" gradientUnits="userSpaceOnUse">
<stop stop-color="white"/>
<stop offset="1" stop-color="#EF643E" stop-opacity="0.262745"/>
</linearGradient>
<linearGradient id="paint8_linear_172_2088" x1="220.137" y1="146.228" x2="218.631" y2="204.806" gradientUnits="userSpaceOnUse">
<stop stop-color="white"/>
<stop offset="1" stop-color="#EF643E"/>
</linearGradient>
<linearGradient id="paint9_linear_172_2088" x1="208.802" y1="146.588" x2="223.177" y2="163.658" gradientUnits="userSpaceOnUse">
<stop stop-color="white"/>
<stop offset="1" stop-color="#EF643E"/>
</linearGradient>
<linearGradient id="paint10_linear_172_2088" x1="162.398" y1="148.994" x2="122.753" y2="36.4673" gradientUnits="userSpaceOnUse">
<stop stop-color="#EA7A19"/>
<stop offset="1" stop-color="#EF643E"/>
</linearGradient>
<linearGradient id="paint11_linear_172_2088" x1="21.3717" y1="24.9104" x2="21.3717" y2="190.375" gradientUnits="userSpaceOnUse">
<stop stop-color="white"/>
<stop offset="1" stop-color="#999999"/>
</linearGradient>
<linearGradient id="paint12_linear_172_2088" x1="17.7954" y1="34.1409" x2="17.7954" y2="139.095" gradientUnits="userSpaceOnUse">
<stop stop-color="white"/>
<stop offset="1" stop-color="#999999"/>
</linearGradient>
<linearGradient id="paint13_linear_172_2088" x1="46.9553" y1="134.999" x2="50.4573" y2="200.979" gradientUnits="userSpaceOnUse">
<stop stop-color="white"/>
<stop offset="1" stop-color="#EF643E"/>
</linearGradient>
<linearGradient id="paint14_linear_172_2088" x1="55.2008" y1="143.381" x2="57.4718" y2="184.882" gradientUnits="userSpaceOnUse">
<stop offset="0.0743331" stop-color="white"/>
<stop offset="1" stop-color="#EF643E"/>
</linearGradient>
<linearGradient id="paint15_linear_172_2088" x1="45.7487" y1="124.413" x2="38.7235" y2="195.677" gradientUnits="userSpaceOnUse">
<stop stop-color="white"/>
<stop offset="1" stop-color="#EF643E"/>
</linearGradient>
<linearGradient id="paint16_linear_172_2088" x1="39.3917" y1="136.556" x2="9.96493" y2="161.537" gradientUnits="userSpaceOnUse">
<stop stop-color="white"/>
<stop offset="1" stop-color="#EF643E"/>
</linearGradient>
<linearGradient id="paint17_linear_172_2088" x1="43.3682" y1="144.324" x2="13.9415" y2="169.306" gradientUnits="userSpaceOnUse">
<stop stop-color="white"/>
<stop offset="1" stop-color="#EF643E"/>
</linearGradient>
<linearGradient id="paint18_linear_172_2088" x1="43.6349" y1="152.334" x2="11.2955" y2="173.41" gradientUnits="userSpaceOnUse">
<stop stop-color="white"/>
<stop offset="1" stop-color="#EF643E"/>
</linearGradient>
</defs>
</svg>
