<svg width="151" height="31" viewBox="0 0 151 31" fill="none" xmlns="http://www.w3.org/2000/svg">
<g clip-path="url(#clip0_149_465)">
<path d="M32.5526 2.17227C30.9517 1.04936 28.7443 0.459357 25.9288 0.402992H3.82135V0.406652H3.02126L0.402985 5.29651H3.82135V22.5999H9.61768V5.29651H13.7822V5.28846H16.3659V22.5999H22.245V5.33092H23.135C23.425 5.33092 23.7077 5.31701 23.984 5.28846C25.7231 5.23283 27.0268 5.36678 27.8967 5.68887C28.7659 6.01242 29.2004 7.21293 29.2004 9.29038V22.6006H34.9968V8.57447C34.9694 5.42974 34.1542 3.29591 32.554 2.17227H32.5526Z" fill="#3E82F7"/>
<path d="M92.6176 0.406652H88.2466V0.402992L77.7728 0.404456C76.2546 0.404456 74.7919 0.606492 73.3845 0.929311C71.9765 1.25213 70.7073 1.96145 69.5755 3.05655C68.6365 3.98328 67.9127 5.06446 67.4019 6.29937C66.891 7.53574 66.5665 8.7992 66.4291 10.0905C66.401 10.343 66.3802 10.5956 66.3672 10.8488C66.3528 11.1014 66.3463 11.3539 66.3463 11.6065C66.3463 11.8034 66.3528 12.0069 66.3672 12.217C66.3809 12.4278 66.3881 12.6452 66.3881 12.8699C66.5262 14.2176 66.85 15.5381 67.3608 16.8294C67.871 18.1214 68.6092 19.2443 69.5755 20.1989C70.79 21.4067 72.0592 22.1087 73.3845 22.3049C74.7091 22.5018 76.1719 22.5999 77.7728 22.5999H82.451C82.5057 23.7506 82.2373 24.6144 81.6437 25.1905C81.0501 25.7651 80.1738 26.0674 79.0147 26.096H71.3239L68.7056 30.603H80.0076C82.9604 30.603 85.0722 29.8585 86.3421 28.3703C87.6113 26.8822 88.2466 24.6912 88.2466 21.7998V5.13327H89.9993L92.6176 0.406652ZM82.4503 18.0094C82.4503 18.0094 77.0957 18.0328 76.5022 17.9208C75.9086 17.8088 75.0811 17.4904 74.584 17.1244C73.645 16.451 73.0313 15.6018 72.742 14.5763C72.4521 13.5514 72.3211 12.5054 72.3484 11.4381C72.3484 11.2698 72.3549 11.1014 72.3693 10.933C72.383 10.7647 72.3902 10.5956 72.3902 10.4272C72.5276 7.95665 73.3629 6.45456 74.8948 5.92092C76.4266 5.38728 78.0894 5.13474 79.8838 5.16255C80.0493 5.16255 82.4445 5.17207 82.451 5.16255V18.0094H82.4503Z" fill="#ED6545"/>
<path d="M148.227 22.6094L151 18.1222H146.534V8.74289C146.534 7.61998 146.375 6.52489 146.057 5.45761C145.739 4.39106 145.181 3.46433 144.38 2.67815C143.441 1.72433 142.386 1.1131 141.213 0.845915C140.039 0.579462 138.818 0.432327 137.549 0.403778H128.368L125.75 4.99497L135.355 5.03743C136.9 5.03743 138.177 5.26216 139.185 5.71088C140.192 6.16034 140.655 7.29789 140.572 9.12281L132.995 9.16453C130.705 9.16453 128.731 9.55835 127.075 10.3438C125.42 11.1307 124.494 12.8575 124.302 15.525C124.191 17.7437 124.729 19.4779 125.916 20.7267C127.103 21.977 128.814 22.6014 131.05 22.6014H138.261V22.6109H148.227V22.6094ZM133.41 18.1354C133.41 18.1354 130.305 18.3623 130.305 15.9035C130.305 13.4446 133.768 13.5727 133.824 13.5442H140.614V18.1222H138.261V18.1354H133.41Z" fill="#00BAD1"/>
<path d="M117.459 2.13055C115.858 1.00764 113.623 0.431541 110.753 0.402992H99.9056V0.406652H98.8249L96.2066 5.29651H99.9056V22.5999H105.66V5.29651H106.529L110.297 5.33091C111.842 5.33091 112.864 5.5981 113.36 6.13101C113.857 6.66465 114.106 7.70411 114.106 9.24793V22.5999H119.86V8.57447C119.86 5.40192 119.059 3.25346 117.459 2.13055Z" fill="#8A49EF"/>
<path d="M59.1816 17.7298V0.402992L53.427 3.06679V17.7144L51.7131 17.7298H49.5719V17.7495L48.7905 17.7569C47.3832 17.7569 46.4032 17.5043 45.8513 16.9985C45.2987 16.4927 45.0232 15.4964 45.0232 14.0082V0.402992L39.2686 3.06679V14.5133C39.2686 17.658 40.0823 19.7933 41.7113 20.9155C43.3395 22.0384 45.5477 22.5999 48.3358 22.5999H49.5726V22.6196H60.3328L62.9511 17.7298H59.1823H59.1816Z" fill="#FDBD00"/>
</g>
<defs>
<clipPath id="clip0_149_465">
<rect width="150.597" height="30.2" fill="white" transform="translate(0.402664 0.402668)"/>
</clipPath>
</defs>
</svg>
