<svg width="84" height="81" viewBox="0 0 84 81" fill="none" xmlns="http://www.w3.org/2000/svg">
<path d="M39.04 16.0977C40.0064 13.4858 43.7006 13.4858 44.6671 16.0977L49.7476 29.8276C50.0515 30.6488 50.6989 31.2962 51.5201 31.6L65.25 36.6806C67.8618 37.6471 67.8619 41.3412 65.25 42.3077L51.5201 47.3882C50.6989 47.6921 50.0515 48.3395 49.7476 49.1607L44.6671 62.8906C43.7006 65.5025 40.0064 65.5025 39.04 62.8906L33.9594 49.1607C33.6556 48.3395 33.0081 47.6921 32.187 47.3882L18.457 42.3077C15.8452 41.3412 15.8452 37.6471 18.457 36.6806L32.187 31.6C33.0081 31.2962 33.6556 30.6488 33.9594 29.8276L39.04 16.0977Z" fill="#7549AF"/>
<path d="M41.9004 6.90039C61.3961 6.9004 76.9004 22.0615 76.9004 40.4004C76.9004 58.7393 61.3961 73.9004 41.9004 73.9004C22.4046 73.9004 6.90039 58.7393 6.90039 40.4004C6.90039 22.0615 22.4046 6.90039 41.9004 6.90039Z" stroke="url(#paint0)" stroke-width="9"/>
<defs>
<linearGradient id="paint0" x1="2.40039" y1="-17.0996" x2="66.8535" y2="133.994" gradientUnits="userSpaceOnUse">
<stop stop-color="#511B9C"/>
<stop offset="1" stop-color="#511B9C" stop-opacity="0"/>
</linearGradient>
</defs>
</svg>
