<svg width="88" height="86" viewBox="0 0 88 86" fill="none" xmlns="http://www.w3.org/2000/svg">
<rect x="6.90039" y="6.90039" width="73.5686" height="72.0791" rx="7.5" stroke="url(#paint0)" stroke-width="9"/>
<path d="M40.954 19.0977C41.9205 16.4858 45.6147 16.4858 46.5811 19.0977L51.6617 32.8276C51.9655 33.6488 52.613 34.2962 53.4341 34.6L67.1641 39.6806C69.7759 40.6471 69.7759 44.3412 67.1641 45.3077L53.4341 50.3882C52.613 50.6921 51.9655 51.3395 51.6617 52.1607L46.5811 65.8906C45.6147 68.5025 41.9205 68.5025 40.954 65.8906L35.8735 52.1607C35.5696 51.3395 34.9222 50.6921 34.101 50.3882L20.3711 45.3077C17.7592 44.3412 17.7592 40.6471 20.3711 39.6806L34.101 34.6C34.9222 34.2962 35.5696 33.6488 35.8735 32.8276L40.954 19.0977Z" fill="#3E82F7"/>
<defs>
<linearGradient id="paint0" x1="43.6847" y1="2.40039" x2="114.268" y2="171.494" gradientUnits="userSpaceOnUse">
<stop stop-color="#3E82F7"/>
<stop offset="1" stop-color="#4385F7" stop-opacity="0"/>
</linearGradient>
</defs>
</svg>
