<svg width="81" height="122" viewBox="0 0 81 122" fill="none" xmlns="http://www.w3.org/2000/svg">
<path d="M33.4766 66.5918C36.2718 61.5354 43.5309 61.5055 46.3672 66.5391L67.5654 104.161C70.3376 109.081 66.7822 115.165 61.1348 115.165H19.1387C13.5178 115.165 9.96026 109.132 12.6797 104.213L33.4766 66.5918Z" stroke="url(#paint0)" stroke-width="7.8151"/>
<path d="M37.1864 7.60353C38.1529 4.99167 41.8471 4.99166 42.8136 7.60352L47.8941 21.3335C48.1979 22.1546 48.8454 22.8021 49.6665 23.1059L63.3965 28.1864C66.0083 29.1529 66.0083 32.8471 63.3965 33.8136L49.6665 38.8941C48.8454 39.1979 48.1979 39.8454 47.8941 40.6665L42.8136 54.3965C41.8471 57.0083 38.1529 57.0083 37.1864 54.3965L32.1059 40.6665C31.8021 39.8454 31.1546 39.1979 30.3335 38.8941L16.6035 33.8136C13.9917 32.8471 13.9917 29.1529 16.6035 28.1864L30.3335 23.1059C31.1546 22.8021 31.8021 22.1546 32.1059 21.3335L37.1864 7.60353Z" fill="#28C4D8"/>
<defs>
<linearGradient id="paint0" x1="40.2266" y1="47" x2="86.886" y2="172.25" gradientUnits="userSpaceOnUse">
<stop stop-color="#00BAD1"/>
<stop offset="1" stop-color="#36C9DB" stop-opacity="0"/>
</linearGradient>
</defs>
</svg>
