<svg width="67" height="136" viewBox="0 0 67 136" fill="none" xmlns="http://www.w3.org/2000/svg">
<path d="M31.04 43.6973C32.0064 41.0854 35.7006 41.0854 36.6671 43.6973L41.7476 57.4272C42.0515 58.2484 42.6989 58.8958 43.5201 59.1997L57.25 64.2802C59.8618 65.2467 59.8619 68.9408 57.25 69.9073L43.5201 74.9878C42.6989 75.2917 42.0515 75.9391 41.7476 76.7603L36.6671 90.4902C35.7006 93.1021 32.0064 93.1021 31.04 90.4902L25.9594 76.7603C25.6556 75.9391 25.0081 75.2917 24.187 74.9878L10.457 69.9073C7.84519 68.9408 7.84518 65.2467 10.457 64.2802L24.187 59.1997C25.0081 58.8958 25.6556 58.2484 25.9594 57.4272L31.04 43.6973Z" fill="#F37F5F"/>
<path d="M48.8555 13.4463C53.8517 10.7662 59.9002 14.385 59.9004 20.0547V96.0947C59.9004 98.8782 58.3591 101.433 55.8965 102.73L17.8965 122.75C12.902 125.381 6.90039 121.759 6.90039 116.114V40.4395C6.90051 37.6762 8.42048 35.1373 10.8555 33.8311L48.8555 13.4463Z" stroke="url(#paint0)" stroke-width="9"/>
<defs>
<linearGradient id="paint0" x1="-9.59961" y1="11.5" x2="90.4004" y2="112.5" gradientUnits="userSpaceOnUse">
<stop stop-color="#EF643E"/>
<stop offset="1" stop-color="#FFCDC0"/>
</linearGradient>
</defs>
</svg>
